<?xml version="1.0" encoding="UTF-8" standalone="no"?>
<!DOCTYPE svg PUBLIC "-//W3C//DTD SVG 1.1//EN"
 "http://www.w3.org/Graphics/SVG/1.1/DTD/svg11.dtd">
<!-- Generated by graphviz version 2.47.0 (20210316.0004)
 -->
<!-- Title: dependencies Pages: 1 -->
<svg width="504pt" height="284pt"
 viewBox="0.00 0.00 504.00 284.00" xmlns="http://www.w3.org/2000/svg" xmlns:xlink="http://www.w3.org/1999/xlink">
<g id="graph0" class="graph" transform="scale(1 1) rotate(0) translate(4 280)">
<title>dependencies</title>
<polygon fill="white" stroke="transparent" points="-4,4 -4,-280 500,-280 500,4 -4,4"/>
<text text-anchor="start" x="227.01" y="-42.4" font-family="Times-12" font-weight="bold" font-size="14.00">Legend</text>
<polygon fill="#ffffb3" stroke="transparent" points="14,-10 14,-30 34,-30 34,-10 14,-10"/>
<text text-anchor="start" x="37.63" y="-15.4" font-family="Times-12" font-size="14.00"> &#160;Declarations</text>
<polygon fill="#8dd3c7" stroke="transparent" points="127,-10 127,-30 147,-30 147,-10 127,-10"/>
<text text-anchor="start" x="150.73" y="-15.4" font-family="Times-12" font-size="14.00"> &#160;Module</text>
<polygon fill="#80b1d3" stroke="transparent" points="213,-10 213,-30 233,-30 233,-10 213,-10"/>
<text text-anchor="start" x="236.78" y="-15.4" font-family="Times-12" font-size="14.00"> &#160;Bootstrap</text>
<polygon fill="#fdb462" stroke="transparent" points="310,-10 310,-30 330,-30 330,-10 310,-10"/>
<text text-anchor="start" x="333.67" y="-15.4" font-family="Times-12" font-size="14.00"> &#160;Providers</text>
<polygon fill="#fb8072" stroke="transparent" points="406,-10 406,-30 426,-30 426,-10 406,-10"/>
<text text-anchor="start" x="429.73" y="-15.4" font-family="Times-12" font-size="14.00"> &#160;Exports</text>
<g id="clust1" class="cluster">
<title>cluster_StorageModule</title>
<polygon fill="none" stroke="black" stroke-dasharray="1,5" points="137,-70 137,-268 359,-268 359,-70 137,-70"/>
</g>
<g id="clust6" class="cluster">
<title>cluster_StorageModule_providers</title>
<polygon fill="none" stroke="black" points="171,-78 171,-130 325,-130 325,-78 171,-78"/>
</g>
<g id="clust4" class="cluster">
<title>cluster_StorageModule_exports</title>
<polygon fill="none" stroke="black" points="145,-208 145,-260 351,-260 351,-208 145,-208"/>
</g>
<!-- S3Client  -->
<g id="node1" class="node">
<title>S3Client </title>
<polygon fill="#fb8072" stroke="black" points="343.01,-252 274.99,-252 274.99,-216 343.01,-216 343.01,-252"/>
<text text-anchor="middle" x="309" y="-229.8" font-family="Times,serif" font-size="14.00">S3Client </text>
</g>
<!-- StorageService  -->
<g id="node2" class="node">
<title>StorageService </title>
<polygon fill="#fb8072" stroke="black" points="257.24,-252 152.76,-252 152.76,-216 257.24,-216 257.24,-252"/>
<text text-anchor="middle" x="205" y="-229.8" font-family="Times,serif" font-size="14.00">StorageService </text>
</g>
<!-- StorageModule -->
<g id="node3" class="node">
<title>StorageModule</title>
<polygon fill="#8dd3c7" stroke="black" points="299.31,-187 296.31,-191 275.31,-191 272.31,-187 196.69,-187 196.69,-151 299.31,-151 299.31,-187"/>
<text text-anchor="middle" x="248" y="-164.8" font-family="Times,serif" font-size="14.00">StorageModule</text>
</g>
<!-- StorageModule&#45;&gt;S3Client  -->
<g id="edge1" class="edge">
<title>StorageModule&#45;&gt;S3Client </title>
<path fill="none" stroke="black" stroke-dasharray="5,2" d="M286.95,-187.11C286.95,-187.11 286.95,-205.99 286.95,-205.99"/>
<polygon fill="black" stroke="black" points="283.45,-205.99 286.95,-215.99 290.45,-205.99 283.45,-205.99"/>
</g>
<!-- StorageModule&#45;&gt;StorageService  -->
<g id="edge2" class="edge">
<title>StorageModule&#45;&gt;StorageService </title>
<path fill="none" stroke="black" stroke-dasharray="5,2" d="M226.98,-187.11C226.98,-187.11 226.98,-205.99 226.98,-205.99"/>
<polygon fill="black" stroke="black" points="223.48,-205.99 226.98,-215.99 230.48,-205.99 223.48,-205.99"/>
</g>
<!-- StorageService -->
<g id="node4" class="node">
<title>StorageService</title>
<ellipse fill="#fdb462" stroke="black" cx="248" cy="-104" rx="69.48" ry="18"/>
<text text-anchor="middle" x="248" y="-99.8" font-family="Times,serif" font-size="14.00">StorageService</text>
</g>
<!-- StorageService&#45;&gt;StorageModule -->
<g id="edge3" class="edge">
<title>StorageService&#45;&gt;StorageModule</title>
<path fill="none" stroke="black" d="M248,-122.11C248,-122.11 248,-140.99 248,-140.99"/>
<polygon fill="black" stroke="black" points="244.5,-140.99 248,-150.99 251.5,-140.99 244.5,-140.99"/>
</g>
</g>
</svg>
