<?xml version="1.0" encoding="UTF-8" standalone="no"?>
<!DOCTYPE svg PUBLIC "-//W3C//DTD SVG 1.1//EN"
 "http://www.w3.org/Graphics/SVG/1.1/DTD/svg11.dtd">
<!-- Generated by graphviz version 2.47.0 (20210316.0004)
 -->
<!-- Title: dependencies Pages: 1 -->
<svg width="504pt" height="284pt"
 viewBox="0.00 0.00 504.00 284.00" xmlns="http://www.w3.org/2000/svg" xmlns:xlink="http://www.w3.org/1999/xlink">
<g id="graph0" class="graph" transform="scale(1 1) rotate(0) translate(4 280)">
<title>dependencies</title>
<polygon fill="white" stroke="transparent" points="-4,4 -4,-280 500,-280 500,4 -4,4"/>
<text text-anchor="start" x="227.01" y="-42.4" font-family="Times-12" font-weight="bold" font-size="14.00">Legend</text>
<polygon fill="#ffffb3" stroke="transparent" points="14,-10 14,-30 34,-30 34,-10 14,-10"/>
<text text-anchor="start" x="37.63" y="-15.4" font-family="Times-12" font-size="14.00"> &#160;Declarations</text>
<polygon fill="#8dd3c7" stroke="transparent" points="127,-10 127,-30 147,-30 147,-10 127,-10"/>
<text text-anchor="start" x="150.73" y="-15.4" font-family="Times-12" font-size="14.00"> &#160;Module</text>
<polygon fill="#80b1d3" stroke="transparent" points="213,-10 213,-30 233,-30 233,-10 213,-10"/>
<text text-anchor="start" x="236.78" y="-15.4" font-family="Times-12" font-size="14.00"> &#160;Bootstrap</text>
<polygon fill="#fdb462" stroke="transparent" points="310,-10 310,-30 330,-30 330,-10 310,-10"/>
<text text-anchor="start" x="333.67" y="-15.4" font-family="Times-12" font-size="14.00"> &#160;Providers</text>
<polygon fill="#fb8072" stroke="transparent" points="406,-10 406,-30 426,-30 426,-10 406,-10"/>
<text text-anchor="start" x="429.73" y="-15.4" font-family="Times-12" font-size="14.00"> &#160;Exports</text>
<g id="clust1" class="cluster">
<title>cluster_CategoriesDbModule</title>
<polygon fill="none" stroke="black" stroke-dasharray="1,5" points="72,-70 72,-268 424,-268 424,-70 72,-70"/>
</g>
<g id="clust3" class="cluster">
<title>cluster_CategoriesDbModule_imports</title>
<polygon fill="none" stroke="black" points="290,-78 290,-130 416,-130 416,-78 290,-78"/>
</g>
<g id="clust6" class="cluster">
<title>cluster_CategoriesDbModule_providers</title>
<polygon fill="none" stroke="black" points="80,-78 80,-130 282,-130 282,-78 80,-78"/>
</g>
<g id="clust4" class="cluster">
<title>cluster_CategoriesDbModule_exports</title>
<polygon fill="none" stroke="black" points="183,-208 183,-260 337,-260 337,-208 183,-208"/>
</g>
<!-- DatabaseModule -->
<g id="node1" class="node">
<title>DatabaseModule</title>
<polygon fill="#8dd3c7" stroke="black" points="408.35,-122 405.35,-126 384.35,-126 381.35,-122 297.65,-122 297.65,-86 408.35,-86 408.35,-122"/>
<text text-anchor="middle" x="353" y="-99.8" font-family="Times,serif" font-size="14.00">DatabaseModule</text>
</g>
<!-- CategoriesDbModule -->
<g id="node2" class="node">
<title>CategoriesDbModule</title>
<polygon fill="#8dd3c7" stroke="black" points="328.02,-187 325.02,-191 304.02,-191 301.02,-187 191.98,-187 191.98,-151 328.02,-151 328.02,-187"/>
<text text-anchor="middle" x="260" y="-164.8" font-family="Times,serif" font-size="14.00">CategoriesDbModule</text>
</g>
<!-- DatabaseModule&#45;&gt;CategoriesDbModule -->
<g id="edge1" class="edge">
<title>DatabaseModule&#45;&gt;CategoriesDbModule</title>
<path fill="none" stroke="black" d="M312.92,-122.11C312.92,-122.11 312.92,-140.99 312.92,-140.99"/>
<polygon fill="black" stroke="black" points="309.42,-140.99 312.92,-150.99 316.42,-140.99 309.42,-140.99"/>
</g>
<!-- CategoriesDbService  -->
<g id="node3" class="node">
<title>CategoriesDbService </title>
<polygon fill="#fb8072" stroke="black" points="329.45,-252 190.55,-252 190.55,-216 329.45,-216 329.45,-252"/>
<text text-anchor="middle" x="260" y="-229.8" font-family="Times,serif" font-size="14.00">CategoriesDbService </text>
</g>
<!-- CategoriesDbModule&#45;&gt;CategoriesDbService  -->
<g id="edge2" class="edge">
<title>CategoriesDbModule&#45;&gt;CategoriesDbService </title>
<path fill="none" stroke="black" stroke-dasharray="5,2" d="M260,-187.11C260,-187.11 260,-205.99 260,-205.99"/>
<polygon fill="black" stroke="black" points="256.5,-205.99 260,-215.99 263.5,-205.99 256.5,-205.99"/>
</g>
<!-- CategoriesDbService -->
<g id="node4" class="node">
<title>CategoriesDbService</title>
<ellipse fill="#fdb462" stroke="black" cx="181" cy="-104" rx="93.17" ry="18"/>
<text text-anchor="middle" x="181" y="-99.8" font-family="Times,serif" font-size="14.00">CategoriesDbService</text>
</g>
<!-- CategoriesDbService&#45;&gt;CategoriesDbModule -->
<g id="edge3" class="edge">
<title>CategoriesDbService&#45;&gt;CategoriesDbModule</title>
<path fill="none" stroke="black" d="M232.91,-119.08C232.91,-119.08 232.91,-140.76 232.91,-140.76"/>
<polygon fill="black" stroke="black" points="229.41,-140.76 232.91,-150.76 236.41,-140.76 229.41,-140.76"/>
</g>
</g>
</svg>
