<?xml version="1.0" encoding="UTF-8" standalone="no"?>
<!DOCTYPE svg PUBLIC "-//W3C//DTD SVG 1.1//EN"
 "http://www.w3.org/Graphics/SVG/1.1/DTD/svg11.dtd">
<!-- Generated by graphviz version 2.47.0 (20210316.0004)
 -->
<!-- Title: dependencies Pages: 1 -->
<svg width="560pt" height="284pt"
 viewBox="0.00 0.00 560.00 284.00" xmlns="http://www.w3.org/2000/svg" xmlns:xlink="http://www.w3.org/1999/xlink">
<g id="graph0" class="graph" transform="scale(1 1) rotate(0) translate(4 280)">
<title>dependencies</title>
<polygon fill="white" stroke="transparent" points="-4,4 -4,-280 556,-280 556,4 -4,4"/>
<text text-anchor="start" x="255.01" y="-42.4" font-family="Times-12" font-weight="bold" font-size="14.00">Legend</text>
<polygon fill="#ffffb3" stroke="transparent" points="42,-10 42,-30 62,-30 62,-10 42,-10"/>
<text text-anchor="start" x="65.63" y="-15.4" font-family="Times-12" font-size="14.00"> &#160;Declarations</text>
<polygon fill="#8dd3c7" stroke="transparent" points="155,-10 155,-30 175,-30 175,-10 155,-10"/>
<text text-anchor="start" x="178.73" y="-15.4" font-family="Times-12" font-size="14.00"> &#160;Module</text>
<polygon fill="#80b1d3" stroke="transparent" points="241,-10 241,-30 261,-30 261,-10 241,-10"/>
<text text-anchor="start" x="264.78" y="-15.4" font-family="Times-12" font-size="14.00"> &#160;Bootstrap</text>
<polygon fill="#fdb462" stroke="transparent" points="338,-10 338,-30 358,-30 358,-10 338,-10"/>
<text text-anchor="start" x="361.67" y="-15.4" font-family="Times-12" font-size="14.00"> &#160;Providers</text>
<polygon fill="#fb8072" stroke="transparent" points="434,-10 434,-30 454,-30 454,-10 434,-10"/>
<text text-anchor="start" x="457.73" y="-15.4" font-family="Times-12" font-size="14.00"> &#160;Exports</text>
<g id="clust1" class="cluster">
<title>cluster_NotificationsApiModule</title>
<polygon fill="none" stroke="black" stroke-dasharray="1,5" points="8,-70 8,-268 544,-268 544,-70 8,-70"/>
</g>
<g id="clust3" class="cluster">
<title>cluster_NotificationsApiModule_imports</title>
<polygon fill="none" stroke="black" points="220,-78 220,-130 536,-130 536,-78 220,-78"/>
</g>
<g id="clust6" class="cluster">
<title>cluster_NotificationsApiModule_providers</title>
<polygon fill="none" stroke="black" points="16,-78 16,-130 212,-130 212,-78 16,-78"/>
</g>
<g id="clust4" class="cluster">
<title>cluster_NotificationsApiModule_exports</title>
<polygon fill="none" stroke="black" points="219,-208 219,-260 369,-260 369,-208 219,-208"/>
</g>
<!-- NotificationsDbModule -->
<g id="node1" class="node">
<title>NotificationsDbModule</title>
<polygon fill="#8dd3c7" stroke="black" points="527.75,-122 524.75,-126 503.75,-126 500.75,-122 378.25,-122 378.25,-86 527.75,-86 527.75,-122"/>
<text text-anchor="middle" x="453" y="-99.8" font-family="Times,serif" font-size="14.00">NotificationsDbModule</text>
</g>
<!-- NotificationsApiModule -->
<g id="node3" class="node">
<title>NotificationsApiModule</title>
<polygon fill="#8dd3c7" stroke="black" points="370.64,-187 367.64,-191 346.64,-191 343.64,-187 217.36,-187 217.36,-151 370.64,-151 370.64,-187"/>
<text text-anchor="middle" x="294" y="-164.8" font-family="Times,serif" font-size="14.00">NotificationsApiModule</text>
</g>
<!-- NotificationsDbModule&#45;&gt;NotificationsApiModule -->
<g id="edge1" class="edge">
<title>NotificationsDbModule&#45;&gt;NotificationsApiModule</title>
<path fill="none" stroke="black" d="M378.1,-104C370.54,-104 365.57,-104 365.57,-104 365.57,-104 365.57,-140.89 365.57,-140.89"/>
<polygon fill="black" stroke="black" points="362.07,-140.89 365.57,-150.89 369.07,-140.89 362.07,-140.89"/>
</g>
<!-- NotificationsModule -->
<g id="node2" class="node">
<title>NotificationsModule</title>
<polygon fill="#8dd3c7" stroke="black" points="360.14,-122 357.14,-126 336.14,-126 333.14,-122 227.86,-122 227.86,-86 360.14,-86 360.14,-122"/>
<text text-anchor="middle" x="294" y="-99.8" font-family="Times,serif" font-size="14.00">NotificationsModule</text>
</g>
<!-- NotificationsModule&#45;&gt;NotificationsApiModule -->
<g id="edge2" class="edge">
<title>NotificationsModule&#45;&gt;NotificationsApiModule</title>
<path fill="none" stroke="black" d="M294,-122.11C294,-122.11 294,-140.99 294,-140.99"/>
<polygon fill="black" stroke="black" points="290.5,-140.99 294,-150.99 297.5,-140.99 290.5,-140.99"/>
</g>
<!-- NotificationsService  -->
<g id="node4" class="node">
<title>NotificationsService </title>
<polygon fill="#fb8072" stroke="black" points="361.07,-252 226.93,-252 226.93,-216 361.07,-216 361.07,-252"/>
<text text-anchor="middle" x="294" y="-229.8" font-family="Times,serif" font-size="14.00">NotificationsService </text>
</g>
<!-- NotificationsApiModule&#45;&gt;NotificationsService  -->
<g id="edge3" class="edge">
<title>NotificationsApiModule&#45;&gt;NotificationsService </title>
<path fill="none" stroke="black" stroke-dasharray="5,2" d="M294,-187.11C294,-187.11 294,-205.99 294,-205.99"/>
<polygon fill="black" stroke="black" points="290.5,-205.99 294,-215.99 297.5,-205.99 290.5,-205.99"/>
</g>
<!-- NotificationsService -->
<g id="node5" class="node">
<title>NotificationsService</title>
<ellipse fill="#fdb462" stroke="black" cx="114" cy="-104" rx="90.32" ry="18"/>
<text text-anchor="middle" x="114" y="-99.8" font-family="Times,serif" font-size="14.00">NotificationsService</text>
</g>
<!-- NotificationsService&#45;&gt;NotificationsApiModule -->
<g id="edge4" class="edge">
<title>NotificationsService&#45;&gt;NotificationsApiModule</title>
<path fill="none" stroke="black" d="M204.52,-104C215.22,-104 222.43,-104 222.43,-104 222.43,-104 222.43,-140.89 222.43,-140.89"/>
<polygon fill="black" stroke="black" points="218.93,-140.89 222.43,-150.89 225.93,-140.89 218.93,-140.89"/>
</g>
</g>
</svg>
