<?xml version="1.0" encoding="UTF-8" standalone="no"?>
<!DOCTYPE svg PUBLIC "-//W3C//DTD SVG 1.1//EN"
 "http://www.w3.org/Graphics/SVG/1.1/DTD/svg11.dtd">
<!-- Generated by graphviz version 2.47.0 (20210316.0004)
 -->
<!-- Title: dependencies Pages: 1 -->
<svg width="504pt" height="284pt"
 viewBox="0.00 0.00 504.00 284.00" xmlns="http://www.w3.org/2000/svg" xmlns:xlink="http://www.w3.org/1999/xlink">
<g id="graph0" class="graph" transform="scale(1 1) rotate(0) translate(4 280)">
<title>dependencies</title>
<polygon fill="white" stroke="transparent" points="-4,4 -4,-280 500,-280 500,4 -4,4"/>
<text text-anchor="start" x="227.01" y="-42.4" font-family="Times-12" font-weight="bold" font-size="14.00">Legend</text>
<polygon fill="#ffffb3" stroke="transparent" points="14,-10 14,-30 34,-30 34,-10 14,-10"/>
<text text-anchor="start" x="37.63" y="-15.4" font-family="Times-12" font-size="14.00"> &#160;Declarations</text>
<polygon fill="#8dd3c7" stroke="transparent" points="127,-10 127,-30 147,-30 147,-10 127,-10"/>
<text text-anchor="start" x="150.73" y="-15.4" font-family="Times-12" font-size="14.00"> &#160;Module</text>
<polygon fill="#80b1d3" stroke="transparent" points="213,-10 213,-30 233,-30 233,-10 213,-10"/>
<text text-anchor="start" x="236.78" y="-15.4" font-family="Times-12" font-size="14.00"> &#160;Bootstrap</text>
<polygon fill="#fdb462" stroke="transparent" points="310,-10 310,-30 330,-30 330,-10 310,-10"/>
<text text-anchor="start" x="333.67" y="-15.4" font-family="Times-12" font-size="14.00"> &#160;Providers</text>
<polygon fill="#fb8072" stroke="transparent" points="406,-10 406,-30 426,-30 426,-10 406,-10"/>
<text text-anchor="start" x="429.73" y="-15.4" font-family="Times-12" font-size="14.00"> &#160;Exports</text>
<g id="clust1" class="cluster">
<title>cluster_NotificationsApiModule</title>
<polygon fill="none" stroke="black" stroke-dasharray="1,5" points="55,-70 55,-268 441,-268 441,-70 55,-70"/>
</g>
<g id="clust6" class="cluster">
<title>cluster_NotificationsApiModule_providers</title>
<polygon fill="none" stroke="black" points="237,-78 237,-130 433,-130 433,-78 237,-78"/>
</g>
<g id="clust3" class="cluster">
<title>cluster_NotificationsApiModule_imports</title>
<polygon fill="none" stroke="black" points="63,-78 63,-130 229,-130 229,-78 63,-78"/>
</g>
<g id="clust4" class="cluster">
<title>cluster_NotificationsApiModule_exports</title>
<polygon fill="none" stroke="black" points="165,-208 165,-260 315,-260 315,-208 165,-208"/>
</g>
<!-- NotificationsDbModule -->
<g id="node1" class="node">
<title>NotificationsDbModule</title>
<polygon fill="#8dd3c7" stroke="black" points="220.75,-122 217.75,-126 196.75,-126 193.75,-122 71.25,-122 71.25,-86 220.75,-86 220.75,-122"/>
<text text-anchor="middle" x="146" y="-99.8" font-family="Times,serif" font-size="14.00">NotificationsDbModule</text>
</g>
<!-- NotificationsApiModule -->
<g id="node2" class="node">
<title>NotificationsApiModule</title>
<polygon fill="#8dd3c7" stroke="black" points="316.64,-187 313.64,-191 292.64,-191 289.64,-187 163.36,-187 163.36,-151 316.64,-151 316.64,-187"/>
<text text-anchor="middle" x="240" y="-164.8" font-family="Times,serif" font-size="14.00">NotificationsApiModule</text>
</g>
<!-- NotificationsDbModule&#45;&gt;NotificationsApiModule -->
<g id="edge1" class="edge">
<title>NotificationsDbModule&#45;&gt;NotificationsApiModule</title>
<path fill="none" stroke="black" d="M192.03,-122.11C192.03,-122.11 192.03,-140.99 192.03,-140.99"/>
<polygon fill="black" stroke="black" points="188.53,-140.99 192.03,-150.99 195.53,-140.99 188.53,-140.99"/>
</g>
<!-- NotificationsService  -->
<g id="node3" class="node">
<title>NotificationsService </title>
<polygon fill="#fb8072" stroke="black" points="307.07,-252 172.93,-252 172.93,-216 307.07,-216 307.07,-252"/>
<text text-anchor="middle" x="240" y="-229.8" font-family="Times,serif" font-size="14.00">NotificationsService </text>
</g>
<!-- NotificationsApiModule&#45;&gt;NotificationsService  -->
<g id="edge2" class="edge">
<title>NotificationsApiModule&#45;&gt;NotificationsService </title>
<path fill="none" stroke="black" stroke-dasharray="5,2" d="M240,-187.11C240,-187.11 240,-205.99 240,-205.99"/>
<polygon fill="black" stroke="black" points="236.5,-205.99 240,-215.99 243.5,-205.99 236.5,-205.99"/>
</g>
<!-- NotificationsService -->
<g id="node4" class="node">
<title>NotificationsService</title>
<ellipse fill="#fdb462" stroke="black" cx="335" cy="-104" rx="90.32" ry="18"/>
<text text-anchor="middle" x="335" y="-99.8" font-family="Times,serif" font-size="14.00">NotificationsService</text>
</g>
<!-- NotificationsService&#45;&gt;NotificationsApiModule -->
<g id="edge3" class="edge">
<title>NotificationsService&#45;&gt;NotificationsApiModule</title>
<path fill="none" stroke="black" d="M280.7,-118.43C280.7,-118.43 280.7,-140.89 280.7,-140.89"/>
<polygon fill="black" stroke="black" points="277.2,-140.89 280.7,-150.89 284.2,-140.89 277.2,-140.89"/>
</g>
</g>
</svg>
