<?xml version="1.0" encoding="UTF-8" standalone="no"?>
<!DOCTYPE svg PUBLIC "-//W3C//DTD SVG 1.1//EN"
 "http://www.w3.org/Graphics/SVG/1.1/DTD/svg11.dtd">
<!-- Generated by graphviz version 2.47.0 (20210316.0004)
 -->
<!-- Title: dependencies Pages: 1 -->
<svg width="504pt" height="284pt"
 viewBox="0.00 0.00 504.00 284.00" xmlns="http://www.w3.org/2000/svg" xmlns:xlink="http://www.w3.org/1999/xlink">
<g id="graph0" class="graph" transform="scale(1 1) rotate(0) translate(4 280)">
<title>dependencies</title>
<polygon fill="white" stroke="transparent" points="-4,4 -4,-280 500,-280 500,4 -4,4"/>
<text text-anchor="start" x="227.01" y="-42.4" font-family="Times-12" font-weight="bold" font-size="14.00">Legend</text>
<polygon fill="#ffffb3" stroke="transparent" points="14,-10 14,-30 34,-30 34,-10 14,-10"/>
<text text-anchor="start" x="37.63" y="-15.4" font-family="Times-12" font-size="14.00"> &#160;Declarations</text>
<polygon fill="#8dd3c7" stroke="transparent" points="127,-10 127,-30 147,-30 147,-10 127,-10"/>
<text text-anchor="start" x="150.73" y="-15.4" font-family="Times-12" font-size="14.00"> &#160;Module</text>
<polygon fill="#80b1d3" stroke="transparent" points="213,-10 213,-30 233,-30 233,-10 213,-10"/>
<text text-anchor="start" x="236.78" y="-15.4" font-family="Times-12" font-size="14.00"> &#160;Bootstrap</text>
<polygon fill="#fdb462" stroke="transparent" points="310,-10 310,-30 330,-30 330,-10 310,-10"/>
<text text-anchor="start" x="333.67" y="-15.4" font-family="Times-12" font-size="14.00"> &#160;Providers</text>
<polygon fill="#fb8072" stroke="transparent" points="406,-10 406,-30 426,-30 426,-10 406,-10"/>
<text text-anchor="start" x="429.73" y="-15.4" font-family="Times-12" font-size="14.00"> &#160;Exports</text>
<g id="clust1" class="cluster">
<title>cluster_PaymentsModule</title>
<polygon fill="none" stroke="black" stroke-dasharray="1,5" points="66,-70 66,-268 430,-268 430,-70 66,-70"/>
</g>
<g id="clust3" class="cluster">
<title>cluster_PaymentsModule_imports</title>
<polygon fill="none" stroke="black" points="274,-78 274,-130 422,-130 422,-78 274,-78"/>
</g>
<g id="clust6" class="cluster">
<title>cluster_PaymentsModule_providers</title>
<polygon fill="none" stroke="black" points="74,-78 74,-130 266,-130 266,-78 74,-78"/>
</g>
<g id="clust4" class="cluster">
<title>cluster_PaymentsModule_exports</title>
<polygon fill="none" stroke="black" points="185,-208 185,-260 333,-260 333,-208 185,-208"/>
</g>
<!-- PaymentsDbModule -->
<g id="node1" class="node">
<title>PaymentsDbModule</title>
<polygon fill="#8dd3c7" stroke="black" points="413.59,-122 410.59,-126 389.59,-126 386.59,-122 282.41,-122 282.41,-86 413.59,-86 413.59,-122"/>
<text text-anchor="middle" x="348" y="-99.8" font-family="Times,serif" font-size="14.00">PaymentsDbModule</text>
</g>
<!-- PaymentsModule -->
<g id="node2" class="node">
<title>PaymentsModule</title>
<polygon fill="#8dd3c7" stroke="black" points="315.99,-187 312.99,-191 291.99,-191 288.99,-187 202.01,-187 202.01,-151 315.99,-151 315.99,-187"/>
<text text-anchor="middle" x="259" y="-164.8" font-family="Times,serif" font-size="14.00">PaymentsModule</text>
</g>
<!-- PaymentsDbModule&#45;&gt;PaymentsModule -->
<g id="edge1" class="edge">
<title>PaymentsDbModule&#45;&gt;PaymentsModule</title>
<path fill="none" stroke="black" d="M299.22,-122.11C299.22,-122.11 299.22,-140.99 299.22,-140.99"/>
<polygon fill="black" stroke="black" points="295.72,-140.99 299.22,-150.99 302.72,-140.99 295.72,-140.99"/>
</g>
<!-- PaymentApiService  -->
<g id="node3" class="node">
<title>PaymentApiService </title>
<polygon fill="#fb8072" stroke="black" points="324.97,-252 193.03,-252 193.03,-216 324.97,-216 324.97,-252"/>
<text text-anchor="middle" x="259" y="-229.8" font-family="Times,serif" font-size="14.00">PaymentApiService </text>
</g>
<!-- PaymentsModule&#45;&gt;PaymentApiService  -->
<g id="edge2" class="edge">
<title>PaymentsModule&#45;&gt;PaymentApiService </title>
<path fill="none" stroke="black" stroke-dasharray="5,2" d="M259,-187.11C259,-187.11 259,-205.99 259,-205.99"/>
<polygon fill="black" stroke="black" points="255.5,-205.99 259,-215.99 262.5,-205.99 255.5,-205.99"/>
</g>
<!-- PaymentApiService -->
<g id="node4" class="node">
<title>PaymentApiService</title>
<ellipse fill="#fdb462" stroke="black" cx="170" cy="-104" rx="88.04" ry="18"/>
<text text-anchor="middle" x="170" y="-99.8" font-family="Times,serif" font-size="14.00">PaymentApiService</text>
</g>
<!-- PaymentApiService&#45;&gt;PaymentsModule -->
<g id="edge3" class="edge">
<title>PaymentApiService&#45;&gt;PaymentsModule</title>
<path fill="none" stroke="black" d="M230.14,-117.47C230.14,-117.47 230.14,-140.86 230.14,-140.86"/>
<polygon fill="black" stroke="black" points="226.64,-140.86 230.14,-150.86 233.64,-140.86 226.64,-140.86"/>
</g>
</g>
</svg>
