<?xml version="1.0" encoding="UTF-8" standalone="no"?>
<!DOCTYPE svg PUBLIC "-//W3C//DTD SVG 1.1//EN"
 "http://www.w3.org/Graphics/SVG/1.1/DTD/svg11.dtd">
<!-- Generated by graphviz version 2.47.0 (20210316.0004)
 -->
<!-- Title: dependencies Pages: 1 -->
<svg width="504pt" height="284pt"
 viewBox="0.00 0.00 504.00 284.00" xmlns="http://www.w3.org/2000/svg" xmlns:xlink="http://www.w3.org/1999/xlink">
<g id="graph0" class="graph" transform="scale(1 1) rotate(0) translate(4 280)">
<title>dependencies</title>
<polygon fill="white" stroke="transparent" points="-4,4 -4,-280 500,-280 500,4 -4,4"/>
<text text-anchor="start" x="227.01" y="-42.4" font-family="Times-12" font-weight="bold" font-size="14.00">Legend</text>
<polygon fill="#ffffb3" stroke="transparent" points="14,-10 14,-30 34,-30 34,-10 14,-10"/>
<text text-anchor="start" x="37.63" y="-15.4" font-family="Times-12" font-size="14.00"> &#160;Declarations</text>
<polygon fill="#8dd3c7" stroke="transparent" points="127,-10 127,-30 147,-30 147,-10 127,-10"/>
<text text-anchor="start" x="150.73" y="-15.4" font-family="Times-12" font-size="14.00"> &#160;Module</text>
<polygon fill="#80b1d3" stroke="transparent" points="213,-10 213,-30 233,-30 233,-10 213,-10"/>
<text text-anchor="start" x="236.78" y="-15.4" font-family="Times-12" font-size="14.00"> &#160;Bootstrap</text>
<polygon fill="#fdb462" stroke="transparent" points="310,-10 310,-30 330,-30 330,-10 310,-10"/>
<text text-anchor="start" x="333.67" y="-15.4" font-family="Times-12" font-size="14.00"> &#160;Providers</text>
<polygon fill="#fb8072" stroke="transparent" points="406,-10 406,-30 426,-30 426,-10 406,-10"/>
<text text-anchor="start" x="429.73" y="-15.4" font-family="Times-12" font-size="14.00"> &#160;Exports</text>
<g id="clust1" class="cluster">
<title>cluster_UploadsModule</title>
<polygon fill="none" stroke="black" stroke-dasharray="1,5" points="32.5,-70 32.5,-268 463.5,-268 463.5,-70 32.5,-70"/>
</g>
<g id="clust6" class="cluster">
<title>cluster_UploadsModule_providers</title>
<polygon fill="none" stroke="black" points="295.5,-78 295.5,-130 455.5,-130 455.5,-78 295.5,-78"/>
</g>
<g id="clust4" class="cluster">
<title>cluster_UploadsModule_exports</title>
<polygon fill="none" stroke="black" points="166.5,-208 166.5,-260 290.5,-260 290.5,-208 166.5,-208"/>
</g>
<g id="clust3" class="cluster">
<title>cluster_UploadsModule_imports</title>
<polygon fill="none" stroke="black" points="40.5,-78 40.5,-130 287.5,-130 287.5,-78 40.5,-78"/>
</g>
<!-- StorageModule -->
<g id="node1" class="node">
<title>StorageModule</title>
<polygon fill="#8dd3c7" stroke="black" points="279.81,-122 276.81,-126 255.81,-126 252.81,-122 177.19,-122 177.19,-86 279.81,-86 279.81,-122"/>
<text text-anchor="middle" x="228.5" y="-99.8" font-family="Times,serif" font-size="14.00">StorageModule</text>
</g>
<!-- UploadsModule -->
<g id="node3" class="node">
<title>UploadsModule</title>
<polygon fill="#8dd3c7" stroke="black" points="281.71,-187 278.71,-191 257.71,-191 254.71,-187 175.29,-187 175.29,-151 281.71,-151 281.71,-187"/>
<text text-anchor="middle" x="228.5" y="-164.8" font-family="Times,serif" font-size="14.00">UploadsModule</text>
</g>
<!-- StorageModule&#45;&gt;UploadsModule -->
<g id="edge1" class="edge">
<title>StorageModule&#45;&gt;UploadsModule</title>
<path fill="none" stroke="black" d="M228.5,-122.11C228.5,-122.11 228.5,-140.99 228.5,-140.99"/>
<polygon fill="black" stroke="black" points="225,-140.99 228.5,-150.99 232,-140.99 225,-140.99"/>
</g>
<!-- UsersDBModule -->
<g id="node2" class="node">
<title>UsersDBModule</title>
<polygon fill="#8dd3c7" stroke="black" points="158.86,-122 155.86,-126 134.86,-126 131.86,-122 48.14,-122 48.14,-86 158.86,-86 158.86,-122"/>
<text text-anchor="middle" x="103.5" y="-99.8" font-family="Times,serif" font-size="14.00">UsersDBModule</text>
</g>
<!-- UsersDBModule&#45;&gt;UploadsModule -->
<g id="edge2" class="edge">
<title>UsersDBModule&#45;&gt;UploadsModule</title>
<path fill="none" stroke="black" d="M103.5,-122.11C103.5,-141.34 103.5,-169 103.5,-169 103.5,-169 165.13,-169 165.13,-169"/>
<polygon fill="black" stroke="black" points="165.13,-172.5 175.13,-169 165.13,-165.5 165.13,-172.5"/>
</g>
<!-- UploadsService  -->
<g id="node4" class="node">
<title>UploadsService </title>
<polygon fill="#fb8072" stroke="black" points="282.63,-252 174.37,-252 174.37,-216 282.63,-216 282.63,-252"/>
<text text-anchor="middle" x="228.5" y="-229.8" font-family="Times,serif" font-size="14.00">UploadsService </text>
</g>
<!-- UploadsModule&#45;&gt;UploadsService  -->
<g id="edge3" class="edge">
<title>UploadsModule&#45;&gt;UploadsService </title>
<path fill="none" stroke="black" stroke-dasharray="5,2" d="M228.5,-187.11C228.5,-187.11 228.5,-205.99 228.5,-205.99"/>
<polygon fill="black" stroke="black" points="225,-205.99 228.5,-215.99 232,-205.99 225,-205.99"/>
</g>
<!-- UploadsService -->
<g id="node5" class="node">
<title>UploadsService</title>
<ellipse fill="#fdb462" stroke="black" cx="375.5" cy="-104" rx="72.35" ry="18"/>
<text text-anchor="middle" x="375.5" y="-99.8" font-family="Times,serif" font-size="14.00">UploadsService</text>
</g>
<!-- UploadsService&#45;&gt;UploadsModule -->
<g id="edge4" class="edge">
<title>UploadsService&#45;&gt;UploadsModule</title>
<path fill="none" stroke="black" d="M375.5,-122.11C375.5,-141.34 375.5,-169 375.5,-169 375.5,-169 291.99,-169 291.99,-169"/>
<polygon fill="black" stroke="black" points="291.99,-165.5 281.99,-169 291.99,-172.5 291.99,-165.5"/>
</g>
</g>
</svg>
