<?xml version="1.0" encoding="UTF-8" standalone="no"?>
<!DOCTYPE svg PUBLIC "-//W3C//DTD SVG 1.1//EN"
 "http://www.w3.org/Graphics/SVG/1.1/DTD/svg11.dtd">
<!-- Generated by graphviz version 2.47.0 (20210316.0004)
 -->
<!-- Title: dependencies Pages: 1 -->
<svg width="504pt" height="284pt"
 viewBox="0.00 0.00 504.00 284.00" xmlns="http://www.w3.org/2000/svg" xmlns:xlink="http://www.w3.org/1999/xlink">
<g id="graph0" class="graph" transform="scale(1 1) rotate(0) translate(4 280)">
<title>dependencies</title>
<polygon fill="white" stroke="transparent" points="-4,4 -4,-280 500,-280 500,4 -4,4"/>
<text text-anchor="start" x="227.01" y="-42.4" font-family="Times-12" font-weight="bold" font-size="14.00">Legend</text>
<polygon fill="#ffffb3" stroke="transparent" points="14,-10 14,-30 34,-30 34,-10 14,-10"/>
<text text-anchor="start" x="37.63" y="-15.4" font-family="Times-12" font-size="14.00"> &#160;Declarations</text>
<polygon fill="#8dd3c7" stroke="transparent" points="127,-10 127,-30 147,-30 147,-10 127,-10"/>
<text text-anchor="start" x="150.73" y="-15.4" font-family="Times-12" font-size="14.00"> &#160;Module</text>
<polygon fill="#80b1d3" stroke="transparent" points="213,-10 213,-30 233,-30 233,-10 213,-10"/>
<text text-anchor="start" x="236.78" y="-15.4" font-family="Times-12" font-size="14.00"> &#160;Bootstrap</text>
<polygon fill="#fdb462" stroke="transparent" points="310,-10 310,-30 330,-30 330,-10 310,-10"/>
<text text-anchor="start" x="333.67" y="-15.4" font-family="Times-12" font-size="14.00"> &#160;Providers</text>
<polygon fill="#fb8072" stroke="transparent" points="406,-10 406,-30 426,-30 426,-10 406,-10"/>
<text text-anchor="start" x="429.73" y="-15.4" font-family="Times-12" font-size="14.00"> &#160;Exports</text>
<g id="clust1" class="cluster">
<title>cluster_PaymentsDbModule</title>
<polygon fill="none" stroke="black" stroke-dasharray="1,5" points="79,-70 79,-268 417,-268 417,-70 79,-70"/>
</g>
<g id="clust4" class="cluster">
<title>cluster_PaymentsDbModule_exports</title>
<polygon fill="none" stroke="black" points="165,-208 165,-260 309,-260 309,-208 165,-208"/>
</g>
<g id="clust6" class="cluster">
<title>cluster_PaymentsDbModule_providers</title>
<polygon fill="none" stroke="black" points="221,-78 221,-130 409,-130 409,-78 221,-78"/>
</g>
<g id="clust3" class="cluster">
<title>cluster_PaymentsDbModule_imports</title>
<polygon fill="none" stroke="black" points="87,-78 87,-130 213,-130 213,-78 87,-78"/>
</g>
<!-- DatabaseModule -->
<g id="node1" class="node">
<title>DatabaseModule</title>
<polygon fill="#8dd3c7" stroke="black" points="205.35,-122 202.35,-126 181.35,-126 178.35,-122 94.65,-122 94.65,-86 205.35,-86 205.35,-122"/>
<text text-anchor="middle" x="150" y="-99.8" font-family="Times,serif" font-size="14.00">DatabaseModule</text>
</g>
<!-- PaymentsDbModule -->
<g id="node2" class="node">
<title>PaymentsDbModule</title>
<polygon fill="#8dd3c7" stroke="black" points="302.59,-187 299.59,-191 278.59,-191 275.59,-187 171.41,-187 171.41,-151 302.59,-151 302.59,-187"/>
<text text-anchor="middle" x="237" y="-164.8" font-family="Times,serif" font-size="14.00">PaymentsDbModule</text>
</g>
<!-- DatabaseModule&#45;&gt;PaymentsDbModule -->
<g id="edge1" class="edge">
<title>DatabaseModule&#45;&gt;PaymentsDbModule</title>
<path fill="none" stroke="black" d="M188.44,-122.11C188.44,-122.11 188.44,-140.99 188.44,-140.99"/>
<polygon fill="black" stroke="black" points="184.94,-140.99 188.44,-150.99 191.94,-140.99 184.94,-140.99"/>
</g>
<!-- PaymentDbService  -->
<g id="node3" class="node">
<title>PaymentDbService </title>
<polygon fill="#fb8072" stroke="black" points="300.58,-252 173.42,-252 173.42,-216 300.58,-216 300.58,-252"/>
<text text-anchor="middle" x="237" y="-229.8" font-family="Times,serif" font-size="14.00">PaymentDbService </text>
</g>
<!-- PaymentsDbModule&#45;&gt;PaymentDbService  -->
<g id="edge2" class="edge">
<title>PaymentsDbModule&#45;&gt;PaymentDbService </title>
<path fill="none" stroke="black" stroke-dasharray="5,2" d="M237,-187.11C237,-187.11 237,-205.99 237,-205.99"/>
<polygon fill="black" stroke="black" points="233.5,-205.99 237,-215.99 240.5,-205.99 233.5,-205.99"/>
</g>
<!-- PaymentDbService -->
<g id="node4" class="node">
<title>PaymentDbService</title>
<ellipse fill="#fdb462" stroke="black" cx="315" cy="-104" rx="85.67" ry="18"/>
<text text-anchor="middle" x="315" y="-99.8" font-family="Times,serif" font-size="14.00">PaymentDbService</text>
</g>
<!-- PaymentDbService&#45;&gt;PaymentsDbModule -->
<g id="edge3" class="edge">
<title>PaymentDbService&#45;&gt;PaymentsDbModule</title>
<path fill="none" stroke="black" d="M265.98,-119.08C265.98,-119.08 265.98,-140.76 265.98,-140.76"/>
<polygon fill="black" stroke="black" points="262.48,-140.76 265.98,-150.76 269.48,-140.76 262.48,-140.76"/>
</g>
</g>
</svg>
