<?xml version="1.0" encoding="UTF-8" standalone="no"?>
<!DOCTYPE svg PUBLIC "-//W3C//DTD SVG 1.1//EN"
 "http://www.w3.org/Graphics/SVG/1.1/DTD/svg11.dtd">
<!-- Generated by graphviz version 2.47.0 (20210316.0004)
 -->
<!-- Title: dependencies Pages: 1 -->
<svg width="568pt" height="284pt"
 viewBox="0.00 0.00 568.00 284.00" xmlns="http://www.w3.org/2000/svg" xmlns:xlink="http://www.w3.org/1999/xlink">
<g id="graph0" class="graph" transform="scale(1 1) rotate(0) translate(4 280)">
<title>dependencies</title>
<polygon fill="white" stroke="transparent" points="-4,4 -4,-280 564,-280 564,4 -4,4"/>
<text text-anchor="start" x="259.01" y="-42.4" font-family="Times-12" font-weight="bold" font-size="14.00">Legend</text>
<polygon fill="#ffffb3" stroke="transparent" points="46,-10 46,-30 66,-30 66,-10 46,-10"/>
<text text-anchor="start" x="69.63" y="-15.4" font-family="Times-12" font-size="14.00"> &#160;Declarations</text>
<polygon fill="#8dd3c7" stroke="transparent" points="159,-10 159,-30 179,-30 179,-10 159,-10"/>
<text text-anchor="start" x="182.73" y="-15.4" font-family="Times-12" font-size="14.00"> &#160;Module</text>
<polygon fill="#80b1d3" stroke="transparent" points="245,-10 245,-30 265,-30 265,-10 245,-10"/>
<text text-anchor="start" x="268.78" y="-15.4" font-family="Times-12" font-size="14.00"> &#160;Bootstrap</text>
<polygon fill="#fdb462" stroke="transparent" points="342,-10 342,-30 362,-30 362,-10 342,-10"/>
<text text-anchor="start" x="365.67" y="-15.4" font-family="Times-12" font-size="14.00"> &#160;Providers</text>
<polygon fill="#fb8072" stroke="transparent" points="438,-10 438,-30 458,-30 458,-10 438,-10"/>
<text text-anchor="start" x="461.73" y="-15.4" font-family="Times-12" font-size="14.00"> &#160;Exports</text>
<g id="clust1" class="cluster">
<title>cluster_PaymentsDbModule</title>
<polygon fill="none" stroke="black" stroke-dasharray="1,5" points="8,-70 8,-268 552,-268 552,-70 8,-70"/>
</g>
<g id="clust6" class="cluster">
<title>cluster_PaymentsDbModule_providers</title>
<polygon fill="none" stroke="black" points="150,-78 150,-130 544,-130 544,-78 150,-78"/>
</g>
<g id="clust4" class="cluster">
<title>cluster_PaymentsDbModule_exports</title>
<polygon fill="none" stroke="black" points="96,-208 96,-260 398,-260 398,-208 96,-208"/>
</g>
<g id="clust3" class="cluster">
<title>cluster_PaymentsDbModule_imports</title>
<polygon fill="none" stroke="black" points="16,-78 16,-130 142,-130 142,-78 16,-78"/>
</g>
<!-- DatabaseModule -->
<g id="node1" class="node">
<title>DatabaseModule</title>
<polygon fill="#8dd3c7" stroke="black" points="134.35,-122 131.35,-126 110.35,-126 107.35,-122 23.65,-122 23.65,-86 134.35,-86 134.35,-122"/>
<text text-anchor="middle" x="79" y="-99.8" font-family="Times,serif" font-size="14.00">DatabaseModule</text>
</g>
<!-- PaymentsDbModule -->
<g id="node2" class="node">
<title>PaymentsDbModule</title>
<polygon fill="#8dd3c7" stroke="black" points="309.59,-187 306.59,-191 285.59,-191 282.59,-187 178.41,-187 178.41,-151 309.59,-151 309.59,-187"/>
<text text-anchor="middle" x="244" y="-164.8" font-family="Times,serif" font-size="14.00">PaymentsDbModule</text>
</g>
<!-- DatabaseModule&#45;&gt;PaymentsDbModule -->
<g id="edge1" class="edge">
<title>DatabaseModule&#45;&gt;PaymentsDbModule</title>
<path fill="none" stroke="black" d="M119.32,-122.11C119.32,-141.34 119.32,-169 119.32,-169 119.32,-169 168.37,-169 168.37,-169"/>
<polygon fill="black" stroke="black" points="168.37,-172.5 178.37,-169 168.37,-165.5 168.37,-172.5"/>
</g>
<!-- FeeCalculatorService  -->
<g id="node3" class="node">
<title>FeeCalculatorService </title>
<polygon fill="#fb8072" stroke="black" points="390,-252 250,-252 250,-216 390,-216 390,-252"/>
<text text-anchor="middle" x="320" y="-229.8" font-family="Times,serif" font-size="14.00">FeeCalculatorService </text>
</g>
<!-- PaymentsDbModule&#45;&gt;FeeCalculatorService  -->
<g id="edge2" class="edge">
<title>PaymentsDbModule&#45;&gt;FeeCalculatorService </title>
<path fill="none" stroke="black" stroke-dasharray="5,2" d="M279.77,-187.11C279.77,-187.11 279.77,-205.99 279.77,-205.99"/>
<polygon fill="black" stroke="black" points="276.27,-205.99 279.77,-215.99 283.27,-205.99 276.27,-205.99"/>
</g>
<!-- PaymentDbService  -->
<g id="node4" class="node">
<title>PaymentDbService </title>
<polygon fill="#fb8072" stroke="black" points="231.58,-252 104.42,-252 104.42,-216 231.58,-216 231.58,-252"/>
<text text-anchor="middle" x="168" y="-229.8" font-family="Times,serif" font-size="14.00">PaymentDbService </text>
</g>
<!-- PaymentsDbModule&#45;&gt;PaymentDbService  -->
<g id="edge3" class="edge">
<title>PaymentsDbModule&#45;&gt;PaymentDbService </title>
<path fill="none" stroke="black" stroke-dasharray="5,2" d="M205.12,-187.11C205.12,-187.11 205.12,-205.99 205.12,-205.99"/>
<polygon fill="black" stroke="black" points="201.62,-205.99 205.12,-215.99 208.62,-205.99 201.62,-205.99"/>
</g>
<!-- FeeCalculatorService -->
<g id="node5" class="node">
<title>FeeCalculatorService</title>
<ellipse fill="#fdb462" stroke="black" cx="442" cy="-104" rx="94.31" ry="18"/>
<text text-anchor="middle" x="442" y="-99.8" font-family="Times,serif" font-size="14.00">FeeCalculatorService</text>
</g>
<!-- FeeCalculatorService&#45;&gt;PaymentsDbModule -->
<g id="edge4" class="edge">
<title>FeeCalculatorService&#45;&gt;PaymentsDbModule</title>
<path fill="none" stroke="black" d="M368.92,-115.62C368.92,-134.32 368.92,-169 368.92,-169 368.92,-169 319.75,-169 319.75,-169"/>
<polygon fill="black" stroke="black" points="319.75,-165.5 309.75,-169 319.75,-172.5 319.75,-165.5"/>
</g>
<!-- PaymentDbService -->
<g id="node6" class="node">
<title>PaymentDbService</title>
<ellipse fill="#fdb462" stroke="black" cx="244" cy="-104" rx="85.67" ry="18"/>
<text text-anchor="middle" x="244" y="-99.8" font-family="Times,serif" font-size="14.00">PaymentDbService</text>
</g>
<!-- PaymentDbService&#45;&gt;PaymentsDbModule -->
<g id="edge5" class="edge">
<title>PaymentDbService&#45;&gt;PaymentsDbModule</title>
<path fill="none" stroke="black" d="M244,-122.11C244,-122.11 244,-140.99 244,-140.99"/>
<polygon fill="black" stroke="black" points="240.5,-140.99 244,-150.99 247.5,-140.99 240.5,-140.99"/>
</g>
</g>
</svg>
