<?xml version="1.0" encoding="UTF-8" standalone="no"?>
<!DOCTYPE svg PUBLIC "-//W3C//DTD SVG 1.1//EN"
 "http://www.w3.org/Graphics/SVG/1.1/DTD/svg11.dtd">
<!-- Generated by graphviz version 2.47.0 (20210316.0004)
 -->
<!-- Title: dependencies Pages: 1 -->
<svg width="504pt" height="284pt"
 viewBox="0.00 0.00 504.00 284.00" xmlns="http://www.w3.org/2000/svg" xmlns:xlink="http://www.w3.org/1999/xlink">
<g id="graph0" class="graph" transform="scale(1 1) rotate(0) translate(4 280)">
<title>dependencies</title>
<polygon fill="white" stroke="transparent" points="-4,4 -4,-280 500,-280 500,4 -4,4"/>
<text text-anchor="start" x="227.01" y="-42.4" font-family="Times-12" font-weight="bold" font-size="14.00">Legend</text>
<polygon fill="#ffffb3" stroke="transparent" points="14,-10 14,-30 34,-30 34,-10 14,-10"/>
<text text-anchor="start" x="37.63" y="-15.4" font-family="Times-12" font-size="14.00"> &#160;Declarations</text>
<polygon fill="#8dd3c7" stroke="transparent" points="127,-10 127,-30 147,-30 147,-10 127,-10"/>
<text text-anchor="start" x="150.73" y="-15.4" font-family="Times-12" font-size="14.00"> &#160;Module</text>
<polygon fill="#80b1d3" stroke="transparent" points="213,-10 213,-30 233,-30 233,-10 213,-10"/>
<text text-anchor="start" x="236.78" y="-15.4" font-family="Times-12" font-size="14.00"> &#160;Bootstrap</text>
<polygon fill="#fdb462" stroke="transparent" points="310,-10 310,-30 330,-30 330,-10 310,-10"/>
<text text-anchor="start" x="333.67" y="-15.4" font-family="Times-12" font-size="14.00"> &#160;Providers</text>
<polygon fill="#fb8072" stroke="transparent" points="406,-10 406,-30 426,-30 426,-10 406,-10"/>
<text text-anchor="start" x="429.73" y="-15.4" font-family="Times-12" font-size="14.00"> &#160;Exports</text>
<g id="clust1" class="cluster">
<title>cluster_AnalyticsDbModule</title>
<polygon fill="none" stroke="black" stroke-dasharray="1,5" points="76,-70 76,-268 420,-268 420,-70 76,-70"/>
</g>
<g id="clust4" class="cluster">
<title>cluster_AnalyticsDbModule_exports</title>
<polygon fill="none" stroke="black" points="162,-208 162,-260 310,-260 310,-208 162,-208"/>
</g>
<g id="clust6" class="cluster">
<title>cluster_AnalyticsDbModule_providers</title>
<polygon fill="none" stroke="black" points="218,-78 218,-130 412,-130 412,-78 218,-78"/>
</g>
<g id="clust3" class="cluster">
<title>cluster_AnalyticsDbModule_imports</title>
<polygon fill="none" stroke="black" points="84,-78 84,-130 210,-130 210,-78 84,-78"/>
</g>
<!-- DatabaseModule -->
<g id="node1" class="node">
<title>DatabaseModule</title>
<polygon fill="#8dd3c7" stroke="black" points="202.35,-122 199.35,-126 178.35,-126 175.35,-122 91.65,-122 91.65,-86 202.35,-86 202.35,-122"/>
<text text-anchor="middle" x="147" y="-99.8" font-family="Times,serif" font-size="14.00">DatabaseModule</text>
</g>
<!-- AnalyticsDbModule -->
<g id="node2" class="node">
<title>AnalyticsDbModule</title>
<polygon fill="#8dd3c7" stroke="black" points="301.31,-187 298.31,-191 277.31,-191 274.31,-187 170.69,-187 170.69,-151 301.31,-151 301.31,-187"/>
<text text-anchor="middle" x="236" y="-164.8" font-family="Times,serif" font-size="14.00">AnalyticsDbModule</text>
</g>
<!-- DatabaseModule&#45;&gt;AnalyticsDbModule -->
<g id="edge1" class="edge">
<title>DatabaseModule&#45;&gt;AnalyticsDbModule</title>
<path fill="none" stroke="black" d="M186.64,-122.11C186.64,-122.11 186.64,-140.99 186.64,-140.99"/>
<polygon fill="black" stroke="black" points="183.14,-140.99 186.64,-150.99 190.14,-140.99 183.14,-140.99"/>
</g>
<!-- AnalyticsDbService  -->
<g id="node3" class="node">
<title>AnalyticsDbService </title>
<polygon fill="#fb8072" stroke="black" points="302.24,-252 169.76,-252 169.76,-216 302.24,-216 302.24,-252"/>
<text text-anchor="middle" x="236" y="-229.8" font-family="Times,serif" font-size="14.00">AnalyticsDbService </text>
</g>
<!-- AnalyticsDbModule&#45;&gt;AnalyticsDbService  -->
<g id="edge2" class="edge">
<title>AnalyticsDbModule&#45;&gt;AnalyticsDbService </title>
<path fill="none" stroke="black" stroke-dasharray="5,2" d="M236,-187.11C236,-187.11 236,-205.99 236,-205.99"/>
<polygon fill="black" stroke="black" points="232.5,-205.99 236,-215.99 239.5,-205.99 232.5,-205.99"/>
</g>
<!-- AnalyticsDbService -->
<g id="node4" class="node">
<title>AnalyticsDbService</title>
<ellipse fill="#fdb462" stroke="black" cx="315" cy="-104" rx="88.6" ry="18"/>
<text text-anchor="middle" x="315" y="-99.8" font-family="Times,serif" font-size="14.00">AnalyticsDbService</text>
</g>
<!-- AnalyticsDbService&#45;&gt;AnalyticsDbModule -->
<g id="edge3" class="edge">
<title>AnalyticsDbService&#45;&gt;AnalyticsDbModule</title>
<path fill="none" stroke="black" d="M263.68,-118.75C263.68,-118.75 263.68,-140.59 263.68,-140.59"/>
<polygon fill="black" stroke="black" points="260.18,-140.59 263.68,-150.59 267.18,-140.59 260.18,-140.59"/>
</g>
</g>
</svg>
