<?xml version="1.0" encoding="UTF-8" standalone="no"?>
<!DOCTYPE svg PUBLIC "-//W3C//DTD SVG 1.1//EN"
 "http://www.w3.org/Graphics/SVG/1.1/DTD/svg11.dtd">
<!-- Generated by graphviz version 2.47.0 (20210316.0004)
 -->
<!-- Title: dependencies Pages: 1 -->
<svg width="504pt" height="284pt"
 viewBox="0.00 0.00 504.00 284.00" xmlns="http://www.w3.org/2000/svg" xmlns:xlink="http://www.w3.org/1999/xlink">
<g id="graph0" class="graph" transform="scale(1 1) rotate(0) translate(4 280)">
<title>dependencies</title>
<polygon fill="white" stroke="transparent" points="-4,4 -4,-280 500,-280 500,4 -4,4"/>
<text text-anchor="start" x="227.01" y="-42.4" font-family="Times-12" font-weight="bold" font-size="14.00">Legend</text>
<polygon fill="#ffffb3" stroke="transparent" points="14,-10 14,-30 34,-30 34,-10 14,-10"/>
<text text-anchor="start" x="37.63" y="-15.4" font-family="Times-12" font-size="14.00"> &#160;Declarations</text>
<polygon fill="#8dd3c7" stroke="transparent" points="127,-10 127,-30 147,-30 147,-10 127,-10"/>
<text text-anchor="start" x="150.73" y="-15.4" font-family="Times-12" font-size="14.00"> &#160;Module</text>
<polygon fill="#80b1d3" stroke="transparent" points="213,-10 213,-30 233,-30 233,-10 213,-10"/>
<text text-anchor="start" x="236.78" y="-15.4" font-family="Times-12" font-size="14.00"> &#160;Bootstrap</text>
<polygon fill="#fdb462" stroke="transparent" points="310,-10 310,-30 330,-30 330,-10 310,-10"/>
<text text-anchor="start" x="333.67" y="-15.4" font-family="Times-12" font-size="14.00"> &#160;Providers</text>
<polygon fill="#fb8072" stroke="transparent" points="406,-10 406,-30 426,-30 426,-10 406,-10"/>
<text text-anchor="start" x="429.73" y="-15.4" font-family="Times-12" font-size="14.00"> &#160;Exports</text>
<g id="clust1" class="cluster">
<title>cluster_AnalyticsDbModule</title>
<polygon fill="none" stroke="black" stroke-dasharray="1,5" points="76,-70 76,-268 420,-268 420,-70 76,-70"/>
</g>
<g id="clust4" class="cluster">
<title>cluster_AnalyticsDbModule_exports</title>
<polygon fill="none" stroke="black" points="185,-208 185,-260 333,-260 333,-208 185,-208"/>
</g>
<g id="clust3" class="cluster">
<title>cluster_AnalyticsDbModule_imports</title>
<polygon fill="none" stroke="black" points="286,-78 286,-130 412,-130 412,-78 286,-78"/>
</g>
<g id="clust6" class="cluster">
<title>cluster_AnalyticsDbModule_providers</title>
<polygon fill="none" stroke="black" points="84,-78 84,-130 278,-130 278,-78 84,-78"/>
</g>
<!-- DatabaseModule -->
<g id="node1" class="node">
<title>DatabaseModule</title>
<polygon fill="#8dd3c7" stroke="black" points="404.35,-122 401.35,-126 380.35,-126 377.35,-122 293.65,-122 293.65,-86 404.35,-86 404.35,-122"/>
<text text-anchor="middle" x="349" y="-99.8" font-family="Times,serif" font-size="14.00">DatabaseModule</text>
</g>
<!-- AnalyticsDbModule -->
<g id="node2" class="node">
<title>AnalyticsDbModule</title>
<polygon fill="#8dd3c7" stroke="black" points="324.31,-187 321.31,-191 300.31,-191 297.31,-187 193.69,-187 193.69,-151 324.31,-151 324.31,-187"/>
<text text-anchor="middle" x="259" y="-164.8" font-family="Times,serif" font-size="14.00">AnalyticsDbModule</text>
</g>
<!-- DatabaseModule&#45;&gt;AnalyticsDbModule -->
<g id="edge1" class="edge">
<title>DatabaseModule&#45;&gt;AnalyticsDbModule</title>
<path fill="none" stroke="black" d="M308.86,-122.11C308.86,-122.11 308.86,-140.99 308.86,-140.99"/>
<polygon fill="black" stroke="black" points="305.36,-140.99 308.86,-150.99 312.36,-140.99 305.36,-140.99"/>
</g>
<!-- AnalyticsDbService  -->
<g id="node3" class="node">
<title>AnalyticsDbService </title>
<polygon fill="#fb8072" stroke="black" points="325.24,-252 192.76,-252 192.76,-216 325.24,-216 325.24,-252"/>
<text text-anchor="middle" x="259" y="-229.8" font-family="Times,serif" font-size="14.00">AnalyticsDbService </text>
</g>
<!-- AnalyticsDbModule&#45;&gt;AnalyticsDbService  -->
<g id="edge2" class="edge">
<title>AnalyticsDbModule&#45;&gt;AnalyticsDbService </title>
<path fill="none" stroke="black" stroke-dasharray="5,2" d="M259,-187.11C259,-187.11 259,-205.99 259,-205.99"/>
<polygon fill="black" stroke="black" points="255.5,-205.99 259,-215.99 262.5,-205.99 255.5,-205.99"/>
</g>
<!-- AnalyticsDbService -->
<g id="node4" class="node">
<title>AnalyticsDbService</title>
<ellipse fill="#fdb462" stroke="black" cx="181" cy="-104" rx="88.6" ry="18"/>
<text text-anchor="middle" x="181" y="-99.8" font-family="Times,serif" font-size="14.00">AnalyticsDbService</text>
</g>
<!-- AnalyticsDbService&#45;&gt;AnalyticsDbModule -->
<g id="edge3" class="edge">
<title>AnalyticsDbService&#45;&gt;AnalyticsDbModule</title>
<path fill="none" stroke="black" d="M231.82,-119.08C231.82,-119.08 231.82,-140.76 231.82,-140.76"/>
<polygon fill="black" stroke="black" points="228.32,-140.76 231.82,-150.76 235.32,-140.76 228.32,-140.76"/>
</g>
</g>
</svg>
