<?xml version="1.0" encoding="UTF-8" standalone="no"?>
<!DOCTYPE svg PUBLIC "-//W3C//DTD SVG 1.1//EN"
 "http://www.w3.org/Graphics/SVG/1.1/DTD/svg11.dtd">
<!-- Generated by graphviz version 2.47.0 (20210316.0004)
 -->
<!-- Title: dependencies Pages: 1 -->
<svg width="1960pt" height="211pt"
 viewBox="0.00 0.00 1960.00 211.00" xmlns="http://www.w3.org/2000/svg" xmlns:xlink="http://www.w3.org/1999/xlink">
<g id="graph0" class="graph" transform="scale(1 1) rotate(0) translate(4 207)">
<title>dependencies</title>
<polygon fill="white" stroke="transparent" points="-4,4 -4,-207 1956,-207 1956,4 -4,4"/>
<text text-anchor="start" x="955.01" y="-42.4" font-family="Times-12" font-weight="bold" font-size="14.00">Legend</text>
<polygon fill="#ffffb3" stroke="transparent" points="742,-10 742,-30 762,-30 762,-10 742,-10"/>
<text text-anchor="start" x="765.63" y="-15.4" font-family="Times-12" font-size="14.00"> &#160;Declarations</text>
<polygon fill="#8dd3c7" stroke="transparent" points="855,-10 855,-30 875,-30 875,-10 855,-10"/>
<text text-anchor="start" x="878.73" y="-15.4" font-family="Times-12" font-size="14.00"> &#160;Module</text>
<polygon fill="#80b1d3" stroke="transparent" points="941,-10 941,-30 961,-30 961,-10 941,-10"/>
<text text-anchor="start" x="964.78" y="-15.4" font-family="Times-12" font-size="14.00"> &#160;Bootstrap</text>
<polygon fill="#fdb462" stroke="transparent" points="1038,-10 1038,-30 1058,-30 1058,-10 1038,-10"/>
<text text-anchor="start" x="1061.67" y="-15.4" font-family="Times-12" font-size="14.00"> &#160;Providers</text>
<polygon fill="#fb8072" stroke="transparent" points="1134,-10 1134,-30 1154,-30 1154,-10 1134,-10"/>
<text text-anchor="start" x="1157.73" y="-15.4" font-family="Times-12" font-size="14.00"> &#160;Exports</text>
<g id="clust1" class="cluster">
<title>cluster_ApiModule</title>
<polygon fill="none" stroke="black" stroke-dasharray="1,5" points="8,-70 8,-195 1944,-195 1944,-70 8,-70"/>
</g>
<g id="clust3" class="cluster">
<title>cluster_ApiModule_imports</title>
<polygon fill="none" stroke="black" points="16,-78 16,-130 1936,-130 1936,-78 16,-78"/>
</g>
<!-- AnalyticsModule -->
<g id="node1" class="node">
<title>AnalyticsModule</title>
<polygon fill="#8dd3c7" stroke="black" points="1927.7,-122 1924.7,-126 1903.7,-126 1900.7,-122 1814.3,-122 1814.3,-86 1927.7,-86 1927.7,-122"/>
<text text-anchor="middle" x="1871" y="-99.8" font-family="Times,serif" font-size="14.00">AnalyticsModule</text>
</g>
<!-- ApiModule -->
<g id="node15" class="node">
<title>ApiModule</title>
<polygon fill="#8dd3c7" stroke="black" points="974.05,-187 971.05,-191 950.05,-191 947.05,-187 893.95,-187 893.95,-151 974.05,-151 974.05,-187"/>
<text text-anchor="middle" x="934" y="-164.8" font-family="Times,serif" font-size="14.00">ApiModule</text>
</g>
<!-- AnalyticsModule&#45;&gt;ApiModule -->
<g id="edge1" class="edge">
<title>AnalyticsModule&#45;&gt;ApiModule</title>
<path fill="none" stroke="black" d="M1871,-122.09C1871,-145.13 1871,-182 1871,-182 1871,-182 984.26,-182 984.26,-182"/>
<polygon fill="black" stroke="black" points="984.26,-178.5 974.26,-182 984.26,-185.5 984.26,-178.5"/>
</g>
<!-- AuthApiModule -->
<g id="node2" class="node">
<title>AuthApiModule</title>
<polygon fill="#8dd3c7" stroke="black" points="1796.05,-122 1793.05,-126 1772.05,-126 1769.05,-122 1687.95,-122 1687.95,-86 1796.05,-86 1796.05,-122"/>
<text text-anchor="middle" x="1742" y="-99.8" font-family="Times,serif" font-size="14.00">AuthApiModule</text>
</g>
<!-- AuthApiModule&#45;&gt;ApiModule -->
<g id="edge2" class="edge">
<title>AuthApiModule&#45;&gt;ApiModule</title>
<path fill="none" stroke="black" d="M1742,-122.04C1742,-143.66 1742,-177 1742,-177 1742,-177 984.07,-177 984.07,-177"/>
<polygon fill="black" stroke="black" points="984.07,-173.5 974.07,-177 984.07,-180.5 984.07,-173.5"/>
</g>
<!-- CategoriesModule -->
<g id="node3" class="node">
<title>CategoriesModule</title>
<polygon fill="#8dd3c7" stroke="black" points="1669.92,-122 1666.92,-126 1645.92,-126 1642.92,-122 1550.08,-122 1550.08,-86 1669.92,-86 1669.92,-122"/>
<text text-anchor="middle" x="1610" y="-99.8" font-family="Times,serif" font-size="14.00">CategoriesModule</text>
</g>
<!-- CategoriesModule&#45;&gt;ApiModule -->
<g id="edge3" class="edge">
<title>CategoriesModule&#45;&gt;ApiModule</title>
<path fill="none" stroke="black" d="M1610,-122.22C1610,-142.37 1610,-172 1610,-172 1610,-172 984.26,-172 984.26,-172"/>
<polygon fill="black" stroke="black" points="984.26,-168.5 974.26,-172 984.26,-175.5 984.26,-168.5"/>
</g>
<!-- LocationsModule -->
<g id="node4" class="node">
<title>LocationsModule</title>
<polygon fill="#8dd3c7" stroke="black" points="1532.26,-122 1529.26,-126 1508.26,-126 1505.26,-122 1417.74,-122 1417.74,-86 1532.26,-86 1532.26,-122"/>
<text text-anchor="middle" x="1475" y="-99.8" font-family="Times,serif" font-size="14.00">LocationsModule</text>
</g>
<!-- LocationsModule&#45;&gt;ApiModule -->
<g id="edge4" class="edge">
<title>LocationsModule&#45;&gt;ApiModule</title>
<path fill="none" stroke="black" d="M1475,-122.22C1475,-140.83 1475,-167 1475,-167 1475,-167 984.22,-167 984.22,-167"/>
<polygon fill="black" stroke="black" points="984.22,-163.5 974.22,-167 984.22,-170.5 984.22,-163.5"/>
</g>
<!-- NotificationsApiModule -->
<g id="node5" class="node">
<title>NotificationsApiModule</title>
<polygon fill="#8dd3c7" stroke="black" points="1399.64,-122 1396.64,-126 1375.64,-126 1372.64,-122 1246.36,-122 1246.36,-86 1399.64,-86 1399.64,-122"/>
<text text-anchor="middle" x="1323" y="-99.8" font-family="Times,serif" font-size="14.00">NotificationsApiModule</text>
</g>
<!-- NotificationsApiModule&#45;&gt;ApiModule -->
<g id="edge5" class="edge">
<title>NotificationsApiModule&#45;&gt;ApiModule</title>
<path fill="none" stroke="black" d="M1323,-122.03C1323,-139.06 1323,-162 1323,-162 1323,-162 984.16,-162 984.16,-162"/>
<polygon fill="black" stroke="black" points="984.16,-158.5 974.16,-162 984.16,-165.5 984.16,-158.5"/>
</g>
<!-- OnboardingApiModule -->
<g id="node6" class="node">
<title>OnboardingApiModule</title>
<polygon fill="#8dd3c7" stroke="black" points="1227.92,-122 1224.92,-126 1203.92,-126 1200.92,-122 1080.08,-122 1080.08,-86 1227.92,-86 1227.92,-122"/>
<text text-anchor="middle" x="1154" y="-99.8" font-family="Times,serif" font-size="14.00">OnboardingApiModule</text>
</g>
<!-- OnboardingApiModule&#45;&gt;ApiModule -->
<g id="edge6" class="edge">
<title>OnboardingApiModule&#45;&gt;ApiModule</title>
<path fill="none" stroke="black" d="M1154,-122.24C1154,-137.57 1154,-157 1154,-157 1154,-157 984.1,-157 984.1,-157"/>
<polygon fill="black" stroke="black" points="984.1,-153.5 974.1,-157 984.1,-160.5 984.1,-153.5"/>
</g>
<!-- PaymentsModule -->
<g id="node7" class="node">
<title>PaymentsModule</title>
<polygon fill="#8dd3c7" stroke="black" points="1061.99,-122 1058.99,-126 1037.99,-126 1034.99,-122 948.01,-122 948.01,-86 1061.99,-86 1061.99,-122"/>
<text text-anchor="middle" x="1005" y="-99.8" font-family="Times,serif" font-size="14.00">PaymentsModule</text>
</g>
<!-- PaymentsModule&#45;&gt;ApiModule -->
<g id="edge7" class="edge">
<title>PaymentsModule&#45;&gt;ApiModule</title>
<path fill="none" stroke="black" d="M961.14,-122.11C961.14,-122.11 961.14,-140.99 961.14,-140.99"/>
<polygon fill="black" stroke="black" points="957.64,-140.99 961.14,-150.99 964.64,-140.99 957.64,-140.99"/>
</g>
<!-- ProfessionalsModule -->
<g id="node8" class="node">
<title>ProfessionalsModule</title>
<polygon fill="#8dd3c7" stroke="black" points="930.2,-122 927.2,-126 906.2,-126 903.2,-122 795.8,-122 795.8,-86 930.2,-86 930.2,-122"/>
<text text-anchor="middle" x="863" y="-99.8" font-family="Times,serif" font-size="14.00">ProfessionalsModule</text>
</g>
<!-- ProfessionalsModule&#45;&gt;ApiModule -->
<g id="edge8" class="edge">
<title>ProfessionalsModule&#45;&gt;ApiModule</title>
<path fill="none" stroke="black" d="M911.91,-122.11C911.91,-122.11 911.91,-140.99 911.91,-140.99"/>
<polygon fill="black" stroke="black" points="908.41,-140.99 911.91,-150.99 915.41,-140.99 908.41,-140.99"/>
</g>
<!-- PromotionsModule -->
<g id="node9" class="node">
<title>PromotionsModule</title>
<polygon fill="#8dd3c7" stroke="black" points="778.11,-122 775.11,-126 754.11,-126 751.11,-122 653.89,-122 653.89,-86 778.11,-86 778.11,-122"/>
<text text-anchor="middle" x="716" y="-99.8" font-family="Times,serif" font-size="14.00">PromotionsModule</text>
</g>
<!-- PromotionsModule&#45;&gt;ApiModule -->
<g id="edge9" class="edge">
<title>PromotionsModule&#45;&gt;ApiModule</title>
<path fill="none" stroke="black" d="M716,-122.24C716,-137.57 716,-157 716,-157 716,-157 883.76,-157 883.76,-157"/>
<polygon fill="black" stroke="black" points="883.76,-160.5 893.76,-157 883.76,-153.5 883.76,-160.5"/>
</g>
<!-- RatingsModule -->
<g id="node10" class="node">
<title>RatingsModule</title>
<polygon fill="#8dd3c7" stroke="black" points="636.33,-122 633.33,-126 612.33,-126 609.33,-122 533.67,-122 533.67,-86 636.33,-86 636.33,-122"/>
<text text-anchor="middle" x="585" y="-99.8" font-family="Times,serif" font-size="14.00">RatingsModule</text>
</g>
<!-- RatingsModule&#45;&gt;ApiModule -->
<g id="edge10" class="edge">
<title>RatingsModule&#45;&gt;ApiModule</title>
<path fill="none" stroke="black" d="M585,-122.03C585,-139.06 585,-162 585,-162 585,-162 883.62,-162 883.62,-162"/>
<polygon fill="black" stroke="black" points="883.62,-165.5 893.62,-162 883.62,-158.5 883.62,-165.5"/>
</g>
<!-- RolesApiModule -->
<g id="node11" class="node">
<title>RolesApiModule</title>
<polygon fill="#8dd3c7" stroke="black" points="516.43,-122 513.43,-126 492.43,-126 489.43,-122 403.57,-122 403.57,-86 516.43,-86 516.43,-122"/>
<text text-anchor="middle" x="460" y="-99.8" font-family="Times,serif" font-size="14.00">RolesApiModule</text>
</g>
<!-- RolesApiModule&#45;&gt;ApiModule -->
<g id="edge11" class="edge">
<title>RolesApiModule&#45;&gt;ApiModule</title>
<path fill="none" stroke="black" d="M460,-122.22C460,-140.83 460,-167 460,-167 460,-167 883.59,-167 883.59,-167"/>
<polygon fill="black" stroke="black" points="883.59,-170.5 893.59,-167 883.59,-163.5 883.59,-170.5"/>
</g>
<!-- ServicesModule -->
<g id="node12" class="node">
<title>ServicesModule</title>
<polygon fill="#8dd3c7" stroke="black" points="385.47,-122 382.47,-126 361.47,-126 358.47,-122 278.53,-122 278.53,-86 385.47,-86 385.47,-122"/>
<text text-anchor="middle" x="332" y="-99.8" font-family="Times,serif" font-size="14.00">ServicesModule</text>
</g>
<!-- ServicesModule&#45;&gt;ApiModule -->
<g id="edge12" class="edge">
<title>ServicesModule&#45;&gt;ApiModule</title>
<path fill="none" stroke="black" d="M332,-122.22C332,-142.37 332,-172 332,-172 332,-172 883.57,-172 883.57,-172"/>
<polygon fill="black" stroke="black" points="883.57,-175.5 893.57,-172 883.57,-168.5 883.57,-175.5"/>
</g>
<!-- UploadsModule -->
<g id="node13" class="node">
<title>UploadsModule</title>
<polygon fill="#8dd3c7" stroke="black" points="260.21,-122 257.21,-126 236.21,-126 233.21,-122 153.79,-122 153.79,-86 260.21,-86 260.21,-122"/>
<text text-anchor="middle" x="207" y="-99.8" font-family="Times,serif" font-size="14.00">UploadsModule</text>
</g>
<!-- UploadsModule&#45;&gt;ApiModule -->
<g id="edge13" class="edge">
<title>UploadsModule&#45;&gt;ApiModule</title>
<path fill="none" stroke="black" d="M207,-122.04C207,-143.66 207,-177 207,-177 207,-177 883.88,-177 883.88,-177"/>
<polygon fill="black" stroke="black" points="883.88,-180.5 893.88,-177 883.88,-173.5 883.88,-180.5"/>
</g>
<!-- UsersApiModule -->
<g id="node14" class="node">
<title>UsersApiModule</title>
<polygon fill="#8dd3c7" stroke="black" points="136.42,-122 133.42,-126 112.42,-126 109.42,-122 23.58,-122 23.58,-86 136.42,-86 136.42,-122"/>
<text text-anchor="middle" x="80" y="-99.8" font-family="Times,serif" font-size="14.00">UsersApiModule</text>
</g>
<!-- UsersApiModule&#45;&gt;ApiModule -->
<g id="edge14" class="edge">
<title>UsersApiModule&#45;&gt;ApiModule</title>
<path fill="none" stroke="black" d="M80,-122.09C80,-145.13 80,-182 80,-182 80,-182 883.67,-182 883.67,-182"/>
<polygon fill="black" stroke="black" points="883.67,-185.5 893.67,-182 883.67,-178.5 883.67,-185.5"/>
</g>
</g>
</svg>
