<?xml version="1.0" encoding="UTF-8" standalone="no"?>
<!DOCTYPE svg PUBLIC "-//W3C//DTD SVG 1.1//EN"
 "http://www.w3.org/Graphics/SVG/1.1/DTD/svg11.dtd">
<!-- Generated by graphviz version 2.47.0 (20210316.0004)
 -->
<!-- Title: dependencies Pages: 1 -->
<svg width="504pt" height="284pt"
 viewBox="0.00 0.00 504.00 284.00" xmlns="http://www.w3.org/2000/svg" xmlns:xlink="http://www.w3.org/1999/xlink">
<g id="graph0" class="graph" transform="scale(1 1) rotate(0) translate(4 280)">
<title>dependencies</title>
<polygon fill="white" stroke="transparent" points="-4,4 -4,-280 500,-280 500,4 -4,4"/>
<text text-anchor="start" x="227.01" y="-42.4" font-family="Times-12" font-weight="bold" font-size="14.00">Legend</text>
<polygon fill="#ffffb3" stroke="transparent" points="14,-10 14,-30 34,-30 34,-10 14,-10"/>
<text text-anchor="start" x="37.63" y="-15.4" font-family="Times-12" font-size="14.00"> &#160;Declarations</text>
<polygon fill="#8dd3c7" stroke="transparent" points="127,-10 127,-30 147,-30 147,-10 127,-10"/>
<text text-anchor="start" x="150.73" y="-15.4" font-family="Times-12" font-size="14.00"> &#160;Module</text>
<polygon fill="#80b1d3" stroke="transparent" points="213,-10 213,-30 233,-30 233,-10 213,-10"/>
<text text-anchor="start" x="236.78" y="-15.4" font-family="Times-12" font-size="14.00"> &#160;Bootstrap</text>
<polygon fill="#fdb462" stroke="transparent" points="310,-10 310,-30 330,-30 330,-10 310,-10"/>
<text text-anchor="start" x="333.67" y="-15.4" font-family="Times-12" font-size="14.00"> &#160;Providers</text>
<polygon fill="#fb8072" stroke="transparent" points="406,-10 406,-30 426,-30 426,-10 406,-10"/>
<text text-anchor="start" x="429.73" y="-15.4" font-family="Times-12" font-size="14.00"> &#160;Exports</text>
<g id="clust1" class="cluster">
<title>cluster_PromotionsModule</title>
<polygon fill="none" stroke="black" stroke-dasharray="1,5" points="80,-70 80,-268 416,-268 416,-70 80,-70"/>
</g>
<g id="clust6" class="cluster">
<title>cluster_PromotionsModule_providers</title>
<polygon fill="none" stroke="black" points="222,-78 222,-130 408,-130 408,-78 222,-78"/>
</g>
<g id="clust3" class="cluster">
<title>cluster_PromotionsModule_imports</title>
<polygon fill="none" stroke="black" points="88,-78 88,-130 214,-130 214,-78 88,-78"/>
</g>
<g id="clust4" class="cluster">
<title>cluster_PromotionsModule_exports</title>
<polygon fill="none" stroke="black" points="166,-208 166,-260 308,-260 308,-208 166,-208"/>
</g>
<!-- DatabaseModule -->
<g id="node1" class="node">
<title>DatabaseModule</title>
<polygon fill="#8dd3c7" stroke="black" points="206.35,-122 203.35,-126 182.35,-126 179.35,-122 95.65,-122 95.65,-86 206.35,-86 206.35,-122"/>
<text text-anchor="middle" x="151" y="-99.8" font-family="Times,serif" font-size="14.00">DatabaseModule</text>
</g>
<!-- PromotionsModule -->
<g id="node2" class="node">
<title>PromotionsModule</title>
<polygon fill="#8dd3c7" stroke="black" points="299.11,-187 296.11,-191 275.11,-191 272.11,-187 174.89,-187 174.89,-151 299.11,-151 299.11,-187"/>
<text text-anchor="middle" x="237" y="-164.8" font-family="Times,serif" font-size="14.00">PromotionsModule</text>
</g>
<!-- DatabaseModule&#45;&gt;PromotionsModule -->
<g id="edge1" class="edge">
<title>DatabaseModule&#45;&gt;PromotionsModule</title>
<path fill="none" stroke="black" d="M190.69,-122.11C190.69,-122.11 190.69,-140.99 190.69,-140.99"/>
<polygon fill="black" stroke="black" points="187.19,-140.99 190.69,-150.99 194.19,-140.99 187.19,-140.99"/>
</g>
<!-- PromotionsService  -->
<g id="node3" class="node">
<title>PromotionsService </title>
<polygon fill="#fb8072" stroke="black" points="300.04,-252 173.96,-252 173.96,-216 300.04,-216 300.04,-252"/>
<text text-anchor="middle" x="237" y="-229.8" font-family="Times,serif" font-size="14.00">PromotionsService </text>
</g>
<!-- PromotionsModule&#45;&gt;PromotionsService  -->
<g id="edge2" class="edge">
<title>PromotionsModule&#45;&gt;PromotionsService </title>
<path fill="none" stroke="black" stroke-dasharray="5,2" d="M237,-187.11C237,-187.11 237,-205.99 237,-205.99"/>
<polygon fill="black" stroke="black" points="233.5,-205.99 237,-215.99 240.5,-205.99 233.5,-205.99"/>
</g>
<!-- PromotionsService -->
<g id="node4" class="node">
<title>PromotionsService</title>
<ellipse fill="#fdb462" stroke="black" cx="315" cy="-104" rx="84.55" ry="18"/>
<text text-anchor="middle" x="315" y="-99.8" font-family="Times,serif" font-size="14.00">PromotionsService</text>
</g>
<!-- PromotionsService&#45;&gt;PromotionsModule -->
<g id="edge3" class="edge">
<title>PromotionsService&#45;&gt;PromotionsModule</title>
<path fill="none" stroke="black" d="M264.77,-118.75C264.77,-118.75 264.77,-140.59 264.77,-140.59"/>
<polygon fill="black" stroke="black" points="261.27,-140.59 264.77,-150.59 268.27,-140.59 261.27,-140.59"/>
</g>
</g>
</svg>
