<?xml version="1.0" encoding="UTF-8" standalone="no"?>
<!DOCTYPE svg PUBLIC "-//W3C//DTD SVG 1.1//EN"
 "http://www.w3.org/Graphics/SVG/1.1/DTD/svg11.dtd">
<!-- Generated by graphviz version 2.47.0 (20210316.0004)
 -->
<!-- Title: dependencies Pages: 1 -->
<svg width="504pt" height="284pt"
 viewBox="0.00 0.00 504.00 284.00" xmlns="http://www.w3.org/2000/svg" xmlns:xlink="http://www.w3.org/1999/xlink">
<g id="graph0" class="graph" transform="scale(1 1) rotate(0) translate(4 280)">
<title>dependencies</title>
<polygon fill="white" stroke="transparent" points="-4,4 -4,-280 500,-280 500,4 -4,4"/>
<text text-anchor="start" x="227.01" y="-42.4" font-family="Times-12" font-weight="bold" font-size="14.00">Legend</text>
<polygon fill="#ffffb3" stroke="transparent" points="14,-10 14,-30 34,-30 34,-10 14,-10"/>
<text text-anchor="start" x="37.63" y="-15.4" font-family="Times-12" font-size="14.00"> &#160;Declarations</text>
<polygon fill="#8dd3c7" stroke="transparent" points="127,-10 127,-30 147,-30 147,-10 127,-10"/>
<text text-anchor="start" x="150.73" y="-15.4" font-family="Times-12" font-size="14.00"> &#160;Module</text>
<polygon fill="#80b1d3" stroke="transparent" points="213,-10 213,-30 233,-30 233,-10 213,-10"/>
<text text-anchor="start" x="236.78" y="-15.4" font-family="Times-12" font-size="14.00"> &#160;Bootstrap</text>
<polygon fill="#fdb462" stroke="transparent" points="310,-10 310,-30 330,-30 330,-10 310,-10"/>
<text text-anchor="start" x="333.67" y="-15.4" font-family="Times-12" font-size="14.00"> &#160;Providers</text>
<polygon fill="#fb8072" stroke="transparent" points="406,-10 406,-30 426,-30 426,-10 406,-10"/>
<text text-anchor="start" x="429.73" y="-15.4" font-family="Times-12" font-size="14.00"> &#160;Exports</text>
<g id="clust1" class="cluster">
<title>cluster_PromotionsModule</title>
<polygon fill="none" stroke="black" stroke-dasharray="1,5" points="64,-70 64,-268 432,-268 432,-70 64,-70"/>
</g>
<g id="clust4" class="cluster">
<title>cluster_PromotionsModule_exports</title>
<polygon fill="none" stroke="black" points="170,-208 170,-260 312,-260 312,-208 170,-208"/>
</g>
<g id="clust6" class="cluster">
<title>cluster_PromotionsModule_providers</title>
<polygon fill="none" stroke="black" points="238,-78 238,-130 424,-130 424,-78 238,-78"/>
</g>
<g id="clust3" class="cluster">
<title>cluster_PromotionsModule_imports</title>
<polygon fill="none" stroke="black" points="72,-78 72,-130 230,-130 230,-78 72,-78"/>
</g>
<!-- PromotionsDbModule -->
<g id="node1" class="node">
<title>PromotionsDbModule</title>
<polygon fill="#8dd3c7" stroke="black" points="221.72,-122 218.72,-126 197.72,-126 194.72,-122 80.28,-122 80.28,-86 221.72,-86 221.72,-122"/>
<text text-anchor="middle" x="151" y="-99.8" font-family="Times,serif" font-size="14.00">PromotionsDbModule</text>
</g>
<!-- PromotionsModule -->
<g id="node2" class="node">
<title>PromotionsModule</title>
<polygon fill="#8dd3c7" stroke="black" points="303.11,-187 300.11,-191 279.11,-191 276.11,-187 178.89,-187 178.89,-151 303.11,-151 303.11,-187"/>
<text text-anchor="middle" x="241" y="-164.8" font-family="Times,serif" font-size="14.00">PromotionsModule</text>
</g>
<!-- PromotionsDbModule&#45;&gt;PromotionsModule -->
<g id="edge1" class="edge">
<title>PromotionsDbModule&#45;&gt;PromotionsModule</title>
<path fill="none" stroke="black" d="M200.28,-122.11C200.28,-122.11 200.28,-140.99 200.28,-140.99"/>
<polygon fill="black" stroke="black" points="196.78,-140.99 200.28,-150.99 203.78,-140.99 196.78,-140.99"/>
</g>
<!-- PromotionsService  -->
<g id="node3" class="node">
<title>PromotionsService </title>
<polygon fill="#fb8072" stroke="black" points="304.04,-252 177.96,-252 177.96,-216 304.04,-216 304.04,-252"/>
<text text-anchor="middle" x="241" y="-229.8" font-family="Times,serif" font-size="14.00">PromotionsService </text>
</g>
<!-- PromotionsModule&#45;&gt;PromotionsService  -->
<g id="edge2" class="edge">
<title>PromotionsModule&#45;&gt;PromotionsService </title>
<path fill="none" stroke="black" stroke-dasharray="5,2" d="M241,-187.11C241,-187.11 241,-205.99 241,-205.99"/>
<polygon fill="black" stroke="black" points="237.5,-205.99 241,-215.99 244.5,-205.99 237.5,-205.99"/>
</g>
<!-- PromotionsService -->
<g id="node4" class="node">
<title>PromotionsService</title>
<ellipse fill="#fdb462" stroke="black" cx="331" cy="-104" rx="84.55" ry="18"/>
<text text-anchor="middle" x="331" y="-99.8" font-family="Times,serif" font-size="14.00">PromotionsService</text>
</g>
<!-- PromotionsService&#45;&gt;PromotionsModule -->
<g id="edge3" class="edge">
<title>PromotionsService&#45;&gt;PromotionsModule</title>
<path fill="none" stroke="black" d="M274.77,-117.47C274.77,-117.47 274.77,-140.86 274.77,-140.86"/>
<polygon fill="black" stroke="black" points="271.27,-140.86 274.77,-150.86 278.27,-140.86 271.27,-140.86"/>
</g>
</g>
</svg>
