<?xml version="1.0" encoding="UTF-8" standalone="no"?>
<!DOCTYPE svg PUBLIC "-//W3C//DTD SVG 1.1//EN"
 "http://www.w3.org/Graphics/SVG/1.1/DTD/svg11.dtd">
<!-- Generated by graphviz version 2.47.0 (20210316.0004)
 -->
<!-- Title: dependencies Pages: 1 -->
<svg width="504pt" height="284pt"
 viewBox="0.00 0.00 504.00 284.00" xmlns="http://www.w3.org/2000/svg" xmlns:xlink="http://www.w3.org/1999/xlink">
<g id="graph0" class="graph" transform="scale(1 1) rotate(0) translate(4 280)">
<title>dependencies</title>
<polygon fill="white" stroke="transparent" points="-4,4 -4,-280 500,-280 500,4 -4,4"/>
<text text-anchor="start" x="227.01" y="-42.4" font-family="Times-12" font-weight="bold" font-size="14.00">Legend</text>
<polygon fill="#ffffb3" stroke="transparent" points="14,-10 14,-30 34,-30 34,-10 14,-10"/>
<text text-anchor="start" x="37.63" y="-15.4" font-family="Times-12" font-size="14.00"> &#160;Declarations</text>
<polygon fill="#8dd3c7" stroke="transparent" points="127,-10 127,-30 147,-30 147,-10 127,-10"/>
<text text-anchor="start" x="150.73" y="-15.4" font-family="Times-12" font-size="14.00"> &#160;Module</text>
<polygon fill="#80b1d3" stroke="transparent" points="213,-10 213,-30 233,-30 233,-10 213,-10"/>
<text text-anchor="start" x="236.78" y="-15.4" font-family="Times-12" font-size="14.00"> &#160;Bootstrap</text>
<polygon fill="#fdb462" stroke="transparent" points="310,-10 310,-30 330,-30 330,-10 310,-10"/>
<text text-anchor="start" x="333.67" y="-15.4" font-family="Times-12" font-size="14.00"> &#160;Providers</text>
<polygon fill="#fb8072" stroke="transparent" points="406,-10 406,-30 426,-30 426,-10 406,-10"/>
<text text-anchor="start" x="429.73" y="-15.4" font-family="Times-12" font-size="14.00"> &#160;Exports</text>
<g id="clust1" class="cluster">
<title>cluster_LocationsDbModule</title>
<polygon fill="none" stroke="black" stroke-dasharray="1,5" points="75,-70 75,-268 421,-268 421,-70 75,-70"/>
</g>
<g id="clust6" class="cluster">
<title>cluster_LocationsDbModule_providers</title>
<polygon fill="none" stroke="black" points="217,-78 217,-130 413,-130 413,-78 217,-78"/>
</g>
<g id="clust4" class="cluster">
<title>cluster_LocationsDbModule_exports</title>
<polygon fill="none" stroke="black" points="161,-208 161,-260 311,-260 311,-208 161,-208"/>
</g>
<g id="clust3" class="cluster">
<title>cluster_LocationsDbModule_imports</title>
<polygon fill="none" stroke="black" points="83,-78 83,-130 209,-130 209,-78 83,-78"/>
</g>
<!-- DatabaseModule -->
<g id="node1" class="node">
<title>DatabaseModule</title>
<polygon fill="#8dd3c7" stroke="black" points="201.35,-122 198.35,-126 177.35,-126 174.35,-122 90.65,-122 90.65,-86 201.35,-86 201.35,-122"/>
<text text-anchor="middle" x="146" y="-99.8" font-family="Times,serif" font-size="14.00">DatabaseModule</text>
</g>
<!-- LocationsDbModule -->
<g id="node2" class="node">
<title>LocationsDbModule</title>
<polygon fill="#8dd3c7" stroke="black" points="301.86,-187 298.86,-191 277.86,-191 274.86,-187 170.14,-187 170.14,-151 301.86,-151 301.86,-187"/>
<text text-anchor="middle" x="236" y="-164.8" font-family="Times,serif" font-size="14.00">LocationsDbModule</text>
</g>
<!-- DatabaseModule&#45;&gt;LocationsDbModule -->
<g id="edge1" class="edge">
<title>DatabaseModule&#45;&gt;LocationsDbModule</title>
<path fill="none" stroke="black" d="M185.75,-122.11C185.75,-122.11 185.75,-140.99 185.75,-140.99"/>
<polygon fill="black" stroke="black" points="182.25,-140.99 185.75,-150.99 189.25,-140.99 182.25,-140.99"/>
</g>
<!-- LocationsDbService  -->
<g id="node3" class="node">
<title>LocationsDbService </title>
<polygon fill="#fb8072" stroke="black" points="302.79,-252 169.21,-252 169.21,-216 302.79,-216 302.79,-252"/>
<text text-anchor="middle" x="236" y="-229.8" font-family="Times,serif" font-size="14.00">LocationsDbService </text>
</g>
<!-- LocationsDbModule&#45;&gt;LocationsDbService  -->
<g id="edge2" class="edge">
<title>LocationsDbModule&#45;&gt;LocationsDbService </title>
<path fill="none" stroke="black" stroke-dasharray="5,2" d="M236,-187.11C236,-187.11 236,-205.99 236,-205.99"/>
<polygon fill="black" stroke="black" points="232.5,-205.99 236,-215.99 239.5,-205.99 232.5,-205.99"/>
</g>
<!-- LocationsDbService -->
<g id="node4" class="node">
<title>LocationsDbService</title>
<ellipse fill="#fdb462" stroke="black" cx="315" cy="-104" rx="89.75" ry="18"/>
<text text-anchor="middle" x="315" y="-99.8" font-family="Times,serif" font-size="14.00">LocationsDbService</text>
</g>
<!-- LocationsDbService&#45;&gt;LocationsDbModule -->
<g id="edge3" class="edge">
<title>LocationsDbService&#45;&gt;LocationsDbModule</title>
<path fill="none" stroke="black" d="M263.53,-119.08C263.53,-119.08 263.53,-140.76 263.53,-140.76"/>
<polygon fill="black" stroke="black" points="260.03,-140.76 263.53,-150.76 267.03,-140.76 260.03,-140.76"/>
</g>
</g>
</svg>
