<?xml version="1.0" encoding="UTF-8" standalone="no"?>
<!DOCTYPE svg PUBLIC "-//W3C//DTD SVG 1.1//EN"
 "http://www.w3.org/Graphics/SVG/1.1/DTD/svg11.dtd">
<!-- Generated by graphviz version 2.47.0 (20210316.0004)
 -->
<!-- Title: dependencies Pages: 1 -->
<svg width="504pt" height="284pt"
 viewBox="0.00 0.00 504.00 284.00" xmlns="http://www.w3.org/2000/svg" xmlns:xlink="http://www.w3.org/1999/xlink">
<g id="graph0" class="graph" transform="scale(1 1) rotate(0) translate(4 280)">
<title>dependencies</title>
<polygon fill="white" stroke="transparent" points="-4,4 -4,-280 500,-280 500,4 -4,4"/>
<text text-anchor="start" x="227.01" y="-42.4" font-family="Times-12" font-weight="bold" font-size="14.00">Legend</text>
<polygon fill="#ffffb3" stroke="transparent" points="14,-10 14,-30 34,-30 34,-10 14,-10"/>
<text text-anchor="start" x="37.63" y="-15.4" font-family="Times-12" font-size="14.00"> &#160;Declarations</text>
<polygon fill="#8dd3c7" stroke="transparent" points="127,-10 127,-30 147,-30 147,-10 127,-10"/>
<text text-anchor="start" x="150.73" y="-15.4" font-family="Times-12" font-size="14.00"> &#160;Module</text>
<polygon fill="#80b1d3" stroke="transparent" points="213,-10 213,-30 233,-30 233,-10 213,-10"/>
<text text-anchor="start" x="236.78" y="-15.4" font-family="Times-12" font-size="14.00"> &#160;Bootstrap</text>
<polygon fill="#fdb462" stroke="transparent" points="310,-10 310,-30 330,-30 330,-10 310,-10"/>
<text text-anchor="start" x="333.67" y="-15.4" font-family="Times-12" font-size="14.00"> &#160;Providers</text>
<polygon fill="#fb8072" stroke="transparent" points="406,-10 406,-30 426,-30 426,-10 406,-10"/>
<text text-anchor="start" x="429.73" y="-15.4" font-family="Times-12" font-size="14.00"> &#160;Exports</text>
<g id="clust1" class="cluster">
<title>cluster_ProfessionalsDbModule</title>
<polygon fill="none" stroke="black" stroke-dasharray="1,5" points="62,-70 62,-268 434,-268 434,-70 62,-70"/>
</g>
<g id="clust3" class="cluster">
<title>cluster_ProfessionalsDbModule_imports</title>
<polygon fill="none" stroke="black" points="300,-78 300,-130 426,-130 426,-78 300,-78"/>
</g>
<g id="clust4" class="cluster">
<title>cluster_ProfessionalsDbModule_exports</title>
<polygon fill="none" stroke="black" points="176,-208 176,-260 346,-260 346,-208 176,-208"/>
</g>
<g id="clust6" class="cluster">
<title>cluster_ProfessionalsDbModule_providers</title>
<polygon fill="none" stroke="black" points="70,-78 70,-130 292,-130 292,-78 70,-78"/>
</g>
<!-- DatabaseModule -->
<g id="node1" class="node">
<title>DatabaseModule</title>
<polygon fill="#8dd3c7" stroke="black" points="418.35,-122 415.35,-126 394.35,-126 391.35,-122 307.65,-122 307.65,-86 418.35,-86 418.35,-122"/>
<text text-anchor="middle" x="363" y="-99.8" font-family="Times,serif" font-size="14.00">DatabaseModule</text>
</g>
<!-- ProfessionalsDbModule -->
<g id="node2" class="node">
<title>ProfessionalsDbModule</title>
<polygon fill="#8dd3c7" stroke="black" points="336.8,-187 333.8,-191 312.8,-191 309.8,-187 185.2,-187 185.2,-151 336.8,-151 336.8,-187"/>
<text text-anchor="middle" x="261" y="-164.8" font-family="Times,serif" font-size="14.00">ProfessionalsDbModule</text>
</g>
<!-- DatabaseModule&#45;&gt;ProfessionalsDbModule -->
<g id="edge1" class="edge">
<title>DatabaseModule&#45;&gt;ProfessionalsDbModule</title>
<path fill="none" stroke="black" d="M322.11,-122.11C322.11,-122.11 322.11,-140.99 322.11,-140.99"/>
<polygon fill="black" stroke="black" points="318.61,-140.99 322.11,-150.99 325.61,-140.99 318.61,-140.99"/>
</g>
<!-- ProfessionalsDbService  -->
<g id="node3" class="node">
<title>ProfessionalsDbService </title>
<polygon fill="#fb8072" stroke="black" points="337.73,-252 184.27,-252 184.27,-216 337.73,-216 337.73,-252"/>
<text text-anchor="middle" x="261" y="-229.8" font-family="Times,serif" font-size="14.00">ProfessionalsDbService </text>
</g>
<!-- ProfessionalsDbModule&#45;&gt;ProfessionalsDbService  -->
<g id="edge2" class="edge">
<title>ProfessionalsDbModule&#45;&gt;ProfessionalsDbService </title>
<path fill="none" stroke="black" stroke-dasharray="5,2" d="M261,-187.11C261,-187.11 261,-205.99 261,-205.99"/>
<polygon fill="black" stroke="black" points="257.5,-205.99 261,-215.99 264.5,-205.99 257.5,-205.99"/>
</g>
<!-- ProfessionalsDbService -->
<g id="node4" class="node">
<title>ProfessionalsDbService</title>
<ellipse fill="#fdb462" stroke="black" cx="181" cy="-104" rx="103.07" ry="18"/>
<text text-anchor="middle" x="181" y="-99.8" font-family="Times,serif" font-size="14.00">ProfessionalsDbService</text>
</g>
<!-- ProfessionalsDbService&#45;&gt;ProfessionalsDbModule -->
<g id="edge3" class="edge">
<title>ProfessionalsDbService&#45;&gt;ProfessionalsDbModule</title>
<path fill="none" stroke="black" d="M234.82,-119.4C234.82,-119.4 234.82,-140.94 234.82,-140.94"/>
<polygon fill="black" stroke="black" points="231.32,-140.94 234.82,-150.94 238.32,-140.94 231.32,-140.94"/>
</g>
</g>
</svg>
