<?xml version="1.0" encoding="UTF-8" standalone="no"?>
<!DOCTYPE svg PUBLIC "-//W3C//DTD SVG 1.1//EN"
 "http://www.w3.org/Graphics/SVG/1.1/DTD/svg11.dtd">
<!-- Generated by graphviz version 2.47.0 (20210316.0004)
 -->
<!-- Title: dependencies Pages: 1 -->
<svg width="504pt" height="284pt"
 viewBox="0.00 0.00 504.00 284.00" xmlns="http://www.w3.org/2000/svg" xmlns:xlink="http://www.w3.org/1999/xlink">
<g id="graph0" class="graph" transform="scale(1 1) rotate(0) translate(4 280)">
<title>dependencies</title>
<polygon fill="white" stroke="transparent" points="-4,4 -4,-280 500,-280 500,4 -4,4"/>
<text text-anchor="start" x="227.01" y="-42.4" font-family="Times-12" font-weight="bold" font-size="14.00">Legend</text>
<polygon fill="#ffffb3" stroke="transparent" points="14,-10 14,-30 34,-30 34,-10 14,-10"/>
<text text-anchor="start" x="37.63" y="-15.4" font-family="Times-12" font-size="14.00"> &#160;Declarations</text>
<polygon fill="#8dd3c7" stroke="transparent" points="127,-10 127,-30 147,-30 147,-10 127,-10"/>
<text text-anchor="start" x="150.73" y="-15.4" font-family="Times-12" font-size="14.00"> &#160;Module</text>
<polygon fill="#80b1d3" stroke="transparent" points="213,-10 213,-30 233,-30 233,-10 213,-10"/>
<text text-anchor="start" x="236.78" y="-15.4" font-family="Times-12" font-size="14.00"> &#160;Bootstrap</text>
<polygon fill="#fdb462" stroke="transparent" points="310,-10 310,-30 330,-30 330,-10 310,-10"/>
<text text-anchor="start" x="333.67" y="-15.4" font-family="Times-12" font-size="14.00"> &#160;Providers</text>
<polygon fill="#fb8072" stroke="transparent" points="406,-10 406,-30 426,-30 426,-10 406,-10"/>
<text text-anchor="start" x="429.73" y="-15.4" font-family="Times-12" font-size="14.00"> &#160;Exports</text>
<g id="clust1" class="cluster">
<title>cluster_ProfessionalsModule</title>
<polygon fill="none" stroke="black" stroke-dasharray="1,5" points="74,-70 74,-268 422,-268 422,-70 74,-70"/>
</g>
<g id="clust6" class="cluster">
<title>cluster_ProfessionalsModule_providers</title>
<polygon fill="none" stroke="black" points="216,-78 216,-130 414,-130 414,-78 216,-78"/>
</g>
<g id="clust3" class="cluster">
<title>cluster_ProfessionalsModule_imports</title>
<polygon fill="none" stroke="black" points="82,-78 82,-130 208,-130 208,-78 82,-78"/>
</g>
<g id="clust4" class="cluster">
<title>cluster_ProfessionalsModule_exports</title>
<polygon fill="none" stroke="black" points="160,-208 160,-260 312,-260 312,-208 160,-208"/>
</g>
<!-- DatabaseModule -->
<g id="node1" class="node">
<title>DatabaseModule</title>
<polygon fill="#8dd3c7" stroke="black" points="200.35,-122 197.35,-126 176.35,-126 173.35,-122 89.65,-122 89.65,-86 200.35,-86 200.35,-122"/>
<text text-anchor="middle" x="145" y="-99.8" font-family="Times,serif" font-size="14.00">DatabaseModule</text>
</g>
<!-- ProfessionalsModule -->
<g id="node2" class="node">
<title>ProfessionalsModule</title>
<polygon fill="#8dd3c7" stroke="black" points="303.2,-187 300.2,-191 279.2,-191 276.2,-187 168.8,-187 168.8,-151 303.2,-151 303.2,-187"/>
<text text-anchor="middle" x="236" y="-164.8" font-family="Times,serif" font-size="14.00">ProfessionalsModule</text>
</g>
<!-- DatabaseModule&#45;&gt;ProfessionalsModule -->
<g id="edge1" class="edge">
<title>DatabaseModule&#45;&gt;ProfessionalsModule</title>
<path fill="none" stroke="black" d="M184.66,-122.11C184.66,-122.11 184.66,-140.99 184.66,-140.99"/>
<polygon fill="black" stroke="black" points="181.16,-140.99 184.66,-150.99 188.16,-140.99 181.16,-140.99"/>
</g>
<!-- ProfessionalsService  -->
<g id="node3" class="node">
<title>ProfessionalsService </title>
<polygon fill="#fb8072" stroke="black" points="304.13,-252 167.87,-252 167.87,-216 304.13,-216 304.13,-252"/>
<text text-anchor="middle" x="236" y="-229.8" font-family="Times,serif" font-size="14.00">ProfessionalsService </text>
</g>
<!-- ProfessionalsModule&#45;&gt;ProfessionalsService  -->
<g id="edge2" class="edge">
<title>ProfessionalsModule&#45;&gt;ProfessionalsService </title>
<path fill="none" stroke="black" stroke-dasharray="5,2" d="M236,-187.11C236,-187.11 236,-205.99 236,-205.99"/>
<polygon fill="black" stroke="black" points="232.5,-205.99 236,-215.99 239.5,-205.99 232.5,-205.99"/>
</g>
<!-- ProfessionalsService -->
<g id="node4" class="node">
<title>ProfessionalsService</title>
<ellipse fill="#fdb462" stroke="black" cx="315" cy="-104" rx="91.47" ry="18"/>
<text text-anchor="middle" x="315" y="-99.8" font-family="Times,serif" font-size="14.00">ProfessionalsService</text>
</g>
<!-- ProfessionalsService&#45;&gt;ProfessionalsModule -->
<g id="edge3" class="edge">
<title>ProfessionalsService&#45;&gt;ProfessionalsModule</title>
<path fill="none" stroke="black" d="M263.31,-119.08C263.31,-119.08 263.31,-140.76 263.31,-140.76"/>
<polygon fill="black" stroke="black" points="259.81,-140.76 263.31,-150.76 266.81,-140.76 259.81,-140.76"/>
</g>
</g>
</svg>
