<?xml version="1.0" encoding="UTF-8" standalone="no"?>
<!DOCTYPE svg PUBLIC "-//W3C//DTD SVG 1.1//EN"
 "http://www.w3.org/Graphics/SVG/1.1/DTD/svg11.dtd">
<!-- Generated by graphviz version 2.47.0 (20210316.0004)
 -->
<!-- Title: dependencies Pages: 1 -->
<svg width="504pt" height="284pt"
 viewBox="0.00 0.00 504.00 284.00" xmlns="http://www.w3.org/2000/svg" xmlns:xlink="http://www.w3.org/1999/xlink">
<g id="graph0" class="graph" transform="scale(1 1) rotate(0) translate(4 280)">
<title>dependencies</title>
<polygon fill="white" stroke="transparent" points="-4,4 -4,-280 500,-280 500,4 -4,4"/>
<text text-anchor="start" x="227.01" y="-42.4" font-family="Times-12" font-weight="bold" font-size="14.00">Legend</text>
<polygon fill="#ffffb3" stroke="transparent" points="14,-10 14,-30 34,-30 34,-10 14,-10"/>
<text text-anchor="start" x="37.63" y="-15.4" font-family="Times-12" font-size="14.00"> &#160;Declarations</text>
<polygon fill="#8dd3c7" stroke="transparent" points="127,-10 127,-30 147,-30 147,-10 127,-10"/>
<text text-anchor="start" x="150.73" y="-15.4" font-family="Times-12" font-size="14.00"> &#160;Module</text>
<polygon fill="#80b1d3" stroke="transparent" points="213,-10 213,-30 233,-30 233,-10 213,-10"/>
<text text-anchor="start" x="236.78" y="-15.4" font-family="Times-12" font-size="14.00"> &#160;Bootstrap</text>
<polygon fill="#fdb462" stroke="transparent" points="310,-10 310,-30 330,-30 330,-10 310,-10"/>
<text text-anchor="start" x="333.67" y="-15.4" font-family="Times-12" font-size="14.00"> &#160;Providers</text>
<polygon fill="#fb8072" stroke="transparent" points="406,-10 406,-30 426,-30 426,-10 406,-10"/>
<text text-anchor="start" x="429.73" y="-15.4" font-family="Times-12" font-size="14.00"> &#160;Exports</text>
<g id="clust1" class="cluster">
<title>cluster_ProfessionalsModule</title>
<polygon fill="none" stroke="black" stroke-dasharray="1,5" points="53,-70 53,-268 443,-268 443,-70 53,-70"/>
</g>
<g id="clust4" class="cluster">
<title>cluster_ProfessionalsModule_exports</title>
<polygon fill="none" stroke="black" points="164,-208 164,-260 316,-260 316,-208 164,-208"/>
</g>
<g id="clust6" class="cluster">
<title>cluster_ProfessionalsModule_providers</title>
<polygon fill="none" stroke="black" points="237,-78 237,-130 435,-130 435,-78 237,-78"/>
</g>
<g id="clust3" class="cluster">
<title>cluster_ProfessionalsModule_imports</title>
<polygon fill="none" stroke="black" points="61,-78 61,-130 229,-130 229,-78 61,-78"/>
</g>
<!-- ProfessionalsDbModule -->
<g id="node1" class="node">
<title>ProfessionalsDbModule</title>
<polygon fill="#8dd3c7" stroke="black" points="220.8,-122 217.8,-126 196.8,-126 193.8,-122 69.2,-122 69.2,-86 220.8,-86 220.8,-122"/>
<text text-anchor="middle" x="145" y="-99.8" font-family="Times,serif" font-size="14.00">ProfessionalsDbModule</text>
</g>
<!-- ProfessionalsModule -->
<g id="node2" class="node">
<title>ProfessionalsModule</title>
<polygon fill="#8dd3c7" stroke="black" points="307.2,-187 304.2,-191 283.2,-191 280.2,-187 172.8,-187 172.8,-151 307.2,-151 307.2,-187"/>
<text text-anchor="middle" x="240" y="-164.8" font-family="Times,serif" font-size="14.00">ProfessionalsModule</text>
</g>
<!-- ProfessionalsDbModule&#45;&gt;ProfessionalsModule -->
<g id="edge1" class="edge">
<title>ProfessionalsDbModule&#45;&gt;ProfessionalsModule</title>
<path fill="none" stroke="black" d="M196.78,-122.11C196.78,-122.11 196.78,-140.99 196.78,-140.99"/>
<polygon fill="black" stroke="black" points="193.28,-140.99 196.78,-150.99 200.28,-140.99 193.28,-140.99"/>
</g>
<!-- ProfessionalsService  -->
<g id="node3" class="node">
<title>ProfessionalsService </title>
<polygon fill="#fb8072" stroke="black" points="308.13,-252 171.87,-252 171.87,-216 308.13,-216 308.13,-252"/>
<text text-anchor="middle" x="240" y="-229.8" font-family="Times,serif" font-size="14.00">ProfessionalsService </text>
</g>
<!-- ProfessionalsModule&#45;&gt;ProfessionalsService  -->
<g id="edge2" class="edge">
<title>ProfessionalsModule&#45;&gt;ProfessionalsService </title>
<path fill="none" stroke="black" stroke-dasharray="5,2" d="M240,-187.11C240,-187.11 240,-205.99 240,-205.99"/>
<polygon fill="black" stroke="black" points="236.5,-205.99 240,-215.99 243.5,-205.99 236.5,-205.99"/>
</g>
<!-- ProfessionalsService -->
<g id="node4" class="node">
<title>ProfessionalsService</title>
<ellipse fill="#fdb462" stroke="black" cx="336" cy="-104" rx="91.47" ry="18"/>
<text text-anchor="middle" x="336" y="-99.8" font-family="Times,serif" font-size="14.00">ProfessionalsService</text>
</g>
<!-- ProfessionalsService&#45;&gt;ProfessionalsModule -->
<g id="edge3" class="edge">
<title>ProfessionalsService&#45;&gt;ProfessionalsModule</title>
<path fill="none" stroke="black" d="M275.81,-117.78C275.81,-117.78 275.81,-140.55 275.81,-140.55"/>
<polygon fill="black" stroke="black" points="272.31,-140.55 275.81,-150.55 279.31,-140.55 272.31,-140.55"/>
</g>
</g>
</svg>
