<?xml version="1.0" encoding="UTF-8" standalone="no"?>
<!DOCTYPE svg PUBLIC "-//W3C//DTD SVG 1.1//EN"
 "http://www.w3.org/Graphics/SVG/1.1/DTD/svg11.dtd">
<!-- Generated by graphviz version 2.47.0 (20210316.0004)
 -->
<!-- Title: dependencies Pages: 1 -->
<svg width="1195pt" height="284pt"
 viewBox="0.00 0.00 1195.00 284.00" xmlns="http://www.w3.org/2000/svg" xmlns:xlink="http://www.w3.org/1999/xlink">
<g id="graph0" class="graph" transform="scale(1 1) rotate(0) translate(4 280)">
<title>dependencies</title>
<polygon fill="white" stroke="transparent" points="-4,4 -4,-280 1191,-280 1191,4 -4,4"/>
<text text-anchor="start" x="572.51" y="-42.4" font-family="Times-12" font-weight="bold" font-size="14.00">Legend</text>
<polygon fill="#ffffb3" stroke="transparent" points="359.5,-10 359.5,-30 379.5,-30 379.5,-10 359.5,-10"/>
<text text-anchor="start" x="383.13" y="-15.4" font-family="Times-12" font-size="14.00"> &#160;Declarations</text>
<polygon fill="#8dd3c7" stroke="transparent" points="472.5,-10 472.5,-30 492.5,-30 492.5,-10 472.5,-10"/>
<text text-anchor="start" x="496.23" y="-15.4" font-family="Times-12" font-size="14.00"> &#160;Module</text>
<polygon fill="#80b1d3" stroke="transparent" points="558.5,-10 558.5,-30 578.5,-30 578.5,-10 558.5,-10"/>
<text text-anchor="start" x="582.28" y="-15.4" font-family="Times-12" font-size="14.00"> &#160;Bootstrap</text>
<polygon fill="#fdb462" stroke="transparent" points="655.5,-10 655.5,-30 675.5,-30 675.5,-10 655.5,-10"/>
<text text-anchor="start" x="679.17" y="-15.4" font-family="Times-12" font-size="14.00"> &#160;Providers</text>
<polygon fill="#fb8072" stroke="transparent" points="751.5,-10 751.5,-30 771.5,-30 771.5,-10 751.5,-10"/>
<text text-anchor="start" x="775.23" y="-15.4" font-family="Times-12" font-size="14.00"> &#160;Exports</text>
<g id="clust1" class="cluster">
<title>cluster_AuthModule</title>
<polygon fill="none" stroke="black" stroke-dasharray="1,5" points="8,-70 8,-268 1179,-268 1179,-70 8,-70"/>
</g>
<g id="clust4" class="cluster">
<title>cluster_AuthModule_exports</title>
<polygon fill="none" stroke="black" points="284,-208 284,-260 810,-260 810,-208 284,-208"/>
</g>
<g id="clust6" class="cluster">
<title>cluster_AuthModule_providers</title>
<polygon fill="none" stroke="black" points="279,-78 279,-130 1171,-130 1171,-78 279,-78"/>
</g>
<g id="clust3" class="cluster">
<title>cluster_AuthModule_imports</title>
<polygon fill="none" stroke="black" points="16,-78 16,-130 271,-130 271,-78 16,-78"/>
</g>
<!-- DatabaseModule -->
<g id="node1" class="node">
<title>DatabaseModule</title>
<polygon fill="#8dd3c7" stroke="black" points="263.35,-122 260.35,-126 239.35,-126 236.35,-122 152.65,-122 152.65,-86 263.35,-86 263.35,-122"/>
<text text-anchor="middle" x="208" y="-99.8" font-family="Times,serif" font-size="14.00">DatabaseModule</text>
</g>
<!-- AuthModule -->
<g id="node3" class="node">
<title>AuthModule</title>
<polygon fill="#8dd3c7" stroke="black" points="576.55,-187 573.55,-191 552.55,-191 549.55,-187 489.45,-187 489.45,-151 576.55,-151 576.55,-187"/>
<text text-anchor="middle" x="533" y="-164.8" font-family="Times,serif" font-size="14.00">AuthModule</text>
</g>
<!-- DatabaseModule&#45;&gt;AuthModule -->
<g id="edge1" class="edge">
<title>DatabaseModule&#45;&gt;AuthModule</title>
<path fill="none" stroke="black" d="M208,-122.27C208,-140.56 208,-166 208,-166 208,-166 479.17,-166 479.17,-166"/>
<polygon fill="black" stroke="black" points="479.17,-169.5 489.17,-166 479.17,-162.5 479.17,-169.5"/>
</g>
<!-- UsersDBModule -->
<g id="node2" class="node">
<title>UsersDBModule</title>
<polygon fill="#8dd3c7" stroke="black" points="134.36,-122 131.36,-126 110.36,-126 107.36,-122 23.64,-122 23.64,-86 134.36,-86 134.36,-122"/>
<text text-anchor="middle" x="79" y="-99.8" font-family="Times,serif" font-size="14.00">UsersDBModule</text>
</g>
<!-- UsersDBModule&#45;&gt;AuthModule -->
<g id="edge2" class="edge">
<title>UsersDBModule&#45;&gt;AuthModule</title>
<path fill="none" stroke="black" d="M79,-122.13C79,-142.57 79,-173 79,-173 79,-173 479.06,-173 479.06,-173"/>
<polygon fill="black" stroke="black" points="479.06,-176.5 489.06,-173 479.06,-169.5 479.06,-176.5"/>
</g>
<!-- AuthPasswordService  -->
<g id="node4" class="node">
<title>AuthPasswordService </title>
<polygon fill="#fb8072" stroke="black" points="801.63,-252 658.37,-252 658.37,-216 801.63,-216 801.63,-252"/>
<text text-anchor="middle" x="730" y="-229.8" font-family="Times,serif" font-size="14.00">AuthPasswordService </text>
</g>
<!-- AuthModule&#45;&gt;AuthPasswordService  -->
<g id="edge3" class="edge">
<title>AuthModule&#45;&gt;AuthPasswordService </title>
<path fill="none" stroke="black" stroke-dasharray="5,2" d="M576.72,-180C634.76,-180 730,-180 730,-180 730,-180 730,-205.72 730,-205.72"/>
<polygon fill="black" stroke="black" points="726.5,-205.72 730,-215.72 733.5,-205.72 726.5,-205.72"/>
</g>
<!-- AuthService  -->
<g id="node5" class="node">
<title>AuthService </title>
<polygon fill="#fb8072" stroke="black" points="640.98,-252 551.02,-252 551.02,-216 640.98,-216 640.98,-252"/>
<text text-anchor="middle" x="596" y="-229.8" font-family="Times,serif" font-size="14.00">AuthService </text>
</g>
<!-- AuthModule&#45;&gt;AuthService  -->
<g id="edge4" class="edge">
<title>AuthModule&#45;&gt;AuthService </title>
<path fill="none" stroke="black" stroke-dasharray="5,2" d="M564.02,-187.11C564.02,-187.11 564.02,-205.99 564.02,-205.99"/>
<polygon fill="black" stroke="black" points="560.52,-205.99 564.02,-215.99 567.52,-205.99 560.52,-205.99"/>
</g>
<!-- AuthTokenService  -->
<g id="node6" class="node">
<title>AuthTokenService </title>
<polygon fill="#fb8072" stroke="black" points="533.74,-252 408.26,-252 408.26,-216 533.74,-216 533.74,-252"/>
<text text-anchor="middle" x="471" y="-229.8" font-family="Times,serif" font-size="14.00">AuthTokenService </text>
</g>
<!-- AuthModule&#45;&gt;AuthTokenService  -->
<g id="edge5" class="edge">
<title>AuthModule&#45;&gt;AuthTokenService </title>
<path fill="none" stroke="black" stroke-dasharray="5,2" d="M511.42,-187.11C511.42,-187.11 511.42,-205.99 511.42,-205.99"/>
<polygon fill="black" stroke="black" points="507.92,-205.99 511.42,-215.99 514.92,-205.99 507.92,-205.99"/>
</g>
<!-- NonceService  -->
<g id="node7" class="node">
<title>NonceService </title>
<polygon fill="#fb8072" stroke="black" points="390.01,-252 291.99,-252 291.99,-216 390.01,-216 390.01,-252"/>
<text text-anchor="middle" x="341" y="-229.8" font-family="Times,serif" font-size="14.00">NonceService </text>
</g>
<!-- AuthModule&#45;&gt;NonceService  -->
<g id="edge6" class="edge">
<title>AuthModule&#45;&gt;NonceService </title>
<path fill="none" stroke="black" stroke-dasharray="5,2" d="M489.43,-180C432.78,-180 341,-180 341,-180 341,-180 341,-205.72 341,-205.72"/>
<polygon fill="black" stroke="black" points="337.5,-205.72 341,-215.72 344.5,-205.72 337.5,-205.72"/>
</g>
<!-- AuthPasswordService -->
<g id="node8" class="node">
<title>AuthPasswordService</title>
<ellipse fill="#fdb462" stroke="black" cx="1067" cy="-104" rx="96.13" ry="18"/>
<text text-anchor="middle" x="1067" y="-99.8" font-family="Times,serif" font-size="14.00">AuthPasswordService</text>
</g>
<!-- AuthPasswordService&#45;&gt;AuthModule -->
<g id="edge7" class="edge">
<title>AuthPasswordService&#45;&gt;AuthModule</title>
<path fill="none" stroke="black" d="M1067,-122.13C1067,-142.57 1067,-173 1067,-173 1067,-173 586.7,-173 586.7,-173"/>
<polygon fill="black" stroke="black" points="586.7,-169.5 576.7,-173 586.7,-176.5 586.7,-169.5"/>
</g>
<!-- AuthService -->
<g id="node9" class="node">
<title>AuthService</title>
<ellipse fill="#fdb462" stroke="black" cx="893" cy="-104" rx="59.11" ry="18"/>
<text text-anchor="middle" x="893" y="-99.8" font-family="Times,serif" font-size="14.00">AuthService</text>
</g>
<!-- AuthService&#45;&gt;AuthModule -->
<g id="edge8" class="edge">
<title>AuthService&#45;&gt;AuthModule</title>
<path fill="none" stroke="black" d="M893,-122.27C893,-140.56 893,-166 893,-166 893,-166 586.78,-166 586.78,-166"/>
<polygon fill="black" stroke="black" points="586.78,-162.5 576.78,-166 586.78,-169.5 586.78,-162.5"/>
</g>
<!-- AuthTokenService -->
<g id="node10" class="node">
<title>AuthTokenService</title>
<ellipse fill="#fdb462" stroke="black" cx="732" cy="-104" rx="83.95" ry="18"/>
<text text-anchor="middle" x="732" y="-99.8" font-family="Times,serif" font-size="14.00">AuthTokenService</text>
</g>
<!-- AuthTokenService&#45;&gt;AuthModule -->
<g id="edge9" class="edge">
<title>AuthTokenService&#45;&gt;AuthModule</title>
<path fill="none" stroke="black" d="M653.23,-110.31C653.23,-124.76 653.23,-159 653.23,-159 653.23,-159 586.75,-159 586.75,-159"/>
<polygon fill="black" stroke="black" points="586.75,-155.5 576.75,-159 586.75,-162.5 586.75,-155.5"/>
</g>
<!-- CredentialsRepository -->
<g id="node11" class="node">
<title>CredentialsRepository</title>
<ellipse fill="#fdb462" stroke="black" cx="533" cy="-104" rx="97.29" ry="18"/>
<text text-anchor="middle" x="533" y="-99.8" font-family="Times,serif" font-size="14.00">CredentialsRepository</text>
</g>
<!-- CredentialsRepository&#45;&gt;AuthModule -->
<g id="edge10" class="edge">
<title>CredentialsRepository&#45;&gt;AuthModule</title>
<path fill="none" stroke="black" d="M533,-122.11C533,-122.11 533,-140.99 533,-140.99"/>
<polygon fill="black" stroke="black" points="529.5,-140.99 533,-150.99 536.5,-140.99 529.5,-140.99"/>
</g>
<!-- NonceService -->
<g id="node12" class="node">
<title>NonceService</title>
<ellipse fill="#fdb462" stroke="black" cx="352" cy="-104" rx="65.39" ry="18"/>
<text text-anchor="middle" x="352" y="-99.8" font-family="Times,serif" font-size="14.00">NonceService</text>
</g>
<!-- NonceService&#45;&gt;AuthModule -->
<g id="edge11" class="edge">
<title>NonceService&#45;&gt;AuthModule</title>
<path fill="none" stroke="black" d="M412.79,-110.74C412.79,-125.43 412.79,-159 412.79,-159 412.79,-159 479.26,-159 479.26,-159"/>
<polygon fill="black" stroke="black" points="479.26,-162.5 489.26,-159 479.26,-155.5 479.26,-162.5"/>
</g>
</g>
</svg>
