<?xml version="1.0" encoding="UTF-8" standalone="no"?>
<!DOCTYPE svg PUBLIC "-//W3C//DTD SVG 1.1//EN"
 "http://www.w3.org/Graphics/SVG/1.1/DTD/svg11.dtd">
<!-- Generated by graphviz version 2.47.0 (20210316.0004)
 -->
<!-- Title: dependencies Pages: 1 -->
<svg width="504pt" height="284pt"
 viewBox="0.00 0.00 504.00 284.00" xmlns="http://www.w3.org/2000/svg" xmlns:xlink="http://www.w3.org/1999/xlink">
<g id="graph0" class="graph" transform="scale(1 1) rotate(0) translate(4 280)">
<title>dependencies</title>
<polygon fill="white" stroke="transparent" points="-4,4 -4,-280 500,-280 500,4 -4,4"/>
<text text-anchor="start" x="227.01" y="-42.4" font-family="Times-12" font-weight="bold" font-size="14.00">Legend</text>
<polygon fill="#ffffb3" stroke="transparent" points="14,-10 14,-30 34,-30 34,-10 14,-10"/>
<text text-anchor="start" x="37.63" y="-15.4" font-family="Times-12" font-size="14.00"> &#160;Declarations</text>
<polygon fill="#8dd3c7" stroke="transparent" points="127,-10 127,-30 147,-30 147,-10 127,-10"/>
<text text-anchor="start" x="150.73" y="-15.4" font-family="Times-12" font-size="14.00"> &#160;Module</text>
<polygon fill="#80b1d3" stroke="transparent" points="213,-10 213,-30 233,-30 233,-10 213,-10"/>
<text text-anchor="start" x="236.78" y="-15.4" font-family="Times-12" font-size="14.00"> &#160;Bootstrap</text>
<polygon fill="#fdb462" stroke="transparent" points="310,-10 310,-30 330,-30 330,-10 310,-10"/>
<text text-anchor="start" x="333.67" y="-15.4" font-family="Times-12" font-size="14.00"> &#160;Providers</text>
<polygon fill="#fb8072" stroke="transparent" points="406,-10 406,-30 426,-30 426,-10 406,-10"/>
<text text-anchor="start" x="429.73" y="-15.4" font-family="Times-12" font-size="14.00"> &#160;Exports</text>
<g id="clust1" class="cluster">
<title>cluster_ServicesModule</title>
<polygon fill="none" stroke="black" stroke-dasharray="1,5" points="85,-70 85,-268 411,-268 411,-70 85,-70"/>
</g>
<g id="clust4" class="cluster">
<title>cluster_ServicesModule_exports</title>
<polygon fill="none" stroke="black" points="180,-208 180,-260 304,-260 304,-208 180,-208"/>
</g>
<g id="clust6" class="cluster">
<title>cluster_ServicesModule_providers</title>
<polygon fill="none" stroke="black" points="241,-78 241,-130 403,-130 403,-78 241,-78"/>
</g>
<g id="clust3" class="cluster">
<title>cluster_ServicesModule_imports</title>
<polygon fill="none" stroke="black" points="93,-78 93,-130 233,-130 233,-78 93,-78"/>
</g>
<!-- ServicesDbModule -->
<g id="node1" class="node">
<title>ServicesDbModule</title>
<polygon fill="#8dd3c7" stroke="black" points="225.08,-122 222.08,-126 201.08,-126 198.08,-122 100.92,-122 100.92,-86 225.08,-86 225.08,-122"/>
<text text-anchor="middle" x="163" y="-99.8" font-family="Times,serif" font-size="14.00">ServicesDbModule</text>
</g>
<!-- ServicesModule -->
<g id="node2" class="node">
<title>ServicesModule</title>
<polygon fill="#8dd3c7" stroke="black" points="295.47,-187 292.47,-191 271.47,-191 268.47,-187 188.53,-187 188.53,-151 295.47,-151 295.47,-187"/>
<text text-anchor="middle" x="242" y="-164.8" font-family="Times,serif" font-size="14.00">ServicesModule</text>
</g>
<!-- ServicesDbModule&#45;&gt;ServicesModule -->
<g id="edge1" class="edge">
<title>ServicesDbModule&#45;&gt;ServicesModule</title>
<path fill="none" stroke="black" d="M206.78,-122.11C206.78,-122.11 206.78,-140.99 206.78,-140.99"/>
<polygon fill="black" stroke="black" points="203.28,-140.99 206.78,-150.99 210.28,-140.99 203.28,-140.99"/>
</g>
<!-- ServicesService  -->
<g id="node3" class="node">
<title>ServicesService </title>
<polygon fill="#fb8072" stroke="black" points="296.4,-252 187.6,-252 187.6,-216 296.4,-216 296.4,-252"/>
<text text-anchor="middle" x="242" y="-229.8" font-family="Times,serif" font-size="14.00">ServicesService </text>
</g>
<!-- ServicesModule&#45;&gt;ServicesService  -->
<g id="edge2" class="edge">
<title>ServicesModule&#45;&gt;ServicesService </title>
<path fill="none" stroke="black" stroke-dasharray="5,2" d="M242,-187.11C242,-187.11 242,-205.99 242,-205.99"/>
<polygon fill="black" stroke="black" points="238.5,-205.99 242,-215.99 245.5,-205.99 238.5,-205.99"/>
</g>
<!-- ServicesService -->
<g id="node4" class="node">
<title>ServicesService</title>
<ellipse fill="#fdb462" stroke="black" cx="322" cy="-104" rx="72.91" ry="18"/>
<text text-anchor="middle" x="322" y="-99.8" font-family="Times,serif" font-size="14.00">ServicesService</text>
</g>
<!-- ServicesService&#45;&gt;ServicesModule -->
<g id="edge3" class="edge">
<title>ServicesService&#45;&gt;ServicesModule</title>
<path fill="none" stroke="black" d="M272.39,-117.47C272.39,-117.47 272.39,-140.86 272.39,-140.86"/>
<polygon fill="black" stroke="black" points="268.89,-140.86 272.39,-150.86 275.89,-140.86 268.89,-140.86"/>
</g>
</g>
</svg>
