<?xml version="1.0" encoding="UTF-8" standalone="no"?>
<!DOCTYPE svg PUBLIC "-//W3C//DTD SVG 1.1//EN"
 "http://www.w3.org/Graphics/SVG/1.1/DTD/svg11.dtd">
<!-- Generated by graphviz version 2.47.0 (20210316.0004)
 -->
<!-- Title: dependencies Pages: 1 -->
<svg width="504pt" height="211pt"
 viewBox="0.00 0.00 504.00 211.00" xmlns="http://www.w3.org/2000/svg" xmlns:xlink="http://www.w3.org/1999/xlink">
<g id="graph0" class="graph" transform="scale(1 1) rotate(0) translate(4 207)">
<title>dependencies</title>
<polygon fill="white" stroke="transparent" points="-4,4 -4,-207 500,-207 500,4 -4,4"/>
<text text-anchor="start" x="227.01" y="-42.4" font-family="Times-12" font-weight="bold" font-size="14.00">Legend</text>
<polygon fill="#ffffb3" stroke="transparent" points="14,-10 14,-30 34,-30 34,-10 14,-10"/>
<text text-anchor="start" x="37.63" y="-15.4" font-family="Times-12" font-size="14.00"> &#160;Declarations</text>
<polygon fill="#8dd3c7" stroke="transparent" points="127,-10 127,-30 147,-30 147,-10 127,-10"/>
<text text-anchor="start" x="150.73" y="-15.4" font-family="Times-12" font-size="14.00"> &#160;Module</text>
<polygon fill="#80b1d3" stroke="transparent" points="213,-10 213,-30 233,-30 233,-10 213,-10"/>
<text text-anchor="start" x="236.78" y="-15.4" font-family="Times-12" font-size="14.00"> &#160;Bootstrap</text>
<polygon fill="#fdb462" stroke="transparent" points="310,-10 310,-30 330,-30 330,-10 310,-10"/>
<text text-anchor="start" x="333.67" y="-15.4" font-family="Times-12" font-size="14.00"> &#160;Providers</text>
<polygon fill="#fb8072" stroke="transparent" points="406,-10 406,-30 426,-30 426,-10 406,-10"/>
<text text-anchor="start" x="429.73" y="-15.4" font-family="Times-12" font-size="14.00"> &#160;Exports</text>
<g id="clust1" class="cluster">
<title>cluster_AnalyticsModule</title>
<polygon fill="none" stroke="black" stroke-dasharray="1,5" points="64,-70 64,-195 432,-195 432,-70 64,-70"/>
</g>
<g id="clust6" class="cluster">
<title>cluster_AnalyticsModule_providers</title>
<polygon fill="none" stroke="black" points="226,-78 226,-130 424,-130 424,-78 226,-78"/>
</g>
<g id="clust3" class="cluster">
<title>cluster_AnalyticsModule_imports</title>
<polygon fill="none" stroke="black" points="72,-78 72,-130 218,-130 218,-78 72,-78"/>
</g>
<!-- AnalyticsDbModule -->
<g id="node1" class="node">
<title>AnalyticsDbModule</title>
<polygon fill="#8dd3c7" stroke="black" points="210.31,-122 207.31,-126 186.31,-126 183.31,-122 79.69,-122 79.69,-86 210.31,-86 210.31,-122"/>
<text text-anchor="middle" x="145" y="-99.8" font-family="Times,serif" font-size="14.00">AnalyticsDbModule</text>
</g>
<!-- AnalyticsModule -->
<g id="node2" class="node">
<title>AnalyticsModule</title>
<polygon fill="#8dd3c7" stroke="black" points="291.7,-187 288.7,-191 267.7,-191 264.7,-187 178.3,-187 178.3,-151 291.7,-151 291.7,-187"/>
<text text-anchor="middle" x="235" y="-164.8" font-family="Times,serif" font-size="14.00">AnalyticsModule</text>
</g>
<!-- AnalyticsDbModule&#45;&gt;AnalyticsModule -->
<g id="edge1" class="edge">
<title>AnalyticsDbModule&#45;&gt;AnalyticsModule</title>
<path fill="none" stroke="black" d="M194.28,-122.11C194.28,-122.11 194.28,-140.99 194.28,-140.99"/>
<polygon fill="black" stroke="black" points="190.78,-140.99 194.28,-150.99 197.78,-140.99 190.78,-140.99"/>
</g>
<!-- AnalyticsApiService -->
<g id="node3" class="node">
<title>AnalyticsApiService</title>
<ellipse fill="#fdb462" stroke="black" cx="325" cy="-104" rx="91.47" ry="18"/>
<text text-anchor="middle" x="325" y="-99.8" font-family="Times,serif" font-size="14.00">AnalyticsApiService</text>
</g>
<!-- AnalyticsApiService&#45;&gt;AnalyticsModule -->
<g id="edge2" class="edge">
<title>AnalyticsApiService&#45;&gt;AnalyticsModule</title>
<path fill="none" stroke="black" d="M262.56,-117.47C262.56,-117.47 262.56,-140.86 262.56,-140.86"/>
<polygon fill="black" stroke="black" points="259.06,-140.86 262.56,-150.86 266.06,-140.86 259.06,-140.86"/>
</g>
</g>
</svg>
