<?xml version="1.0" encoding="UTF-8" standalone="no"?>
<!DOCTYPE svg PUBLIC "-//W3C//DTD SVG 1.1//EN"
 "http://www.w3.org/Graphics/SVG/1.1/DTD/svg11.dtd">
<!-- Generated by graphviz version 2.47.0 (20210316.0004)
 -->
<!-- Title: dependencies Pages: 1 -->
<svg width="504pt" height="284pt"
 viewBox="0.00 0.00 504.00 284.00" xmlns="http://www.w3.org/2000/svg" xmlns:xlink="http://www.w3.org/1999/xlink">
<g id="graph0" class="graph" transform="scale(1 1) rotate(0) translate(4 280)">
<title>dependencies</title>
<polygon fill="white" stroke="transparent" points="-4,4 -4,-280 500,-280 500,4 -4,4"/>
<text text-anchor="start" x="227.01" y="-42.4" font-family="Times-12" font-weight="bold" font-size="14.00">Legend</text>
<polygon fill="#ffffb3" stroke="transparent" points="14,-10 14,-30 34,-30 34,-10 14,-10"/>
<text text-anchor="start" x="37.63" y="-15.4" font-family="Times-12" font-size="14.00"> &#160;Declarations</text>
<polygon fill="#8dd3c7" stroke="transparent" points="127,-10 127,-30 147,-30 147,-10 127,-10"/>
<text text-anchor="start" x="150.73" y="-15.4" font-family="Times-12" font-size="14.00"> &#160;Module</text>
<polygon fill="#80b1d3" stroke="transparent" points="213,-10 213,-30 233,-30 233,-10 213,-10"/>
<text text-anchor="start" x="236.78" y="-15.4" font-family="Times-12" font-size="14.00"> &#160;Bootstrap</text>
<polygon fill="#fdb462" stroke="transparent" points="310,-10 310,-30 330,-30 330,-10 310,-10"/>
<text text-anchor="start" x="333.67" y="-15.4" font-family="Times-12" font-size="14.00"> &#160;Providers</text>
<polygon fill="#fb8072" stroke="transparent" points="406,-10 406,-30 426,-30 426,-10 406,-10"/>
<text text-anchor="start" x="429.73" y="-15.4" font-family="Times-12" font-size="14.00"> &#160;Exports</text>
<g id="clust1" class="cluster">
<title>cluster_LocationsModule</title>
<polygon fill="none" stroke="black" stroke-dasharray="1,5" points="76,-70 76,-268 420,-268 420,-70 76,-70"/>
</g>
<g id="clust3" class="cluster">
<title>cluster_LocationsModule_imports</title>
<polygon fill="none" stroke="black" points="264,-78 264,-130 412,-130 412,-78 264,-78"/>
</g>
<g id="clust4" class="cluster">
<title>cluster_LocationsModule_exports</title>
<polygon fill="none" stroke="black" points="102,-208 102,-260 377,-260 377,-208 102,-208"/>
</g>
<g id="clust6" class="cluster">
<title>cluster_LocationsModule_providers</title>
<polygon fill="none" stroke="black" points="84,-78 84,-130 256,-130 256,-78 84,-78"/>
</g>
<!-- LocationsDbModule -->
<g id="node1" class="node">
<title>LocationsDbModule</title>
<polygon fill="#8dd3c7" stroke="black" points="403.86,-122 400.86,-126 379.86,-126 376.86,-122 272.14,-122 272.14,-86 403.86,-86 403.86,-122"/>
<text text-anchor="middle" x="338" y="-99.8" font-family="Times,serif" font-size="14.00">LocationsDbModule</text>
</g>
<!-- LocationsModule -->
<g id="node2" class="node">
<title>LocationsModule</title>
<polygon fill="#8dd3c7" stroke="black" points="243.26,-187 240.26,-191 219.26,-191 216.26,-187 128.74,-187 128.74,-151 243.26,-151 243.26,-187"/>
<text text-anchor="middle" x="186" y="-164.8" font-family="Times,serif" font-size="14.00">LocationsModule</text>
</g>
<!-- LocationsDbModule&#45;&gt;LocationsModule -->
<g id="edge1" class="edge">
<title>LocationsDbModule&#45;&gt;LocationsModule</title>
<path fill="none" stroke="black" d="M320.65,-122.11C320.65,-141.34 320.65,-169 320.65,-169 320.65,-169 253.49,-169 253.49,-169"/>
<polygon fill="black" stroke="black" points="253.49,-165.5 243.49,-169 253.49,-172.5 253.49,-165.5"/>
</g>
<!-- LocationsGateway  -->
<g id="node3" class="node">
<title>LocationsGateway </title>
<polygon fill="#fb8072" stroke="black" points="369.46,-252 244.54,-252 244.54,-216 369.46,-216 369.46,-252"/>
<text text-anchor="middle" x="307" y="-229.8" font-family="Times,serif" font-size="14.00">LocationsGateway </text>
</g>
<!-- LocationsModule&#45;&gt;LocationsGateway  -->
<g id="edge2" class="edge">
<title>LocationsModule&#45;&gt;LocationsGateway </title>
<path fill="none" stroke="black" stroke-dasharray="5,2" d="M234.86,-187.11C234.86,-206.34 234.86,-234 234.86,-234 234.86,-234 235.83,-234 235.83,-234"/>
<polygon fill="black" stroke="black" points="234.59,-237.5 244.59,-234 234.59,-230.5 234.59,-237.5"/>
</g>
<!-- LocationsService  -->
<g id="node4" class="node">
<title>LocationsService </title>
<polygon fill="#fb8072" stroke="black" points="226.19,-252 109.81,-252 109.81,-216 226.19,-216 226.19,-252"/>
<text text-anchor="middle" x="168" y="-229.8" font-family="Times,serif" font-size="14.00">LocationsService </text>
</g>
<!-- LocationsModule&#45;&gt;LocationsService  -->
<g id="edge3" class="edge">
<title>LocationsModule&#45;&gt;LocationsService </title>
<path fill="none" stroke="black" stroke-dasharray="5,2" d="M177.48,-187.11C177.48,-187.11 177.48,-205.99 177.48,-205.99"/>
<polygon fill="black" stroke="black" points="173.98,-205.99 177.48,-215.99 180.98,-205.99 173.98,-205.99"/>
</g>
<!-- LocationsService -->
<g id="node5" class="node">
<title>LocationsService</title>
<ellipse fill="#fdb462" stroke="black" cx="170" cy="-104" rx="78.15" ry="18"/>
<text text-anchor="middle" x="170" y="-99.8" font-family="Times,serif" font-size="14.00">LocationsService</text>
</g>
<!-- LocationsService&#45;&gt;LocationsModule -->
<g id="edge4" class="edge">
<title>LocationsService&#45;&gt;LocationsModule</title>
<path fill="none" stroke="black" d="M186,-121.76C186,-121.76 186,-140.81 186,-140.81"/>
<polygon fill="black" stroke="black" points="182.5,-140.81 186,-150.81 189.5,-140.81 182.5,-140.81"/>
</g>
</g>
</svg>
