<?xml version="1.0" encoding="UTF-8" standalone="no"?>
<!DOCTYPE svg PUBLIC "-//W3C//DTD SVG 1.1//EN"
 "http://www.w3.org/Graphics/SVG/1.1/DTD/svg11.dtd">
<!-- Generated by graphviz version 2.47.0 (20210316.0004)
 -->
<!-- Title: dependencies Pages: 1 -->
<svg width="504pt" height="284pt"
 viewBox="0.00 0.00 504.00 284.00" xmlns="http://www.w3.org/2000/svg" xmlns:xlink="http://www.w3.org/1999/xlink">
<g id="graph0" class="graph" transform="scale(1 1) rotate(0) translate(4 280)">
<title>dependencies</title>
<polygon fill="white" stroke="transparent" points="-4,4 -4,-280 500,-280 500,4 -4,4"/>
<text text-anchor="start" x="227.01" y="-42.4" font-family="Times-12" font-weight="bold" font-size="14.00">Legend</text>
<polygon fill="#ffffb3" stroke="transparent" points="14,-10 14,-30 34,-30 34,-10 14,-10"/>
<text text-anchor="start" x="37.63" y="-15.4" font-family="Times-12" font-size="14.00"> &#160;Declarations</text>
<polygon fill="#8dd3c7" stroke="transparent" points="127,-10 127,-30 147,-30 147,-10 127,-10"/>
<text text-anchor="start" x="150.73" y="-15.4" font-family="Times-12" font-size="14.00"> &#160;Module</text>
<polygon fill="#80b1d3" stroke="transparent" points="213,-10 213,-30 233,-30 233,-10 213,-10"/>
<text text-anchor="start" x="236.78" y="-15.4" font-family="Times-12" font-size="14.00"> &#160;Bootstrap</text>
<polygon fill="#fdb462" stroke="transparent" points="310,-10 310,-30 330,-30 330,-10 310,-10"/>
<text text-anchor="start" x="333.67" y="-15.4" font-family="Times-12" font-size="14.00"> &#160;Providers</text>
<polygon fill="#fb8072" stroke="transparent" points="406,-10 406,-30 426,-30 426,-10 406,-10"/>
<text text-anchor="start" x="429.73" y="-15.4" font-family="Times-12" font-size="14.00"> &#160;Exports</text>
<g id="clust1" class="cluster">
<title>cluster_LocationsModule</title>
<polygon fill="none" stroke="black" stroke-dasharray="1,5" points="76,-70 76,-268 420,-268 420,-70 76,-70"/>
</g>
<g id="clust4" class="cluster">
<title>cluster_LocationsModule_exports</title>
<polygon fill="none" stroke="black" points="99,-208 99,-260 374,-260 374,-208 99,-208"/>
</g>
<g id="clust6" class="cluster">
<title>cluster_LocationsModule_providers</title>
<polygon fill="none" stroke="black" points="240,-78 240,-130 412,-130 412,-78 240,-78"/>
</g>
<g id="clust3" class="cluster">
<title>cluster_LocationsModule_imports</title>
<polygon fill="none" stroke="black" points="84,-78 84,-130 232,-130 232,-78 84,-78"/>
</g>
<!-- LocationsDbModule -->
<g id="node1" class="node">
<title>LocationsDbModule</title>
<polygon fill="#8dd3c7" stroke="black" points="223.86,-122 220.86,-126 199.86,-126 196.86,-122 92.14,-122 92.14,-86 223.86,-86 223.86,-122"/>
<text text-anchor="middle" x="158" y="-99.8" font-family="Times,serif" font-size="14.00">LocationsDbModule</text>
</g>
<!-- LocationsModule -->
<g id="node2" class="node">
<title>LocationsModule</title>
<polygon fill="#8dd3c7" stroke="black" points="237.26,-187 234.26,-191 213.26,-191 210.26,-187 122.74,-187 122.74,-151 237.26,-151 237.26,-187"/>
<text text-anchor="middle" x="180" y="-164.8" font-family="Times,serif" font-size="14.00">LocationsModule</text>
</g>
<!-- LocationsDbModule&#45;&gt;LocationsModule -->
<g id="edge1" class="edge">
<title>LocationsDbModule&#45;&gt;LocationsModule</title>
<path fill="none" stroke="black" d="M173.28,-122.11C173.28,-122.11 173.28,-140.99 173.28,-140.99"/>
<polygon fill="black" stroke="black" points="169.78,-140.99 173.28,-150.99 176.78,-140.99 169.78,-140.99"/>
</g>
<!-- LocationsGateway  -->
<g id="node3" class="node">
<title>LocationsGateway </title>
<polygon fill="#fb8072" stroke="black" points="366.46,-252 241.54,-252 241.54,-216 366.46,-216 366.46,-252"/>
<text text-anchor="middle" x="304" y="-229.8" font-family="Times,serif" font-size="14.00">LocationsGateway </text>
</g>
<!-- LocationsModule&#45;&gt;LocationsGateway  -->
<g id="edge2" class="edge">
<title>LocationsModule&#45;&gt;LocationsGateway </title>
<path fill="none" stroke="black" stroke-dasharray="5,2" d="M230.36,-187.11C230.36,-206.34 230.36,-234 230.36,-234 230.36,-234 231.54,-234 231.54,-234"/>
<polygon fill="black" stroke="black" points="231.54,-237.5 241.54,-234 231.54,-230.5 231.54,-237.5"/>
</g>
<!-- LocationsService  -->
<g id="node4" class="node">
<title>LocationsService </title>
<polygon fill="#fb8072" stroke="black" points="223.19,-252 106.81,-252 106.81,-216 223.19,-216 223.19,-252"/>
<text text-anchor="middle" x="165" y="-229.8" font-family="Times,serif" font-size="14.00">LocationsService </text>
</g>
<!-- LocationsModule&#45;&gt;LocationsService  -->
<g id="edge3" class="edge">
<title>LocationsModule&#45;&gt;LocationsService </title>
<path fill="none" stroke="black" stroke-dasharray="5,2" d="M172.98,-187.11C172.98,-187.11 172.98,-205.99 172.98,-205.99"/>
<polygon fill="black" stroke="black" points="169.48,-205.99 172.98,-215.99 176.48,-205.99 169.48,-205.99"/>
</g>
<!-- LocationsService -->
<g id="node5" class="node">
<title>LocationsService</title>
<ellipse fill="#fdb462" stroke="black" cx="326" cy="-104" rx="78.15" ry="18"/>
<text text-anchor="middle" x="326" y="-99.8" font-family="Times,serif" font-size="14.00">LocationsService</text>
</g>
<!-- LocationsService&#45;&gt;LocationsModule -->
<g id="edge4" class="edge">
<title>LocationsService&#45;&gt;LocationsModule</title>
<path fill="none" stroke="black" d="M247.7,-104C237.58,-104 230.66,-104 230.66,-104 230.66,-104 230.66,-140.89 230.66,-140.89"/>
<polygon fill="black" stroke="black" points="227.16,-140.89 230.66,-150.89 234.16,-140.89 227.16,-140.89"/>
</g>
</g>
</svg>
