<?xml version="1.0" encoding="UTF-8" standalone="no"?>
<!DOCTYPE svg PUBLIC "-//W3C//DTD SVG 1.1//EN"
 "http://www.w3.org/Graphics/SVG/1.1/DTD/svg11.dtd">
<!-- Generated by graphviz version 2.47.0 (20210316.0004)
 -->
<!-- Title: dependencies Pages: 1 -->
<svg width="504pt" height="284pt"
 viewBox="0.00 0.00 504.00 284.00" xmlns="http://www.w3.org/2000/svg" xmlns:xlink="http://www.w3.org/1999/xlink">
<g id="graph0" class="graph" transform="scale(1 1) rotate(0) translate(4 280)">
<title>dependencies</title>
<polygon fill="white" stroke="transparent" points="-4,4 -4,-280 500,-280 500,4 -4,4"/>
<text text-anchor="start" x="227.01" y="-42.4" font-family="Times-12" font-weight="bold" font-size="14.00">Legend</text>
<polygon fill="#ffffb3" stroke="transparent" points="14,-10 14,-30 34,-30 34,-10 14,-10"/>
<text text-anchor="start" x="37.63" y="-15.4" font-family="Times-12" font-size="14.00"> &#160;Declarations</text>
<polygon fill="#8dd3c7" stroke="transparent" points="127,-10 127,-30 147,-30 147,-10 127,-10"/>
<text text-anchor="start" x="150.73" y="-15.4" font-family="Times-12" font-size="14.00"> &#160;Module</text>
<polygon fill="#80b1d3" stroke="transparent" points="213,-10 213,-30 233,-30 233,-10 213,-10"/>
<text text-anchor="start" x="236.78" y="-15.4" font-family="Times-12" font-size="14.00"> &#160;Bootstrap</text>
<polygon fill="#fdb462" stroke="transparent" points="310,-10 310,-30 330,-30 330,-10 310,-10"/>
<text text-anchor="start" x="333.67" y="-15.4" font-family="Times-12" font-size="14.00"> &#160;Providers</text>
<polygon fill="#fb8072" stroke="transparent" points="406,-10 406,-30 426,-30 426,-10 406,-10"/>
<text text-anchor="start" x="429.73" y="-15.4" font-family="Times-12" font-size="14.00"> &#160;Exports</text>
<g id="clust1" class="cluster">
<title>cluster_RatingsModule</title>
<polygon fill="none" stroke="black" stroke-dasharray="1,5" points="96,-70 96,-268 400,-268 400,-70 96,-70"/>
</g>
<g id="clust4" class="cluster">
<title>cluster_RatingsModule_exports</title>
<polygon fill="none" stroke="black" points="181,-208 181,-260 301,-260 301,-208 181,-208"/>
</g>
<g id="clust6" class="cluster">
<title>cluster_RatingsModule_providers</title>
<polygon fill="none" stroke="black" points="238,-78 238,-130 392,-130 392,-78 238,-78"/>
</g>
<g id="clust3" class="cluster">
<title>cluster_RatingsModule_imports</title>
<polygon fill="none" stroke="black" points="104,-78 104,-130 230,-130 230,-78 104,-78"/>
</g>
<!-- DatabaseModule -->
<g id="node1" class="node">
<title>DatabaseModule</title>
<polygon fill="#8dd3c7" stroke="black" points="222.35,-122 219.35,-126 198.35,-126 195.35,-122 111.65,-122 111.65,-86 222.35,-86 222.35,-122"/>
<text text-anchor="middle" x="167" y="-99.8" font-family="Times,serif" font-size="14.00">DatabaseModule</text>
</g>
<!-- RatingsModule -->
<g id="node2" class="node">
<title>RatingsModule</title>
<polygon fill="#8dd3c7" stroke="black" points="292.33,-187 289.33,-191 268.33,-191 265.33,-187 189.67,-187 189.67,-151 292.33,-151 292.33,-187"/>
<text text-anchor="middle" x="241" y="-164.8" font-family="Times,serif" font-size="14.00">RatingsModule</text>
</g>
<!-- DatabaseModule&#45;&gt;RatingsModule -->
<g id="edge1" class="edge">
<title>DatabaseModule&#45;&gt;RatingsModule</title>
<path fill="none" stroke="black" d="M206.13,-122.11C206.13,-122.11 206.13,-140.99 206.13,-140.99"/>
<polygon fill="black" stroke="black" points="202.63,-140.99 206.13,-150.99 209.63,-140.99 202.63,-140.99"/>
</g>
<!-- RatingsService  -->
<g id="node3" class="node">
<title>RatingsService </title>
<polygon fill="#fb8072" stroke="black" points="293.25,-252 188.75,-252 188.75,-216 293.25,-216 293.25,-252"/>
<text text-anchor="middle" x="241" y="-229.8" font-family="Times,serif" font-size="14.00">RatingsService </text>
</g>
<!-- RatingsModule&#45;&gt;RatingsService  -->
<g id="edge2" class="edge">
<title>RatingsModule&#45;&gt;RatingsService </title>
<path fill="none" stroke="black" stroke-dasharray="5,2" d="M241,-187.11C241,-187.11 241,-205.99 241,-205.99"/>
<polygon fill="black" stroke="black" points="237.5,-205.99 241,-215.99 244.5,-205.99 237.5,-205.99"/>
</g>
<!-- RatingsService -->
<g id="node4" class="node">
<title>RatingsService</title>
<ellipse fill="#fdb462" stroke="black" cx="315" cy="-104" rx="69.5" ry="18"/>
<text text-anchor="middle" x="315" y="-99.8" font-family="Times,serif" font-size="14.00">RatingsService</text>
</g>
<!-- RatingsService&#45;&gt;RatingsModule -->
<g id="edge3" class="edge">
<title>RatingsService&#45;&gt;RatingsModule</title>
<path fill="none" stroke="black" d="M268.83,-117.47C268.83,-117.47 268.83,-140.86 268.83,-140.86"/>
<polygon fill="black" stroke="black" points="265.33,-140.86 268.83,-150.86 272.33,-140.86 265.33,-140.86"/>
</g>
</g>
</svg>
