<?xml version="1.0" encoding="UTF-8" standalone="no"?>
<!DOCTYPE svg PUBLIC "-//W3C//DTD SVG 1.1//EN"
 "http://www.w3.org/Graphics/SVG/1.1/DTD/svg11.dtd">
<!-- Generated by graphviz version 2.47.0 (20210316.0004)
 -->
<!-- Title: dependencies Pages: 1 -->
<svg width="504pt" height="284pt"
 viewBox="0.00 0.00 504.00 284.00" xmlns="http://www.w3.org/2000/svg" xmlns:xlink="http://www.w3.org/1999/xlink">
<g id="graph0" class="graph" transform="scale(1 1) rotate(0) translate(4 280)">
<title>dependencies</title>
<polygon fill="white" stroke="transparent" points="-4,4 -4,-280 500,-280 500,4 -4,4"/>
<text text-anchor="start" x="227.01" y="-42.4" font-family="Times-12" font-weight="bold" font-size="14.00">Legend</text>
<polygon fill="#ffffb3" stroke="transparent" points="14,-10 14,-30 34,-30 34,-10 14,-10"/>
<text text-anchor="start" x="37.63" y="-15.4" font-family="Times-12" font-size="14.00"> &#160;Declarations</text>
<polygon fill="#8dd3c7" stroke="transparent" points="127,-10 127,-30 147,-30 147,-10 127,-10"/>
<text text-anchor="start" x="150.73" y="-15.4" font-family="Times-12" font-size="14.00"> &#160;Module</text>
<polygon fill="#80b1d3" stroke="transparent" points="213,-10 213,-30 233,-30 233,-10 213,-10"/>
<text text-anchor="start" x="236.78" y="-15.4" font-family="Times-12" font-size="14.00"> &#160;Bootstrap</text>
<polygon fill="#fdb462" stroke="transparent" points="310,-10 310,-30 330,-30 330,-10 310,-10"/>
<text text-anchor="start" x="333.67" y="-15.4" font-family="Times-12" font-size="14.00"> &#160;Providers</text>
<polygon fill="#fb8072" stroke="transparent" points="406,-10 406,-30 426,-30 426,-10 406,-10"/>
<text text-anchor="start" x="429.73" y="-15.4" font-family="Times-12" font-size="14.00"> &#160;Exports</text>
<g id="clust1" class="cluster">
<title>cluster_RatingsModule</title>
<polygon fill="none" stroke="black" stroke-dasharray="1,5" points="91,-70 91,-268 405,-268 405,-70 91,-70"/>
</g>
<g id="clust6" class="cluster">
<title>cluster_RatingsModule_providers</title>
<polygon fill="none" stroke="black" points="243,-78 243,-130 397,-130 397,-78 243,-78"/>
</g>
<g id="clust4" class="cluster">
<title>cluster_RatingsModule_exports</title>
<polygon fill="none" stroke="black" points="183,-208 183,-260 303,-260 303,-208 183,-208"/>
</g>
<g id="clust3" class="cluster">
<title>cluster_RatingsModule_imports</title>
<polygon fill="none" stroke="black" points="99,-78 99,-130 235,-130 235,-78 99,-78"/>
</g>
<!-- RatingsDbModule -->
<g id="node1" class="node">
<title>RatingsDbModule</title>
<polygon fill="#8dd3c7" stroke="black" points="226.93,-122 223.93,-126 202.93,-126 199.93,-122 107.07,-122 107.07,-86 226.93,-86 226.93,-122"/>
<text text-anchor="middle" x="167" y="-99.8" font-family="Times,serif" font-size="14.00">RatingsDbModule</text>
</g>
<!-- RatingsModule -->
<g id="node2" class="node">
<title>RatingsModule</title>
<polygon fill="#8dd3c7" stroke="black" points="294.33,-187 291.33,-191 270.33,-191 267.33,-187 191.67,-187 191.67,-151 294.33,-151 294.33,-187"/>
<text text-anchor="middle" x="243" y="-164.8" font-family="Times,serif" font-size="14.00">RatingsModule</text>
</g>
<!-- RatingsDbModule&#45;&gt;RatingsModule -->
<g id="edge1" class="edge">
<title>RatingsDbModule&#45;&gt;RatingsModule</title>
<path fill="none" stroke="black" d="M209.28,-122.11C209.28,-122.11 209.28,-140.99 209.28,-140.99"/>
<polygon fill="black" stroke="black" points="205.78,-140.99 209.28,-150.99 212.78,-140.99 205.78,-140.99"/>
</g>
<!-- RatingsService  -->
<g id="node3" class="node">
<title>RatingsService </title>
<polygon fill="#fb8072" stroke="black" points="295.25,-252 190.75,-252 190.75,-216 295.25,-216 295.25,-252"/>
<text text-anchor="middle" x="243" y="-229.8" font-family="Times,serif" font-size="14.00">RatingsService </text>
</g>
<!-- RatingsModule&#45;&gt;RatingsService  -->
<g id="edge2" class="edge">
<title>RatingsModule&#45;&gt;RatingsService </title>
<path fill="none" stroke="black" stroke-dasharray="5,2" d="M243,-187.11C243,-187.11 243,-205.99 243,-205.99"/>
<polygon fill="black" stroke="black" points="239.5,-205.99 243,-215.99 246.5,-205.99 239.5,-205.99"/>
</g>
<!-- RatingsService -->
<g id="node4" class="node">
<title>RatingsService</title>
<ellipse fill="#fdb462" stroke="black" cx="320" cy="-104" rx="69.5" ry="18"/>
<text text-anchor="middle" x="320" y="-99.8" font-family="Times,serif" font-size="14.00">RatingsService</text>
</g>
<!-- RatingsService&#45;&gt;RatingsModule -->
<g id="edge3" class="edge">
<title>RatingsService&#45;&gt;RatingsModule</title>
<path fill="none" stroke="black" d="M272.33,-117.15C272.33,-117.15 272.33,-140.69 272.33,-140.69"/>
<polygon fill="black" stroke="black" points="268.83,-140.69 272.33,-150.69 275.83,-140.69 268.83,-140.69"/>
</g>
</g>
</svg>
