<?xml version="1.0" encoding="UTF-8" standalone="no"?>
<!DOCTYPE svg PUBLIC "-//W3C//DTD SVG 1.1//EN"
 "http://www.w3.org/Graphics/SVG/1.1/DTD/svg11.dtd">
<!-- Generated by graphviz version 2.47.0 (20210316.0004)
 -->
<!-- Title: dependencies Pages: 1 -->
<svg width="655pt" height="211pt"
 viewBox="0.00 0.00 655.00 211.00" xmlns="http://www.w3.org/2000/svg" xmlns:xlink="http://www.w3.org/1999/xlink">
<g id="graph0" class="graph" transform="scale(1 1) rotate(0) translate(4 207)">
<title>dependencies</title>
<polygon fill="white" stroke="transparent" points="-4,4 -4,-207 651,-207 651,4 -4,4"/>
<text text-anchor="start" x="302.51" y="-42.4" font-family="Times-12" font-weight="bold" font-size="14.00">Legend</text>
<polygon fill="#ffffb3" stroke="transparent" points="89.5,-10 89.5,-30 109.5,-30 109.5,-10 89.5,-10"/>
<text text-anchor="start" x="113.13" y="-15.4" font-family="Times-12" font-size="14.00"> &#160;Declarations</text>
<polygon fill="#8dd3c7" stroke="transparent" points="202.5,-10 202.5,-30 222.5,-30 222.5,-10 202.5,-10"/>
<text text-anchor="start" x="226.23" y="-15.4" font-family="Times-12" font-size="14.00"> &#160;Module</text>
<polygon fill="#80b1d3" stroke="transparent" points="288.5,-10 288.5,-30 308.5,-30 308.5,-10 288.5,-10"/>
<text text-anchor="start" x="312.28" y="-15.4" font-family="Times-12" font-size="14.00"> &#160;Bootstrap</text>
<polygon fill="#fdb462" stroke="transparent" points="385.5,-10 385.5,-30 405.5,-30 405.5,-10 385.5,-10"/>
<text text-anchor="start" x="409.17" y="-15.4" font-family="Times-12" font-size="14.00"> &#160;Providers</text>
<polygon fill="#fb8072" stroke="transparent" points="481.5,-10 481.5,-30 501.5,-30 501.5,-10 481.5,-10"/>
<text text-anchor="start" x="505.23" y="-15.4" font-family="Times-12" font-size="14.00"> &#160;Exports</text>
<g id="clust1" class="cluster">
<title>cluster_AppModule</title>
<polygon fill="none" stroke="black" stroke-dasharray="1,5" points="8,-70 8,-195 639,-195 639,-70 8,-70"/>
</g>
<g id="clust3" class="cluster">
<title>cluster_AppModule_imports</title>
<polygon fill="none" stroke="black" points="252,-78 252,-130 631,-130 631,-78 252,-78"/>
</g>
<g id="clust6" class="cluster">
<title>cluster_AppModule_providers</title>
<polygon fill="none" stroke="black" points="16,-78 16,-130 244,-130 244,-78 16,-78"/>
</g>
<!-- ApiModule -->
<g id="node1" class="node">
<title>ApiModule</title>
<polygon fill="#8dd3c7" stroke="black" points="623.05,-122 620.05,-126 599.05,-126 596.05,-122 542.95,-122 542.95,-86 623.05,-86 623.05,-122"/>
<text text-anchor="middle" x="583" y="-99.8" font-family="Times,serif" font-size="14.00">ApiModule</text>
</g>
<!-- AppModule -->
<g id="node4" class="node">
<title>AppModule</title>
<polygon fill="#8dd3c7" stroke="black" points="439.66,-187 436.66,-191 415.66,-191 412.66,-187 356.34,-187 356.34,-151 439.66,-151 439.66,-187"/>
<text text-anchor="middle" x="398" y="-164.8" font-family="Times,serif" font-size="14.00">AppModule</text>
</g>
<!-- ApiModule&#45;&gt;AppModule -->
<g id="edge1" class="edge">
<title>ApiModule&#45;&gt;AppModule</title>
<path fill="none" stroke="black" d="M583,-122.11C583,-141.34 583,-169 583,-169 583,-169 449.98,-169 449.98,-169"/>
<polygon fill="black" stroke="black" points="449.98,-165.5 439.98,-169 449.98,-172.5 449.98,-165.5"/>
</g>
<!-- DatabaseModule -->
<g id="node2" class="node">
<title>DatabaseModule</title>
<polygon fill="#8dd3c7" stroke="black" points="524.35,-122 521.35,-126 500.35,-126 497.35,-122 413.65,-122 413.65,-86 524.35,-86 524.35,-122"/>
<text text-anchor="middle" x="469" y="-99.8" font-family="Times,serif" font-size="14.00">DatabaseModule</text>
</g>
<!-- DatabaseModule&#45;&gt;AppModule -->
<g id="edge2" class="edge">
<title>DatabaseModule&#45;&gt;AppModule</title>
<path fill="none" stroke="black" d="M426.7,-122.11C426.7,-122.11 426.7,-140.99 426.7,-140.99"/>
<polygon fill="black" stroke="black" points="423.2,-140.99 426.7,-150.99 430.2,-140.99 423.2,-140.99"/>
</g>
<!-- ObservabilityModule -->
<g id="node3" class="node">
<title>ObservabilityModule</title>
<polygon fill="#8dd3c7" stroke="black" points="395.75,-122 392.75,-126 371.75,-126 368.75,-122 260.25,-122 260.25,-86 395.75,-86 395.75,-122"/>
<text text-anchor="middle" x="328" y="-99.8" font-family="Times,serif" font-size="14.00">ObservabilityModule</text>
</g>
<!-- ObservabilityModule&#45;&gt;AppModule -->
<g id="edge3" class="edge">
<title>ObservabilityModule&#45;&gt;AppModule</title>
<path fill="none" stroke="black" d="M376.02,-122.11C376.02,-122.11 376.02,-140.99 376.02,-140.99"/>
<polygon fill="black" stroke="black" points="372.52,-140.99 376.02,-150.99 379.52,-140.99 372.52,-140.99"/>
</g>
<!-- ObservabilityInterceptor -->
<g id="node5" class="node">
<title>ObservabilityInterceptor</title>
<ellipse fill="#fdb462" stroke="black" cx="130" cy="-104" rx="105.92" ry="18"/>
<text text-anchor="middle" x="130" y="-99.8" font-family="Times,serif" font-size="14.00">ObservabilityInterceptor</text>
</g>
<!-- ObservabilityInterceptor&#45;&gt;AppModule -->
<g id="edge4" class="edge">
<title>ObservabilityInterceptor&#45;&gt;AppModule</title>
<path fill="none" stroke="black" d="M130,-122.11C130,-141.34 130,-169 130,-169 130,-169 346.12,-169 346.12,-169"/>
<polygon fill="black" stroke="black" points="346.13,-172.5 356.12,-169 346.12,-165.5 346.13,-172.5"/>
</g>
</g>
</svg>
