<?xml version="1.0" encoding="UTF-8" standalone="no"?>
<!DOCTYPE svg PUBLIC "-//W3C//DTD SVG 1.1//EN"
 "http://www.w3.org/Graphics/SVG/1.1/DTD/svg11.dtd">
<!-- Generated by graphviz version 2.47.0 (20210316.0004)
 -->
<!-- Title: dependencies Pages: 1 -->
<svg width="1403pt" height="284pt"
 viewBox="0.00 0.00 1403.00 284.00" xmlns="http://www.w3.org/2000/svg" xmlns:xlink="http://www.w3.org/1999/xlink">
<g id="graph0" class="graph" transform="scale(1 1) rotate(0) translate(4 280)">
<title>dependencies</title>
<polygon fill="white" stroke="transparent" points="-4,4 -4,-280 1399,-280 1399,4 -4,4"/>
<text text-anchor="start" x="676.51" y="-42.4" font-family="Times-12" font-weight="bold" font-size="14.00">Legend</text>
<polygon fill="#ffffb3" stroke="transparent" points="463.5,-10 463.5,-30 483.5,-30 483.5,-10 463.5,-10"/>
<text text-anchor="start" x="487.13" y="-15.4" font-family="Times-12" font-size="14.00"> &#160;Declarations</text>
<polygon fill="#8dd3c7" stroke="transparent" points="576.5,-10 576.5,-30 596.5,-30 596.5,-10 576.5,-10"/>
<text text-anchor="start" x="600.23" y="-15.4" font-family="Times-12" font-size="14.00"> &#160;Module</text>
<polygon fill="#80b1d3" stroke="transparent" points="662.5,-10 662.5,-30 682.5,-30 682.5,-10 662.5,-10"/>
<text text-anchor="start" x="686.28" y="-15.4" font-family="Times-12" font-size="14.00"> &#160;Bootstrap</text>
<polygon fill="#fdb462" stroke="transparent" points="759.5,-10 759.5,-30 779.5,-30 779.5,-10 759.5,-10"/>
<text text-anchor="start" x="783.17" y="-15.4" font-family="Times-12" font-size="14.00"> &#160;Providers</text>
<polygon fill="#fb8072" stroke="transparent" points="855.5,-10 855.5,-30 875.5,-30 875.5,-10 855.5,-10"/>
<text text-anchor="start" x="879.23" y="-15.4" font-family="Times-12" font-size="14.00"> &#160;Exports</text>
<g id="clust1" class="cluster">
<title>cluster_RolesPermissionDBModule</title>
<polygon fill="none" stroke="black" stroke-dasharray="1,5" points="8,-70 8,-268 1387,-268 1387,-70 8,-70"/>
</g>
<g id="clust4" class="cluster">
<title>cluster_RolesPermissionDBModule_exports</title>
<polygon fill="none" stroke="black" points="196,-208 196,-260 1035,-260 1035,-208 196,-208"/>
</g>
<g id="clust6" class="cluster">
<title>cluster_RolesPermissionDBModule_providers</title>
<polygon fill="none" stroke="black" points="279,-78 279,-130 1379,-130 1379,-78 279,-78"/>
</g>
<g id="clust3" class="cluster">
<title>cluster_RolesPermissionDBModule_imports</title>
<polygon fill="none" stroke="black" points="16,-78 16,-130 271,-130 271,-78 16,-78"/>
</g>
<!-- DatabaseModule -->
<g id="node1" class="node">
<title>DatabaseModule</title>
<polygon fill="#8dd3c7" stroke="black" points="263.35,-122 260.35,-126 239.35,-126 236.35,-122 152.65,-122 152.65,-86 263.35,-86 263.35,-122"/>
<text text-anchor="middle" x="208" y="-99.8" font-family="Times,serif" font-size="14.00">DatabaseModule</text>
</g>
<!-- RolesPermissionDBModule -->
<g id="node3" class="node">
<title>RolesPermissionDBModule</title>
<polygon fill="#8dd3c7" stroke="black" points="697.6,-187 694.6,-191 673.6,-191 670.6,-187 524.4,-187 524.4,-151 697.6,-151 697.6,-187"/>
<text text-anchor="middle" x="611" y="-164.8" font-family="Times,serif" font-size="14.00">RolesPermissionDBModule</text>
</g>
<!-- DatabaseModule&#45;&gt;RolesPermissionDBModule -->
<g id="edge1" class="edge">
<title>DatabaseModule&#45;&gt;RolesPermissionDBModule</title>
<path fill="none" stroke="black" d="M233.9,-122.27C233.9,-140.56 233.9,-166 233.9,-166 233.9,-166 514.01,-166 514.01,-166"/>
<polygon fill="black" stroke="black" points="514.01,-169.5 524.01,-166 514.01,-162.5 514.01,-169.5"/>
</g>
<!-- UsersDBModule -->
<g id="node2" class="node">
<title>UsersDBModule</title>
<polygon fill="#8dd3c7" stroke="black" points="134.36,-122 131.36,-126 110.36,-126 107.36,-122 23.64,-122 23.64,-86 134.36,-86 134.36,-122"/>
<text text-anchor="middle" x="79" y="-99.8" font-family="Times,serif" font-size="14.00">UsersDBModule</text>
</g>
<!-- UsersDBModule&#45;&gt;RolesPermissionDBModule -->
<g id="edge2" class="edge">
<title>UsersDBModule&#45;&gt;RolesPermissionDBModule</title>
<path fill="none" stroke="black" d="M79,-122.13C79,-142.57 79,-173 79,-173 79,-173 514.34,-173 514.34,-173"/>
<polygon fill="black" stroke="black" points="514.34,-176.5 524.34,-173 514.34,-169.5 514.34,-176.5"/>
</g>
<!-- PermissionsDBService  -->
<g id="node4" class="node">
<title>PermissionsDBService </title>
<polygon fill="#fb8072" stroke="black" points="1027.08,-252 878.92,-252 878.92,-216 1027.08,-216 1027.08,-252"/>
<text text-anchor="middle" x="953" y="-229.8" font-family="Times,serif" font-size="14.00">PermissionsDBService </text>
</g>
<!-- RolesPermissionDBModule&#45;&gt;PermissionsDBService  -->
<g id="edge3" class="edge">
<title>RolesPermissionDBModule&#45;&gt;PermissionsDBService </title>
<path fill="none" stroke="black" stroke-dasharray="5,2" d="M697.68,-180C779.12,-180 888.55,-180 888.55,-180 888.55,-180 888.55,-205.72 888.55,-205.72"/>
<polygon fill="black" stroke="black" points="885.05,-205.72 888.55,-215.72 892.05,-205.72 885.05,-205.72"/>
</g>
<!-- RolePermissionsDBService  -->
<g id="node5" class="node">
<title>RolePermissionsDBService </title>
<polygon fill="#fb8072" stroke="black" points="860.53,-252 685.47,-252 685.47,-216 860.53,-216 860.53,-252"/>
<text text-anchor="middle" x="773" y="-229.8" font-family="Times,serif" font-size="14.00">RolePermissionsDBService </text>
</g>
<!-- RolesPermissionDBModule&#45;&gt;RolePermissionsDBService  -->
<g id="edge4" class="edge">
<title>RolesPermissionDBModule&#45;&gt;RolePermissionsDBService </title>
<path fill="none" stroke="black" stroke-dasharray="5,2" d="M691.52,-187.11C691.52,-187.11 691.52,-205.99 691.52,-205.99"/>
<polygon fill="black" stroke="black" points="688.02,-205.99 691.52,-215.99 695.02,-205.99 688.02,-205.99"/>
</g>
<!-- RolesDBService  -->
<g id="node6" class="node">
<title>RolesDBService </title>
<polygon fill="#fb8072" stroke="black" points="667.31,-252 554.69,-252 554.69,-216 667.31,-216 667.31,-252"/>
<text text-anchor="middle" x="611" y="-229.8" font-family="Times,serif" font-size="14.00">RolesDBService </text>
</g>
<!-- RolesPermissionDBModule&#45;&gt;RolesDBService  -->
<g id="edge5" class="edge">
<title>RolesPermissionDBModule&#45;&gt;RolesDBService </title>
<path fill="none" stroke="black" stroke-dasharray="5,2" d="M611,-187.11C611,-187.11 611,-205.99 611,-205.99"/>
<polygon fill="black" stroke="black" points="607.5,-205.99 611,-215.99 614.5,-205.99 607.5,-205.99"/>
</g>
<!-- UserPermissionsDBService  -->
<g id="node7" class="node">
<title>UserPermissionsDBService </title>
<polygon fill="#fb8072" stroke="black" points="536.51,-252 361.49,-252 361.49,-216 536.51,-216 536.51,-252"/>
<text text-anchor="middle" x="449" y="-229.8" font-family="Times,serif" font-size="14.00">UserPermissionsDBService </text>
</g>
<!-- RolesPermissionDBModule&#45;&gt;UserPermissionsDBService  -->
<g id="edge6" class="edge">
<title>RolesPermissionDBModule&#45;&gt;UserPermissionsDBService </title>
<path fill="none" stroke="black" stroke-dasharray="5,2" d="M530.48,-187.11C530.48,-187.11 530.48,-205.99 530.48,-205.99"/>
<polygon fill="black" stroke="black" points="526.98,-205.99 530.48,-215.99 533.98,-205.99 526.98,-205.99"/>
</g>
<!-- UserRolesDBService  -->
<g id="node8" class="node">
<title>UserRolesDBService </title>
<polygon fill="#fb8072" stroke="black" points="343.73,-252 204.27,-252 204.27,-216 343.73,-216 343.73,-252"/>
<text text-anchor="middle" x="274" y="-229.8" font-family="Times,serif" font-size="14.00">UserRolesDBService </text>
</g>
<!-- RolesPermissionDBModule&#45;&gt;UserRolesDBService  -->
<g id="edge7" class="edge">
<title>RolesPermissionDBModule&#45;&gt;UserRolesDBService </title>
<path fill="none" stroke="black" stroke-dasharray="5,2" d="M524.34,-180C437.14,-180 315.5,-180 315.5,-180 315.5,-180 315.5,-205.72 315.5,-205.72"/>
<polygon fill="black" stroke="black" points="312,-205.72 315.5,-215.72 319,-205.72 312,-205.72"/>
</g>
<!-- PermissionsDBService -->
<g id="node9" class="node">
<title>PermissionsDBService</title>
<ellipse fill="#fdb462" stroke="black" cx="1271" cy="-104" rx="100.15" ry="18"/>
<text text-anchor="middle" x="1271" y="-99.8" font-family="Times,serif" font-size="14.00">PermissionsDBService</text>
</g>
<!-- PermissionsDBService&#45;&gt;RolesPermissionDBModule -->
<g id="edge8" class="edge">
<title>PermissionsDBService&#45;&gt;RolesPermissionDBModule</title>
<path fill="none" stroke="black" d="M1271,-122.13C1271,-142.57 1271,-173 1271,-173 1271,-173 707.62,-173 707.62,-173"/>
<polygon fill="black" stroke="black" points="707.62,-169.5 697.62,-173 707.62,-176.5 707.62,-169.5"/>
</g>
<!-- RolePermissionsDBService -->
<g id="node10" class="node">
<title>RolePermissionsDBService</title>
<ellipse fill="#fdb462" stroke="black" cx="1035" cy="-104" rx="118.13" ry="18"/>
<text text-anchor="middle" x="1035" y="-99.8" font-family="Times,serif" font-size="14.00">RolePermissionsDBService</text>
</g>
<!-- RolePermissionsDBService&#45;&gt;RolesPermissionDBModule -->
<g id="edge9" class="edge">
<title>RolePermissionsDBService&#45;&gt;RolesPermissionDBModule</title>
<path fill="none" stroke="black" d="M971.99,-119.33C971.99,-137.69 971.99,-166 971.99,-166 971.99,-166 707.93,-166 707.93,-166"/>
<polygon fill="black" stroke="black" points="707.93,-162.5 697.93,-166 707.93,-169.5 707.93,-162.5"/>
</g>
<!-- RolesDBService -->
<g id="node11" class="node">
<title>RolesDBService</title>
<ellipse fill="#fdb462" stroke="black" cx="823" cy="-104" rx="75.3" ry="18"/>
<text text-anchor="middle" x="823" y="-99.8" font-family="Times,serif" font-size="14.00">RolesDBService</text>
</g>
<!-- RolesDBService&#45;&gt;RolesPermissionDBModule -->
<g id="edge10" class="edge">
<title>RolesDBService&#45;&gt;RolesPermissionDBModule</title>
<path fill="none" stroke="black" d="M804.06,-121.71C804.06,-137.78 804.06,-159 804.06,-159 804.06,-159 707.65,-159 707.65,-159"/>
<polygon fill="black" stroke="black" points="707.65,-155.5 697.65,-159 707.65,-162.5 707.65,-155.5"/>
</g>
<!-- UserPermissionsDBService -->
<g id="node12" class="node">
<title>UserPermissionsDBService</title>
<ellipse fill="#fdb462" stroke="black" cx="611" cy="-104" rx="118.11" ry="18"/>
<text text-anchor="middle" x="611" y="-99.8" font-family="Times,serif" font-size="14.00">UserPermissionsDBService</text>
</g>
<!-- UserPermissionsDBService&#45;&gt;RolesPermissionDBModule -->
<g id="edge11" class="edge">
<title>UserPermissionsDBService&#45;&gt;RolesPermissionDBModule</title>
<path fill="none" stroke="black" d="M611,-122.11C611,-122.11 611,-140.99 611,-140.99"/>
<polygon fill="black" stroke="black" points="607.5,-140.99 611,-150.99 614.5,-140.99 607.5,-140.99"/>
</g>
<!-- UserRolesDBService -->
<g id="node13" class="node">
<title>UserRolesDBService</title>
<ellipse fill="#fdb462" stroke="black" cx="381" cy="-104" rx="93.75" ry="18"/>
<text text-anchor="middle" x="381" y="-99.8" font-family="Times,serif" font-size="14.00">UserRolesDBService</text>
</g>
<!-- UserRolesDBService&#45;&gt;RolesPermissionDBModule -->
<g id="edge12" class="edge">
<title>UserRolesDBService&#45;&gt;RolesPermissionDBModule</title>
<path fill="none" stroke="black" d="M418.06,-120.8C418.06,-136.98 418.06,-159 418.06,-159 418.06,-159 514.41,-159 514.41,-159"/>
<polygon fill="black" stroke="black" points="514.41,-162.5 524.41,-159 514.41,-155.5 514.41,-162.5"/>
</g>
</g>
</svg>
