<?xml version="1.0" encoding="UTF-8" standalone="no"?>
<!DOCTYPE svg PUBLIC "-//W3C//DTD SVG 1.1//EN"
 "http://www.w3.org/Graphics/SVG/1.1/DTD/svg11.dtd">
<!-- Generated by graphviz version 2.47.0 (20210316.0004)
 -->
<!-- Title: dependencies Pages: 1 -->
<svg width="829pt" height="284pt"
 viewBox="0.00 0.00 829.00 284.00" xmlns="http://www.w3.org/2000/svg" xmlns:xlink="http://www.w3.org/1999/xlink">
<g id="graph0" class="graph" transform="scale(1 1) rotate(0) translate(4 280)">
<title>dependencies</title>
<polygon fill="white" stroke="transparent" points="-4,4 -4,-280 825,-280 825,4 -4,4"/>
<text text-anchor="start" x="389.51" y="-42.4" font-family="Times-12" font-weight="bold" font-size="14.00">Legend</text>
<polygon fill="#ffffb3" stroke="transparent" points="176.5,-10 176.5,-30 196.5,-30 196.5,-10 176.5,-10"/>
<text text-anchor="start" x="200.13" y="-15.4" font-family="Times-12" font-size="14.00"> &#160;Declarations</text>
<polygon fill="#8dd3c7" stroke="transparent" points="289.5,-10 289.5,-30 309.5,-30 309.5,-10 289.5,-10"/>
<text text-anchor="start" x="313.23" y="-15.4" font-family="Times-12" font-size="14.00"> &#160;Module</text>
<polygon fill="#80b1d3" stroke="transparent" points="375.5,-10 375.5,-30 395.5,-30 395.5,-10 375.5,-10"/>
<text text-anchor="start" x="399.28" y="-15.4" font-family="Times-12" font-size="14.00"> &#160;Bootstrap</text>
<polygon fill="#fdb462" stroke="transparent" points="472.5,-10 472.5,-30 492.5,-30 492.5,-10 472.5,-10"/>
<text text-anchor="start" x="496.17" y="-15.4" font-family="Times-12" font-size="14.00"> &#160;Providers</text>
<polygon fill="#fb8072" stroke="transparent" points="568.5,-10 568.5,-30 588.5,-30 588.5,-10 568.5,-10"/>
<text text-anchor="start" x="592.23" y="-15.4" font-family="Times-12" font-size="14.00"> &#160;Exports</text>
<g id="clust1" class="cluster">
<title>cluster_OnboardingModule</title>
<polygon fill="none" stroke="black" stroke-dasharray="1,5" points="8,-70 8,-268 813,-268 813,-70 8,-70"/>
</g>
<g id="clust6" class="cluster">
<title>cluster_OnboardingModule_providers</title>
<polygon fill="none" stroke="black" points="617,-78 617,-130 805,-130 805,-78 617,-78"/>
</g>
<g id="clust4" class="cluster">
<title>cluster_OnboardingModule_exports</title>
<polygon fill="none" stroke="black" points="308,-208 308,-260 452,-260 452,-208 308,-208"/>
</g>
<g id="clust3" class="cluster">
<title>cluster_OnboardingModule_imports</title>
<polygon fill="none" stroke="black" points="16,-78 16,-130 609,-130 609,-78 16,-78"/>
</g>
<!-- AuthModule -->
<g id="node1" class="node">
<title>AuthModule</title>
<polygon fill="#8dd3c7" stroke="black" points="600.55,-122 597.55,-126 576.55,-126 573.55,-122 513.45,-122 513.45,-86 600.55,-86 600.55,-122"/>
<text text-anchor="middle" x="557" y="-99.8" font-family="Times,serif" font-size="14.00">AuthModule</text>
</g>
<!-- OnboardingModule -->
<g id="node6" class="node">
<title>OnboardingModule</title>
<polygon fill="#8dd3c7" stroke="black" points="443.42,-187 440.42,-191 419.42,-191 416.42,-187 316.58,-187 316.58,-151 443.42,-151 443.42,-187"/>
<text text-anchor="middle" x="380" y="-164.8" font-family="Times,serif" font-size="14.00">OnboardingModule</text>
</g>
<!-- AuthModule&#45;&gt;OnboardingModule -->
<g id="edge1" class="edge">
<title>AuthModule&#45;&gt;OnboardingModule</title>
<path fill="none" stroke="black" d="M557,-122.02C557,-139.37 557,-163 557,-163 557,-163 453.4,-163 453.4,-163"/>
<polygon fill="black" stroke="black" points="453.4,-159.5 443.4,-163 453.4,-166.5 453.4,-159.5"/>
</g>
<!-- DatabaseModule -->
<g id="node2" class="node">
<title>DatabaseModule</title>
<polygon fill="#8dd3c7" stroke="black" points="495.35,-122 492.35,-126 471.35,-126 468.35,-122 384.65,-122 384.65,-86 495.35,-86 495.35,-122"/>
<text text-anchor="middle" x="440" y="-99.8" font-family="Times,serif" font-size="14.00">DatabaseModule</text>
</g>
<!-- DatabaseModule&#45;&gt;OnboardingModule -->
<g id="edge2" class="edge">
<title>DatabaseModule&#45;&gt;OnboardingModule</title>
<path fill="none" stroke="black" d="M413.89,-122.11C413.89,-122.11 413.89,-140.99 413.89,-140.99"/>
<polygon fill="black" stroke="black" points="410.39,-140.99 413.89,-150.99 417.39,-140.99 410.39,-140.99"/>
</g>
<!-- EmailModule -->
<g id="node3" class="node">
<title>EmailModule</title>
<polygon fill="#8dd3c7" stroke="black" points="366.49,-122 363.49,-126 342.49,-126 339.49,-122 273.51,-122 273.51,-86 366.49,-86 366.49,-122"/>
<text text-anchor="middle" x="320" y="-99.8" font-family="Times,serif" font-size="14.00">EmailModule</text>
</g>
<!-- EmailModule&#45;&gt;OnboardingModule -->
<g id="edge3" class="edge">
<title>EmailModule&#45;&gt;OnboardingModule</title>
<path fill="none" stroke="black" d="M341.64,-122.11C341.64,-122.11 341.64,-140.99 341.64,-140.99"/>
<polygon fill="black" stroke="black" points="338.14,-140.99 341.64,-150.99 345.14,-140.99 338.14,-140.99"/>
</g>
<!-- StorageModule -->
<g id="node4" class="node">
<title>StorageModule</title>
<polygon fill="#8dd3c7" stroke="black" points="255.31,-122 252.31,-126 231.31,-126 228.31,-122 152.69,-122 152.69,-86 255.31,-86 255.31,-122"/>
<text text-anchor="middle" x="204" y="-99.8" font-family="Times,serif" font-size="14.00">StorageModule</text>
</g>
<!-- StorageModule&#45;&gt;OnboardingModule -->
<g id="edge4" class="edge">
<title>StorageModule&#45;&gt;OnboardingModule</title>
<path fill="none" stroke="black" d="M204,-122.02C204,-139.37 204,-163 204,-163 204,-163 306.46,-163 306.46,-163"/>
<polygon fill="black" stroke="black" points="306.46,-166.5 316.46,-163 306.46,-159.5 306.46,-166.5"/>
</g>
<!-- UsersDBModule -->
<g id="node5" class="node">
<title>UsersDBModule</title>
<polygon fill="#8dd3c7" stroke="black" points="134.36,-122 131.36,-126 110.36,-126 107.36,-122 23.64,-122 23.64,-86 134.36,-86 134.36,-122"/>
<text text-anchor="middle" x="79" y="-99.8" font-family="Times,serif" font-size="14.00">UsersDBModule</text>
</g>
<!-- UsersDBModule&#45;&gt;OnboardingModule -->
<g id="edge5" class="edge">
<title>UsersDBModule&#45;&gt;OnboardingModule</title>
<path fill="none" stroke="black" d="M79,-122.28C79,-143.32 79,-175 79,-175 79,-175 306.53,-175 306.53,-175"/>
<polygon fill="black" stroke="black" points="306.53,-178.5 316.53,-175 306.53,-171.5 306.53,-178.5"/>
</g>
<!-- OnboardingService  -->
<g id="node7" class="node">
<title>OnboardingService </title>
<polygon fill="#fb8072" stroke="black" points="444.35,-252 315.65,-252 315.65,-216 444.35,-216 444.35,-252"/>
<text text-anchor="middle" x="380" y="-229.8" font-family="Times,serif" font-size="14.00">OnboardingService </text>
</g>
<!-- OnboardingModule&#45;&gt;OnboardingService  -->
<g id="edge6" class="edge">
<title>OnboardingModule&#45;&gt;OnboardingService </title>
<path fill="none" stroke="black" stroke-dasharray="5,2" d="M380,-187.11C380,-187.11 380,-205.99 380,-205.99"/>
<polygon fill="black" stroke="black" points="376.5,-205.99 380,-215.99 383.5,-205.99 376.5,-205.99"/>
</g>
<!-- OnboardingService -->
<g id="node8" class="node">
<title>OnboardingService</title>
<ellipse fill="#fdb462" stroke="black" cx="711" cy="-104" rx="86.24" ry="18"/>
<text text-anchor="middle" x="711" y="-99.8" font-family="Times,serif" font-size="14.00">OnboardingService</text>
</g>
<!-- OnboardingService&#45;&gt;OnboardingModule -->
<g id="edge7" class="edge">
<title>OnboardingService&#45;&gt;OnboardingModule</title>
<path fill="none" stroke="black" d="M711,-122.28C711,-143.32 711,-175 711,-175 711,-175 453.43,-175 453.43,-175"/>
<polygon fill="black" stroke="black" points="453.43,-171.5 443.43,-175 453.43,-178.5 453.43,-171.5"/>
</g>
</g>
</svg>
