<?xml version="1.0" encoding="UTF-8" standalone="no"?>
<!DOCTYPE svg PUBLIC "-//W3C//DTD SVG 1.1//EN"
 "http://www.w3.org/Graphics/SVG/1.1/DTD/svg11.dtd">
<!-- Generated by graphviz version 2.47.0 (20210316.0004)
 -->
<!-- Title: dependencies Pages: 1 -->
<svg width="504pt" height="211pt"
 viewBox="0.00 0.00 504.00 211.00" xmlns="http://www.w3.org/2000/svg" xmlns:xlink="http://www.w3.org/1999/xlink">
<g id="graph0" class="graph" transform="scale(1 1) rotate(0) translate(4 207)">
<title>dependencies</title>
<polygon fill="white" stroke="transparent" points="-4,4 -4,-207 500,-207 500,4 -4,4"/>
<text text-anchor="start" x="227.01" y="-42.4" font-family="Times-12" font-weight="bold" font-size="14.00">Legend</text>
<polygon fill="#ffffb3" stroke="transparent" points="14,-10 14,-30 34,-30 34,-10 14,-10"/>
<text text-anchor="start" x="37.63" y="-15.4" font-family="Times-12" font-size="14.00"> &#160;Declarations</text>
<polygon fill="#8dd3c7" stroke="transparent" points="127,-10 127,-30 147,-30 147,-10 127,-10"/>
<text text-anchor="start" x="150.73" y="-15.4" font-family="Times-12" font-size="14.00"> &#160;Module</text>
<polygon fill="#80b1d3" stroke="transparent" points="213,-10 213,-30 233,-30 233,-10 213,-10"/>
<text text-anchor="start" x="236.78" y="-15.4" font-family="Times-12" font-size="14.00"> &#160;Bootstrap</text>
<polygon fill="#fdb462" stroke="transparent" points="310,-10 310,-30 330,-30 330,-10 310,-10"/>
<text text-anchor="start" x="333.67" y="-15.4" font-family="Times-12" font-size="14.00"> &#160;Providers</text>
<polygon fill="#fb8072" stroke="transparent" points="406,-10 406,-30 426,-30 426,-10 406,-10"/>
<text text-anchor="start" x="429.73" y="-15.4" font-family="Times-12" font-size="14.00"> &#160;Exports</text>
<g id="clust1" class="cluster">
<title>cluster_StorageApiModule</title>
<polygon fill="none" stroke="black" stroke-dasharray="1,5" points="20.5,-70 20.5,-195 475.5,-195 475.5,-70 20.5,-70"/>
</g>
<g id="clust6" class="cluster">
<title>cluster_StorageApiModule_providers</title>
<polygon fill="none" stroke="black" points="283.5,-78 283.5,-130 467.5,-130 467.5,-78 283.5,-78"/>
</g>
<g id="clust3" class="cluster">
<title>cluster_StorageApiModule_imports</title>
<polygon fill="none" stroke="black" points="28.5,-78 28.5,-130 275.5,-130 275.5,-78 28.5,-78"/>
</g>
<!-- DatabaseModule -->
<g id="node1" class="node">
<title>DatabaseModule</title>
<polygon fill="#8dd3c7" stroke="black" points="267.85,-122 264.85,-126 243.85,-126 240.85,-122 157.15,-122 157.15,-86 267.85,-86 267.85,-122"/>
<text text-anchor="middle" x="212.5" y="-99.8" font-family="Times,serif" font-size="14.00">DatabaseModule</text>
</g>
<!-- StorageApiModule -->
<g id="node3" class="node">
<title>StorageApiModule</title>
<polygon fill="#8dd3c7" stroke="black" points="274.31,-187 271.31,-191 250.31,-191 247.31,-187 150.69,-187 150.69,-151 274.31,-151 274.31,-187"/>
<text text-anchor="middle" x="212.5" y="-164.8" font-family="Times,serif" font-size="14.00">StorageApiModule</text>
</g>
<!-- DatabaseModule&#45;&gt;StorageApiModule -->
<g id="edge1" class="edge">
<title>DatabaseModule&#45;&gt;StorageApiModule</title>
<path fill="none" stroke="black" d="M212.5,-122.11C212.5,-122.11 212.5,-140.99 212.5,-140.99"/>
<polygon fill="black" stroke="black" points="209,-140.99 212.5,-150.99 216,-140.99 209,-140.99"/>
</g>
<!-- StorageModule -->
<g id="node2" class="node">
<title>StorageModule</title>
<polygon fill="#8dd3c7" stroke="black" points="138.81,-122 135.81,-126 114.81,-126 111.81,-122 36.19,-122 36.19,-86 138.81,-86 138.81,-122"/>
<text text-anchor="middle" x="87.5" y="-99.8" font-family="Times,serif" font-size="14.00">StorageModule</text>
</g>
<!-- StorageModule&#45;&gt;StorageApiModule -->
<g id="edge2" class="edge">
<title>StorageModule&#45;&gt;StorageApiModule</title>
<path fill="none" stroke="black" d="M87.5,-122.11C87.5,-141.34 87.5,-169 87.5,-169 87.5,-169 140.73,-169 140.73,-169"/>
<polygon fill="black" stroke="black" points="140.73,-172.5 150.73,-169 140.73,-165.5 140.73,-172.5"/>
</g>
<!-- StorageApiService -->
<g id="node4" class="node">
<title>StorageApiService</title>
<ellipse fill="#fdb462" stroke="black" cx="375.5" cy="-104" rx="83.95" ry="18"/>
<text text-anchor="middle" x="375.5" y="-99.8" font-family="Times,serif" font-size="14.00">StorageApiService</text>
</g>
<!-- StorageApiService&#45;&gt;StorageApiModule -->
<g id="edge3" class="edge">
<title>StorageApiService&#45;&gt;StorageApiModule</title>
<path fill="none" stroke="black" d="M375.5,-122.11C375.5,-141.34 375.5,-169 375.5,-169 375.5,-169 284.59,-169 284.59,-169"/>
<polygon fill="black" stroke="black" points="284.59,-165.5 274.59,-169 284.59,-172.5 284.59,-165.5"/>
</g>
</g>
</svg>
