<?xml version="1.0" encoding="UTF-8" standalone="no"?>
<!DOCTYPE svg PUBLIC "-//W3C//DTD SVG 1.1//EN"
 "http://www.w3.org/Graphics/SVG/1.1/DTD/svg11.dtd">
<!-- Generated by graphviz version 2.47.0 (20210316.0004)
 -->
<!-- Title: dependencies Pages: 1 -->
<svg width="677pt" height="284pt"
 viewBox="0.00 0.00 677.00 284.00" xmlns="http://www.w3.org/2000/svg" xmlns:xlink="http://www.w3.org/1999/xlink">
<g id="graph0" class="graph" transform="scale(1 1) rotate(0) translate(4 280)">
<title>dependencies</title>
<polygon fill="white" stroke="transparent" points="-4,4 -4,-280 673,-280 673,4 -4,4"/>
<text text-anchor="start" x="313.51" y="-42.4" font-family="Times-12" font-weight="bold" font-size="14.00">Legend</text>
<polygon fill="#ffffb3" stroke="transparent" points="100.5,-10 100.5,-30 120.5,-30 120.5,-10 100.5,-10"/>
<text text-anchor="start" x="124.13" y="-15.4" font-family="Times-12" font-size="14.00"> &#160;Declarations</text>
<polygon fill="#8dd3c7" stroke="transparent" points="213.5,-10 213.5,-30 233.5,-30 233.5,-10 213.5,-10"/>
<text text-anchor="start" x="237.23" y="-15.4" font-family="Times-12" font-size="14.00"> &#160;Module</text>
<polygon fill="#80b1d3" stroke="transparent" points="299.5,-10 299.5,-30 319.5,-30 319.5,-10 299.5,-10"/>
<text text-anchor="start" x="323.28" y="-15.4" font-family="Times-12" font-size="14.00"> &#160;Bootstrap</text>
<polygon fill="#fdb462" stroke="transparent" points="396.5,-10 396.5,-30 416.5,-30 416.5,-10 396.5,-10"/>
<text text-anchor="start" x="420.17" y="-15.4" font-family="Times-12" font-size="14.00"> &#160;Providers</text>
<polygon fill="#fb8072" stroke="transparent" points="492.5,-10 492.5,-30 512.5,-30 512.5,-10 492.5,-10"/>
<text text-anchor="start" x="516.23" y="-15.4" font-family="Times-12" font-size="14.00"> &#160;Exports</text>
<g id="clust1" class="cluster">
<title>cluster_UsersApiModule</title>
<polygon fill="none" stroke="black" stroke-dasharray="1,5" points="8,-70 8,-268 661,-268 661,-70 8,-70"/>
</g>
<g id="clust3" class="cluster">
<title>cluster_UsersApiModule_imports</title>
<polygon fill="none" stroke="black" points="398,-78 398,-130 653,-130 653,-78 398,-78"/>
</g>
<g id="clust4" class="cluster">
<title>cluster_UsersApiModule_exports</title>
<polygon fill="none" stroke="black" points="309,-208 309,-260 439,-260 439,-208 309,-208"/>
</g>
<g id="clust6" class="cluster">
<title>cluster_UsersApiModule_providers</title>
<polygon fill="none" stroke="black" points="16,-78 16,-130 390,-130 390,-78 16,-78"/>
</g>
<!-- DatabaseModule -->
<g id="node1" class="node">
<title>DatabaseModule</title>
<polygon fill="#8dd3c7" stroke="black" points="645.35,-122 642.35,-126 621.35,-126 618.35,-122 534.65,-122 534.65,-86 645.35,-86 645.35,-122"/>
<text text-anchor="middle" x="590" y="-99.8" font-family="Times,serif" font-size="14.00">DatabaseModule</text>
</g>
<!-- UsersApiModule -->
<g id="node3" class="node">
<title>UsersApiModule</title>
<polygon fill="#8dd3c7" stroke="black" points="430.42,-187 427.42,-191 406.42,-191 403.42,-187 317.58,-187 317.58,-151 430.42,-151 430.42,-187"/>
<text text-anchor="middle" x="374" y="-164.8" font-family="Times,serif" font-size="14.00">UsersApiModule</text>
</g>
<!-- DatabaseModule&#45;&gt;UsersApiModule -->
<g id="edge1" class="edge">
<title>DatabaseModule&#45;&gt;UsersApiModule</title>
<path fill="none" stroke="black" d="M590,-122.11C590,-141.34 590,-169 590,-169 590,-169 440.47,-169 440.47,-169"/>
<polygon fill="black" stroke="black" points="440.47,-165.5 430.47,-169 440.47,-172.5 440.47,-165.5"/>
</g>
<!-- UsersDBModule -->
<g id="node2" class="node">
<title>UsersDBModule</title>
<polygon fill="#8dd3c7" stroke="black" points="516.36,-122 513.36,-126 492.36,-126 489.36,-122 405.64,-122 405.64,-86 516.36,-86 516.36,-122"/>
<text text-anchor="middle" x="461" y="-99.8" font-family="Times,serif" font-size="14.00">UsersDBModule</text>
</g>
<!-- UsersDBModule&#45;&gt;UsersApiModule -->
<g id="edge2" class="edge">
<title>UsersDBModule&#45;&gt;UsersApiModule</title>
<path fill="none" stroke="black" d="M417.89,-122.11C417.89,-122.11 417.89,-140.99 417.89,-140.99"/>
<polygon fill="black" stroke="black" points="414.39,-140.99 417.89,-150.99 421.39,-140.99 414.39,-140.99"/>
</g>
<!-- UsersApiService  -->
<g id="node4" class="node">
<title>UsersApiService </title>
<polygon fill="#fb8072" stroke="black" points="431.35,-252 316.65,-252 316.65,-216 431.35,-216 431.35,-252"/>
<text text-anchor="middle" x="374" y="-229.8" font-family="Times,serif" font-size="14.00">UsersApiService </text>
</g>
<!-- UsersApiModule&#45;&gt;UsersApiService  -->
<g id="edge3" class="edge">
<title>UsersApiModule&#45;&gt;UsersApiService </title>
<path fill="none" stroke="black" stroke-dasharray="5,2" d="M374,-187.11C374,-187.11 374,-205.99 374,-205.99"/>
<polygon fill="black" stroke="black" points="370.5,-205.99 374,-215.99 377.5,-205.99 370.5,-205.99"/>
</g>
<!-- UserRolesDBService -->
<g id="node5" class="node">
<title>UserRolesDBService</title>
<ellipse fill="#fdb462" stroke="black" cx="288" cy="-104" rx="93.75" ry="18"/>
<text text-anchor="middle" x="288" y="-99.8" font-family="Times,serif" font-size="14.00">UserRolesDBService</text>
</g>
<!-- UserRolesDBService&#45;&gt;UsersApiModule -->
<g id="edge4" class="edge">
<title>UserRolesDBService&#45;&gt;UsersApiModule</title>
<path fill="none" stroke="black" d="M349.71,-117.78C349.71,-117.78 349.71,-140.55 349.71,-140.55"/>
<polygon fill="black" stroke="black" points="346.21,-140.55 349.71,-150.55 353.21,-140.55 346.21,-140.55"/>
</g>
<!-- UsersApiService -->
<g id="node6" class="node">
<title>UsersApiService</title>
<ellipse fill="#fdb462" stroke="black" cx="100" cy="-104" rx="76.42" ry="18"/>
<text text-anchor="middle" x="100" y="-99.8" font-family="Times,serif" font-size="14.00">UsersApiService</text>
</g>
<!-- UsersApiService&#45;&gt;UsersApiModule -->
<g id="edge5" class="edge">
<title>UsersApiService&#45;&gt;UsersApiModule</title>
<path fill="none" stroke="black" d="M100,-122.11C100,-141.34 100,-169 100,-169 100,-169 307.56,-169 307.56,-169"/>
<polygon fill="black" stroke="black" points="307.56,-172.5 317.56,-169 307.56,-165.5 307.56,-172.5"/>
</g>
</g>
</svg>
