<?xml version="1.0" encoding="UTF-8" standalone="no"?>
<!DOCTYPE svg PUBLIC "-//W3C//DTD SVG 1.1//EN"
 "http://www.w3.org/Graphics/SVG/1.1/DTD/svg11.dtd">
<!-- Generated by graphviz version 2.47.0 (20210316.0004)
 -->
<!-- Title: dependencies Pages: 1 -->
<svg width="657pt" height="284pt"
 viewBox="0.00 0.00 657.00 284.00" xmlns="http://www.w3.org/2000/svg" xmlns:xlink="http://www.w3.org/1999/xlink">
<g id="graph0" class="graph" transform="scale(1 1) rotate(0) translate(4 280)">
<title>dependencies</title>
<polygon fill="white" stroke="transparent" points="-4,4 -4,-280 653,-280 653,4 -4,4"/>
<text text-anchor="start" x="303.51" y="-42.4" font-family="Times-12" font-weight="bold" font-size="14.00">Legend</text>
<polygon fill="#ffffb3" stroke="transparent" points="90.5,-10 90.5,-30 110.5,-30 110.5,-10 90.5,-10"/>
<text text-anchor="start" x="114.13" y="-15.4" font-family="Times-12" font-size="14.00"> &#160;Declarations</text>
<polygon fill="#8dd3c7" stroke="transparent" points="203.5,-10 203.5,-30 223.5,-30 223.5,-10 203.5,-10"/>
<text text-anchor="start" x="227.23" y="-15.4" font-family="Times-12" font-size="14.00"> &#160;Module</text>
<polygon fill="#80b1d3" stroke="transparent" points="289.5,-10 289.5,-30 309.5,-30 309.5,-10 289.5,-10"/>
<text text-anchor="start" x="313.28" y="-15.4" font-family="Times-12" font-size="14.00"> &#160;Bootstrap</text>
<polygon fill="#fdb462" stroke="transparent" points="386.5,-10 386.5,-30 406.5,-30 406.5,-10 386.5,-10"/>
<text text-anchor="start" x="410.17" y="-15.4" font-family="Times-12" font-size="14.00"> &#160;Providers</text>
<polygon fill="#fb8072" stroke="transparent" points="482.5,-10 482.5,-30 502.5,-30 502.5,-10 482.5,-10"/>
<text text-anchor="start" x="506.23" y="-15.4" font-family="Times-12" font-size="14.00"> &#160;Exports</text>
<g id="clust1" class="cluster">
<title>cluster_UsersDBModule</title>
<polygon fill="none" stroke="black" stroke-dasharray="1,5" points="8,-70 8,-268 641,-268 641,-70 8,-70"/>
</g>
<g id="clust3" class="cluster">
<title>cluster_UsersDBModule_imports</title>
<polygon fill="none" stroke="black" points="396,-78 396,-130 633,-130 633,-78 396,-78"/>
</g>
<g id="clust4" class="cluster">
<title>cluster_UsersDBModule_exports</title>
<polygon fill="none" stroke="black" points="212,-208 212,-260 498,-260 498,-208 212,-208"/>
</g>
<g id="clust6" class="cluster">
<title>cluster_UsersDBModule_providers</title>
<polygon fill="none" stroke="black" points="16,-78 16,-130 388,-130 388,-78 16,-78"/>
</g>
<!-- DatabaseModule -->
<g id="node1" class="node">
<title>DatabaseModule</title>
<polygon fill="#8dd3c7" stroke="black" points="625.35,-122 622.35,-126 601.35,-126 598.35,-122 514.65,-122 514.65,-86 625.35,-86 625.35,-122"/>
<text text-anchor="middle" x="570" y="-99.8" font-family="Times,serif" font-size="14.00">DatabaseModule</text>
</g>
<!-- UsersDBModule -->
<g id="node3" class="node">
<title>UsersDBModule</title>
<polygon fill="#8dd3c7" stroke="black" points="403.36,-187 400.36,-191 379.36,-191 376.36,-187 292.64,-187 292.64,-151 403.36,-151 403.36,-187"/>
<text text-anchor="middle" x="348" y="-164.8" font-family="Times,serif" font-size="14.00">UsersDBModule</text>
</g>
<!-- DatabaseModule&#45;&gt;UsersDBModule -->
<g id="edge1" class="edge">
<title>DatabaseModule&#45;&gt;UsersDBModule</title>
<path fill="none" stroke="black" d="M570,-122.11C570,-141.34 570,-169 570,-169 570,-169 413.45,-169 413.45,-169"/>
<polygon fill="black" stroke="black" points="413.45,-165.5 403.45,-169 413.45,-172.5 413.45,-165.5"/>
</g>
<!-- EmailModule -->
<g id="node2" class="node">
<title>EmailModule</title>
<polygon fill="#8dd3c7" stroke="black" points="496.49,-122 493.49,-126 472.49,-126 469.49,-122 403.51,-122 403.51,-86 496.49,-86 496.49,-122"/>
<text text-anchor="middle" x="450" y="-99.8" font-family="Times,serif" font-size="14.00">EmailModule</text>
</g>
<!-- EmailModule&#45;&gt;UsersDBModule -->
<g id="edge2" class="edge">
<title>EmailModule&#45;&gt;UsersDBModule</title>
<path fill="none" stroke="black" d="M403.36,-104C396.41,-104 391.53,-104 391.53,-104 391.53,-104 391.53,-140.89 391.53,-140.89"/>
<polygon fill="black" stroke="black" points="388.03,-140.89 391.53,-150.89 395.03,-140.89 388.03,-140.89"/>
</g>
<!-- UserRolesDBService  -->
<g id="node4" class="node">
<title>UserRolesDBService </title>
<polygon fill="#fb8072" stroke="black" points="489.73,-252 350.27,-252 350.27,-216 489.73,-216 489.73,-252"/>
<text text-anchor="middle" x="420" y="-229.8" font-family="Times,serif" font-size="14.00">UserRolesDBService </text>
</g>
<!-- UsersDBModule&#45;&gt;UserRolesDBService  -->
<g id="edge3" class="edge">
<title>UsersDBModule&#45;&gt;UserRolesDBService </title>
<path fill="none" stroke="black" stroke-dasharray="5,2" d="M376.91,-187.11C376.91,-187.11 376.91,-205.99 376.91,-205.99"/>
<polygon fill="black" stroke="black" points="373.41,-205.99 376.91,-215.99 380.41,-205.99 373.41,-205.99"/>
</g>
<!-- UsersDBService  -->
<g id="node5" class="node">
<title>UsersDBService </title>
<polygon fill="#fb8072" stroke="black" points="332.29,-252 219.71,-252 219.71,-216 332.29,-216 332.29,-252"/>
<text text-anchor="middle" x="276" y="-229.8" font-family="Times,serif" font-size="14.00">UsersDBService </text>
</g>
<!-- UsersDBModule&#45;&gt;UsersDBService  -->
<g id="edge4" class="edge">
<title>UsersDBModule&#45;&gt;UsersDBService </title>
<path fill="none" stroke="black" stroke-dasharray="5,2" d="M312.48,-187.11C312.48,-187.11 312.48,-205.99 312.48,-205.99"/>
<polygon fill="black" stroke="black" points="308.98,-205.99 312.48,-215.99 315.98,-205.99 308.98,-205.99"/>
</g>
<!-- UserRolesDBService -->
<g id="node6" class="node">
<title>UserRolesDBService</title>
<ellipse fill="#fdb462" stroke="black" cx="286" cy="-104" rx="93.75" ry="18"/>
<text text-anchor="middle" x="286" y="-99.8" font-family="Times,serif" font-size="14.00">UserRolesDBService</text>
</g>
<!-- UserRolesDBService&#45;&gt;UsersDBModule -->
<g id="edge5" class="edge">
<title>UserRolesDBService&#45;&gt;UsersDBModule</title>
<path fill="none" stroke="black" d="M336.1,-119.4C336.1,-119.4 336.1,-140.94 336.1,-140.94"/>
<polygon fill="black" stroke="black" points="332.6,-140.94 336.1,-150.94 339.6,-140.94 332.6,-140.94"/>
</g>
<!-- UsersDBService -->
<g id="node7" class="node">
<title>UsersDBService</title>
<ellipse fill="#fdb462" stroke="black" cx="99" cy="-104" rx="75.28" ry="18"/>
<text text-anchor="middle" x="99" y="-99.8" font-family="Times,serif" font-size="14.00">UsersDBService</text>
</g>
<!-- UsersDBService&#45;&gt;UsersDBModule -->
<g id="edge6" class="edge">
<title>UsersDBService&#45;&gt;UsersDBModule</title>
<path fill="none" stroke="black" d="M99,-122.11C99,-141.34 99,-169 99,-169 99,-169 282.43,-169 282.43,-169"/>
<polygon fill="black" stroke="black" points="282.43,-172.5 292.43,-169 282.43,-165.5 282.43,-172.5"/>
</g>
</g>
</svg>
