<?xml version="1.0" encoding="UTF-8" standalone="no"?>
<!DOCTYPE svg PUBLIC "-//W3C//DTD SVG 1.1//EN"
 "http://www.w3.org/Graphics/SVG/1.1/DTD/svg11.dtd">
<!-- Generated by graphviz version 2.47.0 (20210316.0004)
 -->
<!-- Title: dependencies Pages: 1 -->
<svg width="504pt" height="284pt"
 viewBox="0.00 0.00 504.00 284.00" xmlns="http://www.w3.org/2000/svg" xmlns:xlink="http://www.w3.org/1999/xlink">
<g id="graph0" class="graph" transform="scale(1 1) rotate(0) translate(4 280)">
<title>dependencies</title>
<polygon fill="white" stroke="transparent" points="-4,4 -4,-280 500,-280 500,4 -4,4"/>
<text text-anchor="start" x="227.01" y="-42.4" font-family="Times-12" font-weight="bold" font-size="14.00">Legend</text>
<polygon fill="#ffffb3" stroke="transparent" points="14,-10 14,-30 34,-30 34,-10 14,-10"/>
<text text-anchor="start" x="37.63" y="-15.4" font-family="Times-12" font-size="14.00"> &#160;Declarations</text>
<polygon fill="#8dd3c7" stroke="transparent" points="127,-10 127,-30 147,-30 147,-10 127,-10"/>
<text text-anchor="start" x="150.73" y="-15.4" font-family="Times-12" font-size="14.00"> &#160;Module</text>
<polygon fill="#80b1d3" stroke="transparent" points="213,-10 213,-30 233,-30 233,-10 213,-10"/>
<text text-anchor="start" x="236.78" y="-15.4" font-family="Times-12" font-size="14.00"> &#160;Bootstrap</text>
<polygon fill="#fdb462" stroke="transparent" points="310,-10 310,-30 330,-30 330,-10 310,-10"/>
<text text-anchor="start" x="333.67" y="-15.4" font-family="Times-12" font-size="14.00"> &#160;Providers</text>
<polygon fill="#fb8072" stroke="transparent" points="406,-10 406,-30 426,-30 426,-10 406,-10"/>
<text text-anchor="start" x="429.73" y="-15.4" font-family="Times-12" font-size="14.00"> &#160;Exports</text>
<g id="clust1" class="cluster">
<title>cluster_CountriesDbModule</title>
<polygon fill="none" stroke="black" stroke-dasharray="1,5" points="76,-70 76,-268 420,-268 420,-70 76,-70"/>
</g>
<g id="clust6" class="cluster">
<title>cluster_CountriesDbModule_providers</title>
<polygon fill="none" stroke="black" points="218,-78 218,-130 412,-130 412,-78 218,-78"/>
</g>
<g id="clust3" class="cluster">
<title>cluster_CountriesDbModule_imports</title>
<polygon fill="none" stroke="black" points="84,-78 84,-130 210,-130 210,-78 84,-78"/>
</g>
<g id="clust4" class="cluster">
<title>cluster_CountriesDbModule_exports</title>
<polygon fill="none" stroke="black" points="162,-208 162,-260 312,-260 312,-208 162,-208"/>
</g>
<!-- DatabaseModule -->
<g id="node1" class="node">
<title>DatabaseModule</title>
<polygon fill="#8dd3c7" stroke="black" points="202.35,-122 199.35,-126 178.35,-126 175.35,-122 91.65,-122 91.65,-86 202.35,-86 202.35,-122"/>
<text text-anchor="middle" x="147" y="-99.8" font-family="Times,serif" font-size="14.00">DatabaseModule</text>
</g>
<!-- CountriesDbModule -->
<g id="node2" class="node">
<title>CountriesDbModule</title>
<polygon fill="#8dd3c7" stroke="black" points="302.59,-187 299.59,-191 278.59,-191 275.59,-187 171.41,-187 171.41,-151 302.59,-151 302.59,-187"/>
<text text-anchor="middle" x="237" y="-164.8" font-family="Times,serif" font-size="14.00">CountriesDbModule</text>
</g>
<!-- DatabaseModule&#45;&gt;CountriesDbModule -->
<g id="edge1" class="edge">
<title>DatabaseModule&#45;&gt;CountriesDbModule</title>
<path fill="none" stroke="black" d="M186.94,-122.11C186.94,-122.11 186.94,-140.99 186.94,-140.99"/>
<polygon fill="black" stroke="black" points="183.44,-140.99 186.94,-150.99 190.44,-140.99 183.44,-140.99"/>
</g>
<!-- CountriesDbService  -->
<g id="node3" class="node">
<title>CountriesDbService </title>
<polygon fill="#fb8072" stroke="black" points="303.52,-252 170.48,-252 170.48,-216 303.52,-216 303.52,-252"/>
<text text-anchor="middle" x="237" y="-229.8" font-family="Times,serif" font-size="14.00">CountriesDbService </text>
</g>
<!-- CountriesDbModule&#45;&gt;CountriesDbService  -->
<g id="edge2" class="edge">
<title>CountriesDbModule&#45;&gt;CountriesDbService </title>
<path fill="none" stroke="black" stroke-dasharray="5,2" d="M237,-187.11C237,-187.11 237,-205.99 237,-205.99"/>
<polygon fill="black" stroke="black" points="233.5,-205.99 237,-215.99 240.5,-205.99 233.5,-205.99"/>
</g>
<!-- CountriesDbService -->
<g id="node4" class="node">
<title>CountriesDbService</title>
<ellipse fill="#fdb462" stroke="black" cx="315" cy="-104" rx="89.18" ry="18"/>
<text text-anchor="middle" x="315" y="-99.8" font-family="Times,serif" font-size="14.00">CountriesDbService</text>
</g>
<!-- CountriesDbService&#45;&gt;CountriesDbModule -->
<g id="edge3" class="edge">
<title>CountriesDbService&#45;&gt;CountriesDbModule</title>
<path fill="none" stroke="black" d="M264.1,-119.08C264.1,-119.08 264.1,-140.76 264.1,-140.76"/>
<polygon fill="black" stroke="black" points="260.6,-140.76 264.1,-150.76 267.6,-140.76 260.6,-140.76"/>
</g>
</g>
</svg>
