<?xml version="1.0" encoding="UTF-8" standalone="no"?>
<!DOCTYPE svg PUBLIC "-//W3C//DTD SVG 1.1//EN"
 "http://www.w3.org/Graphics/SVG/1.1/DTD/svg11.dtd">
<!-- Generated by graphviz version 2.47.0 (20210316.0004)
 -->
<!-- Title: dependencies Pages: 1 -->
<svg width="504pt" height="284pt"
 viewBox="0.00 0.00 504.00 284.00" xmlns="http://www.w3.org/2000/svg" xmlns:xlink="http://www.w3.org/1999/xlink">
<g id="graph0" class="graph" transform="scale(1 1) rotate(0) translate(4 280)">
<title>dependencies</title>
<polygon fill="white" stroke="transparent" points="-4,4 -4,-280 500,-280 500,4 -4,4"/>
<text text-anchor="start" x="227.01" y="-42.4" font-family="Times-12" font-weight="bold" font-size="14.00">Legend</text>
<polygon fill="#ffffb3" stroke="transparent" points="14,-10 14,-30 34,-30 34,-10 14,-10"/>
<text text-anchor="start" x="37.63" y="-15.4" font-family="Times-12" font-size="14.00"> &#160;Declarations</text>
<polygon fill="#8dd3c7" stroke="transparent" points="127,-10 127,-30 147,-30 147,-10 127,-10"/>
<text text-anchor="start" x="150.73" y="-15.4" font-family="Times-12" font-size="14.00"> &#160;Module</text>
<polygon fill="#80b1d3" stroke="transparent" points="213,-10 213,-30 233,-30 233,-10 213,-10"/>
<text text-anchor="start" x="236.78" y="-15.4" font-family="Times-12" font-size="14.00"> &#160;Bootstrap</text>
<polygon fill="#fdb462" stroke="transparent" points="310,-10 310,-30 330,-30 330,-10 310,-10"/>
<text text-anchor="start" x="333.67" y="-15.4" font-family="Times-12" font-size="14.00"> &#160;Providers</text>
<polygon fill="#fb8072" stroke="transparent" points="406,-10 406,-30 426,-30 426,-10 406,-10"/>
<text text-anchor="start" x="429.73" y="-15.4" font-family="Times-12" font-size="14.00"> &#160;Exports</text>
<g id="clust1" class="cluster">
<title>cluster_CurrenciesDbModule</title>
<polygon fill="none" stroke="black" stroke-dasharray="1,5" points="71,-70 71,-268 425,-268 425,-70 71,-70"/>
</g>
<g id="clust6" class="cluster">
<title>cluster_CurrenciesDbModule_providers</title>
<polygon fill="none" stroke="black" points="213,-78 213,-130 417,-130 417,-78 213,-78"/>
</g>
<g id="clust3" class="cluster">
<title>cluster_CurrenciesDbModule_imports</title>
<polygon fill="none" stroke="black" points="79,-78 79,-130 205,-130 205,-78 79,-78"/>
</g>
<g id="clust4" class="cluster">
<title>cluster_CurrenciesDbModule_exports</title>
<polygon fill="none" stroke="black" points="158,-208 158,-260 314,-260 314,-208 158,-208"/>
</g>
<!-- DatabaseModule -->
<g id="node1" class="node">
<title>DatabaseModule</title>
<polygon fill="#8dd3c7" stroke="black" points="197.35,-122 194.35,-126 173.35,-126 170.35,-122 86.65,-122 86.65,-86 197.35,-86 197.35,-122"/>
<text text-anchor="middle" x="142" y="-99.8" font-family="Times,serif" font-size="14.00">DatabaseModule</text>
</g>
<!-- CurrenciesDbModule -->
<g id="node2" class="node">
<title>CurrenciesDbModule</title>
<polygon fill="#8dd3c7" stroke="black" points="304.79,-187 301.79,-191 280.79,-191 277.79,-187 167.21,-187 167.21,-151 304.79,-151 304.79,-187"/>
<text text-anchor="middle" x="236" y="-164.8" font-family="Times,serif" font-size="14.00">CurrenciesDbModule</text>
</g>
<!-- DatabaseModule&#45;&gt;CurrenciesDbModule -->
<g id="edge1" class="edge">
<title>DatabaseModule&#45;&gt;CurrenciesDbModule</title>
<path fill="none" stroke="black" d="M182.39,-122.11C182.39,-122.11 182.39,-140.99 182.39,-140.99"/>
<polygon fill="black" stroke="black" points="178.89,-140.99 182.39,-150.99 185.89,-140.99 178.89,-140.99"/>
</g>
<!-- CurrenciesDbService  -->
<g id="node3" class="node">
<title>CurrenciesDbService </title>
<polygon fill="#fb8072" stroke="black" points="305.72,-252 166.28,-252 166.28,-216 305.72,-216 305.72,-252"/>
<text text-anchor="middle" x="236" y="-229.8" font-family="Times,serif" font-size="14.00">CurrenciesDbService </text>
</g>
<!-- CurrenciesDbModule&#45;&gt;CurrenciesDbService  -->
<g id="edge2" class="edge">
<title>CurrenciesDbModule&#45;&gt;CurrenciesDbService </title>
<path fill="none" stroke="black" stroke-dasharray="5,2" d="M236,-187.11C236,-187.11 236,-205.99 236,-205.99"/>
<polygon fill="black" stroke="black" points="232.5,-205.99 236,-215.99 239.5,-205.99 232.5,-205.99"/>
</g>
<!-- CurrenciesDbService -->
<g id="node4" class="node">
<title>CurrenciesDbService</title>
<ellipse fill="#fdb462" stroke="black" cx="315" cy="-104" rx="93.74" ry="18"/>
<text text-anchor="middle" x="315" y="-99.8" font-family="Times,serif" font-size="14.00">CurrenciesDbService</text>
</g>
<!-- CurrenciesDbService&#45;&gt;CurrenciesDbModule -->
<g id="edge3" class="edge">
<title>CurrenciesDbService&#45;&gt;CurrenciesDbModule</title>
<path fill="none" stroke="black" d="M263.01,-119.08C263.01,-119.08 263.01,-140.76 263.01,-140.76"/>
<polygon fill="black" stroke="black" points="259.51,-140.76 263.01,-150.76 266.51,-140.76 259.51,-140.76"/>
</g>
</g>
</svg>
